<svg width="400" height="325" viewBox="0 0 400 325" xmlns="http://www.w3.org/2000/svg" style="background:#fff"><title>Home Page &amp;gt; Design Solutions</title><g fill="none" fill-rule="evenodd"><path d="M285.634 91.206C275.027 72.98 256.314 58.086 242 53" stroke="#83A5C2" stroke-width="6" stroke-linecap="round"/><path fill="#83A5C2" d="M292.44 104.754L275.525 92.58l19.184-8.542z"/><path d="M264.716 233.9c16.573-13.04 28.717-33.644 31.762-48.527" stroke="#83A5C2" stroke-width="6" stroke-linecap="round"/><path fill="#83A5C2" d="M252.248 242.524l9.7-18.443 11.129 17.81z"/><g><path d="M110.29 198.803c7.28 19.792 23.123 37.708 36.337 45.203" stroke="#83A5C2" stroke-width="6" stroke-linecap="round"/><path fill="#83A5C2" d="M106.94 184.28l14.543 14.925-20.376 5.08z"/></g><g><path d="M150.803 56.31c-19.235 8.643-36.003 25.697-42.558 39.401" stroke="#83A5C2" stroke-width="6" stroke-linecap="round"/><path fill="#83A5C2" d="M165.057 51.955l-13.874 15.549-6.49-19.972z"/></g><g><g transform="rotate(-25 299.15 -96.92)" stroke="#4368C8" stroke-width="4"><rect x="14.528" y="35.66" width="9.245" height="34.34" rx="4"/><circle fill="#FFF" cx="19.151" cy="19.151" r="19.151"/></g><path fill="#FFF" d="M69 151h71v16H69z"/><text font-family="Nunito-Black, Nunito" font-size="15" font-weight="700" letter-spacing="3" fill="#83A5C2" transform="translate(69 149)"><tspan x="5" y="15">LEARN</tspan></text><path d="M300.506 131.354L309 135" stroke="#B9D0E4" stroke-width="4"/><g stroke="#70B876" stroke-width="4"><path d="M299.27 119.435l11.6 4.923-18.095 42.627-11.598-4.923 18.094-42.627zm2.646-6.232a4.001 4.001 0 0 1 5.248-2.117l4.227 1.795a3.996 3.996 0 0 1 2.123 5.246l-2.434 5.736-11.599-4.924 2.435-5.736zm-19.99 63.216l-.75-14.357 11.6 4.923-10.85 9.434z" stroke-linecap="round" stroke-linejoin="round"/><path d="M297.506 128.354L306 132"/></g><path fill="#FFF" d="M267 144h66v16h-66z"/><text font-family="Nunito-Black, Nunito" font-size="15" font-weight="700" letter-spacing="3" fill="#83A5C2" transform="translate(267 142)"><tspan x="2.272" y="15">BUILD</tspan></text><g><path d="M201.5 25C187.99 25 177 35.99 177 49.5c0 9.877 6.06 18.868 15.167 22.63v14.703c0 .644.522 1.167 1.166 1.167h2.334v4.667H191V95H213.167v-2.333h-5.834V88h2.334c.644 0 1.166-.523 1.166-1.167V72.13C219.94 68.369 226 59.377 226 49.5c0-13.51-10.99-24.5-24.5-24.5zm7 60.667h-2.333c-.644 0-1.167.522-1.167 1.166v5.834h-7V88h4.667v-2.333H194.5v-5.834h14v5.834zm.757-15.425c-.455.17-.757.607-.757 1.093V77.5h-14v-6.165c0-.486-.302-.922-.757-1.093-8.62-3.226-14.41-11.561-14.41-20.742 0-12.223 9.944-22.167 22.167-22.167s22.167 9.944 22.167 22.167c0 9.18-5.79 17.516-14.41 20.742z" stroke="#EE6262" stroke-width="2" fill="#EE6262" fill-rule="nonzero"/><path fill="#FFF" d="M170 45h62v16h-62z"/><text font-family="Nunito-Black, Nunito" font-size="15" font-weight="700" letter-spacing="2.5" fill="#83A5C2" transform="translate(170 43)"><tspan x="10.245" y="15">IDEA</tspan></text></g><g><path d="M198.754 198.773c-5.703 5.703-11.207 15.232-13.905 26.164-1.065 4.312-1.671 8.859-1.666 13.448a64.902 64.902 0 0 0-3.67 3.154c-3.697 3.46-6.07 6.7-7.379 10.236-1.746 4.713-1.525 9.69-.555 15.829a1.796 1.796 0 0 0 2.638 1.29l16.087-8.67h19.439l16.087 8.67a1.796 1.796 0 0 0 2.618-1.31c.97-6.139 1.17-11.096-.575-15.81-1.694-4.573-5.16-8.686-10.99-13.369.032-12.863-4.88-25.336-10.81-33.86a1.796 1.796 0 0 0-2.955 2.043c8.389 12.058 14.504 32.956 5.851 50.047H191c-4.974-9.836-5.121-20.85-2.659-30.826 2.54-10.292 7.865-19.41 12.953-24.497a1.796 1.796 0 1 0-2.54-2.539zm-4.443 22.216c-3.14 3.14-3.14 8.286 0 11.426 3.14 3.14 8.285 3.14 11.425 0 3.14-3.14 3.14-8.286 0-11.426-3.14-3.14-8.285-3.14-11.425 0zm2.539 2.54a4.461 4.461 0 0 1 6.347 0 4.461 4.461 0 0 1 0 6.347 4.461 4.461 0 0 1-6.347 0 4.461 4.461 0 0 1 0-6.348zm-16.444 22.156c.866-.904 1.884-1.829 2.995-2.797.47 5.003 1.742 9.997 4.066 14.778l-12.576 6.784c-.533-4.5-.555-8.211.635-11.426.892-2.41 2.421-4.771 4.88-7.339zm10.552 21.78c-.239.32-.365.711-.357 1.11v7.618a1.796 1.796 0 1 0 3.59.02v-7.617a1.796 1.796 0 0 0-3.233-1.131zm25.728-24.537c4.253 3.7 6.63 6.845 7.835 10.096 1.19 3.214 1.128 6.929.595 11.426l-12.556-6.764c2.328-4.782 3.646-9.761 4.126-14.758zm-18.11 23.267c-.24.32-.366.712-.358 1.111v15.234a1.796 1.796 0 1 0 3.59.02v-15.234a1.796 1.796 0 0 0-3.233-1.13zm7.616 1.27c-.239.32-.365.711-.357 1.11v7.618a1.796 1.796 0 1 0 3.59.02v-7.617a1.796 1.796 0 0 0-3.233-1.131z" fill="#169CA6" fill-rule="nonzero"/><path fill="#FFF" d="M158 238h86v16h-86z"/><text font-family="Nunito-Black, Nunito" font-size="15" font-weight="700" letter-spacing="3" fill="#83A5C2" transform="translate(150 197)"><tspan x="11.34" y="55">LAUNCH</tspan></text></g></g></g></svg>