<svg width="190" height="140" viewBox="0 0 190 140" xmlns="http://www.w3.org/2000/svg"><title>Home Page &amp;gt; Reduce Development Costs</title><g fill="none" fill-rule="evenodd"><path d="M52.301 79.1V35.193c0-5.397-2.03-20.498 9.138-20.498 11.17 0 72.677-.334 77.993-.334 5.315 0 11.822.015 11.822 7.61 0 7.593-.863 68.358-.863 71.984v7.375s9.407-3.648 9.407-6.767V5H62.183v4.498" stroke="#70B3B8" stroke-width="4" stroke-linecap="round" stroke-linejoin="round"/><path d="M147.5 102h-6" stroke="#70B3B8" stroke-width="4" stroke-linecap="round"/><path d="M74.855 133l8.697-14.573L94.266 133l10.618-14.573L115.587 133l10.723-14.573L137.102 133V55.953c0-13.284-1.214-27.596 2.369-32.256 3.582-4.66 9.446-6.697 9.446-6.697" stroke="#70B3B8" stroke-width="4" stroke-linecap="round" stroke-linejoin="round"/><path stroke="#70B3B8" stroke-width="4" stroke-linecap="round" stroke-linejoin="round" d="M59.006 67.054l8.617-12.206 61.076 49.873"/><path fill="#70B3B8" d="M132.364 107.864l-20.153-5.303 14.85-14.85z"/><path d="M93.254 59h20.272M52.273 27.973V84M83.254 51h47M120.254 59h10M125.254 66h5M114.254 66h5M102.254 66h5" stroke="#70B3B8" stroke-width="4" stroke-linecap="round"/><g transform="translate(31 90)" stroke="#70B3B8" stroke-width="4"><circle cx="23" cy="23" r="23"/><path d="M30.528 17.16v-3.385c0-.806-.37-1.23-1.842-1.23H16.662c-1.438 0-1.662.808-1.662 2.95v5.335c0 1.144 1.055 1.74 3.113 1.74h9.48c2.109 0 2.862.487 2.862 2.2v6.59c0 1.284-.273 1.51-2.433 1.51H16.78c-1.264 0-1.04-1.094-1.04-3.231v-2.986" stroke-linejoin="round"/><path d="M23 8.455v.909M23 36.636v.91" stroke-linecap="square"/></g><path d="M80.685 28.362c-.373-.372-.962-.372-1.303 0-.372.372-.372.961 0 1.302l3.349 3.348-3.349 3.348c-.372.372-.372.962 0 1.302a.945.945 0 0 0 .651.28.945.945 0 0 0 .652-.28l3.999-4c.372-.371.372-.96 0-1.301l-4-4zM76.91 26.086c-.497-.106-1.023.106-1.148.446l-5.703 13.72c-.155.34.154.7.65.785.094.022.155.022.248.022.404 0 .776-.191.9-.468l5.674-13.719c.154-.34-.125-.7-.621-.786zM68.618 28.362c-.372-.372-.962-.372-1.303 0l-3.999 3.999c-.372.372-.372.961 0 1.302l4 4a.945.945 0 0 0 .65.279.945.945 0 0 0 .652-.28c.372-.372.372-.961 0-1.302l-3.349-3.348 3.349-3.348c.372-.34.372-.93 0-1.302z" fill="#70B3B8" fill-rule="nonzero"/></g></svg>