<svg width="190" height="140" viewBox="0 0 190 140" xmlns="http://www.w3.org/2000/svg" xmlns:xlink="http://www.w3.org/1999/xlink"><title>Home Page &amp;gt; Brand Loyalty Icon</title><defs><path d="M0 6.007A6.009 6.009 0 0 1 6.007 0h121.259a6.005 6.005 0 0 1 6.007 6.007V133.75H0V6.007z" id="a"/><mask id="b" x="0" y="0" width="133.273" height="133.75" fill="#fff"><use xlink:href="#a"/></mask></defs><g fill="none" fill-rule="evenodd"><g transform="translate(31 3)"><use stroke="#70B3B8" mask="url(#b)" stroke-width="8" fill="#FFF" xlink:href="#a"/><ellipse fill="#70B3B8" cx="11.823" cy="11.998" rx="3.394" ry="3.394"/><ellipse fill="#70B3B8" cx="23.546" cy="11.998" rx="3.394" ry="3.394"/><ellipse fill="#70B3B8" cx="35.269" cy="11.998" rx="3.394" ry="3.394"/><path d="M2.568 21.561h127.2" stroke="#70B3B8" stroke-width="4" stroke-linecap="square"/></g><g stroke="#70B3B8" stroke-width="4" stroke-linecap="round"><path stroke-linejoin="round" fill="#FFF" d="M98 89l-11.756 6.18 2.245-13.09-9.51-9.27 13.143-1.91L98 59l5.878 11.91 13.143 1.91-9.51 9.27 2.245 13.09z"/><path d="M98 48v4M98 103v4M72 73h-4M128 73h-4M118.06 54.732l-2.828 2.829M77.232 54.732l2.829 2.829M123.06 93.56l-2.828-2.828M73.232 93.56l2.829-2.828"/></g><path d="M178.23 116.724c.085 7.878-3.383 13.926-9.514 16.59-4.812 2.092-10.226 2.062-14.405 1.802-2.978-.185-6.056-.376-8.717-1.593-9.218-4.22-10.332-8.115-13.307-18.525l-3.545-14.11a4.027 4.027 0 0 1 .162-3.095 4.028 4.028 0 0 1 2.297-2.084 4.027 4.027 0 0 1 3.097.163 4.028 4.028 0 0 1 2.083 2.297l4.188 11.765a.88.88 0 0 0 1.66-.58c.024-.078.05-.157.05-.244V71.298a3.838 3.838 0 0 1 3.833-3.833 3.838 3.838 0 0 1 3.833 3.833v28.285a.88.88 0 1 0 1.761 0v-12.34a3.838 3.838 0 0 1 3.834-3.833 3.838 3.838 0 0 1 3.833 3.833V101.11a.88.88 0 1 0 1.761 0V90.016a3.838 3.838 0 0 1 3.834-3.833 3.838 3.838 0 0 1 3.834 3.834v12.478a.88.88 0 1 0 1.76 0v-6.141c0-2.015 1.72-3.655 3.834-3.655s3.834 1.64 3.834 3.655v20.37z" fill="#FFF"/><path d="M175.398 89.938a5.67 5.67 0 0 0-3.834 1.482v-2.403a5.601 5.601 0 0 0-5.594-5.595c-1.546 0-2.947.63-3.96 1.647a5.603 5.603 0 0 0-5.468-4.42 5.57 5.57 0 0 0-3.834 1.53V70.3a5.601 5.601 0 0 0-5.594-5.595 5.601 5.601 0 0 0-5.595 5.594v33.242l-2.478-6.962a5.82 5.82 0 0 0-7.429-3.527 5.772 5.772 0 0 0-3.297 2.987c-.668 1.406-.75 2.983-.255 4.358l3.536 14.086c3.05 10.67 4.313 15.086 14.267 19.643 2.958 1.354 6.203 1.555 9.342 1.75 1.154.07 2.402.125 3.708.125 3.633 0 7.713-.422 11.505-2.07 6.713-2.918 10.666-9.731 10.574-18.215V95.354c0-2.987-2.51-5.416-5.594-5.416zm3.833 25.786c.084 7.878-3.384 13.926-9.515 16.59-4.812 2.092-10.226 2.062-14.405 1.802-2.978-.185-6.056-.376-8.717-1.593-9.218-4.22-10.332-8.115-13.307-18.525l-3.545-14.11a4.027 4.027 0 0 1 .162-3.095 4.028 4.028 0 0 1 2.297-2.084 4.027 4.027 0 0 1 3.097.163 4.028 4.028 0 0 1 2.083 2.297l4.188 11.765a.88.88 0 0 0 1.66-.58c.024-.078.05-.157.05-.244V70.298a3.838 3.838 0 0 1 3.833-3.833 3.838 3.838 0 0 1 3.833 3.833v28.285a.88.88 0 1 0 1.761 0v-12.34a3.838 3.838 0 0 1 3.834-3.833 3.838 3.838 0 0 1 3.833 3.833V100.11a.88.88 0 1 0 1.761 0V89.016a3.838 3.838 0 0 1 3.834-3.833 3.838 3.838 0 0 1 3.834 3.834v12.478a.88.88 0 1 0 1.76 0v-6.141c0-2.015 1.72-3.655 3.834-3.655s3.834 1.64 3.834 3.655v20.37z" stroke="#70B3B8" stroke-width="2" fill="#70B3B8" fill-rule="nonzero"/><g><g transform="translate(8 90)"><ellipse stroke="#70B3B8" stroke-width="4" fill="#FFF" cx="23.395" cy="23.395" rx="23.395" ry="23.395"/><path stroke="#70B3B8" stroke-width="4" stroke-linecap="round" d="M9.363 32.197l9.368-9.834 7.171 6.26 10.608-11.75"/><path fill="#70B3B8" d="M40.068 13.746l-2.364 10.45-7.897-7.363z"/></g></g></g></svg>