<svg width="190" height="140" viewBox="0 0 190 140" xmlns="http://www.w3.org/2000/svg" xmlns:xlink="http://www.w3.org/1999/xlink"><title>Home Page &amp;gt; ROI Icon</title><defs><path d="M0 6.007A6.009 6.009 0 0 1 6.007 0h121.259a6.005 6.005 0 0 1 6.007 6.007V133.75H0V6.007z" id="a"/><mask id="b" x="0" y="0" width="133.273" height="133.75" fill="#fff"><use xlink:href="#a"/></mask></defs><g fill="none" fill-rule="evenodd"><g transform="translate(24 3)"><use stroke="#70B3B8" mask="url(#b)" stroke-width="8" fill="#FFF" xlink:href="#a"/><ellipse fill="#70B3B8" cx="11.823" cy="11.998" rx="3.394" ry="3.394"/><ellipse fill="#70B3B8" cx="23.546" cy="11.998" rx="3.394" ry="3.394"/><ellipse fill="#70B3B8" cx="35.269" cy="11.998" rx="3.394" ry="3.394"/><path d="M2.568 21.561h127.2" stroke="#70B3B8" stroke-width="4" stroke-linecap="square"/></g><g transform="translate(3 30)"><g fill-rule="nonzero" fill="#70B3B8"><path d="M142.167 0H33.833c-1.196 0-2.166.97-2.166 2.167v91c0 1.196.97 2.166 2.166 2.166h108.334c1.196 0 2.166-.97 2.166-2.166v-91c0-1.196-.97-2.167-2.166-2.167zM140 91h-28.167V58.5H107.5V91H90.167V69.333h-4.334V91H68.5V56.333h-4.333V91h-13V67.167h-4.334V91H36V68.064l30.258-30.258 20.139 22.152a2.166 2.166 0 0 0 3.09.12l33.18-31.231v5.82H127V23.833c0-1.196-.97-2.166-2.167-2.166H114V26h5.369L88.121 55.413 67.937 33.209a2.17 2.17 0 0 0-1.552-.709 2.107 2.107 0 0 0-1.583.633L36 61.936V4.333h104V91z"/><path d="M88 11.833h17.333v4.333H88zM79.333 20.5h26v4.333h-26zM101 29.167h4.333V33.5H101z"/></g><g fill="#FFF"><path d="M135.281 27.861c0-9.908 8.06-17.968 17.969-17.968 9.91 0 17.97 8.062 17.97 17.968 0 9.909-8.06 17.971-17.97 17.971-9.908 0-17.969-8.062-17.969-17.97zM130.662 71.995c.25-.25.586-.39.942-.39h43.306c.35 0 .684.136.936.392a1.322 1.322 0 0 1 0 1.879 1.31 1.31 0 0 1-.931.392h-43.313c-.354 0-.687-.138-.944-.394a1.313 1.313 0 0 1-.391-.94c0-.354.14-.685.395-.94zM164.688 103.584h-22.87v-2.193h22.872zM173.35 91.174a7.04 7.04 0 0 1-2.087 5.025 7.032 7.032 0 0 1-5.021 2.079h-25.98c-1.9 0-3.683-.737-5.025-2.083a7.05 7.05 0 0 1-2.077-5.021V77.382h40.194v13.792h-.004zM125.112 56.44v-5.883h14.25c1.57 0 3.046.61 4.157 1.723a5.842 5.842 0 0 1 1.725 4.16v5.882h-14.246a5.833 5.833 0 0 1-4.16-1.725 5.836 5.836 0 0 1-1.726-4.156zM181.39 56.44c0 1.571-.61 3.048-1.723 4.161a5.825 5.825 0 0 1-4.154 1.72h-14.246v-5.88c0-1.567.61-3.046 1.718-4.159a5.845 5.845 0 0 1 4.16-1.725h14.245v5.884z"/></g><path d="M174.908 68.521h-20.1V48.87c10.896-.803 19.525-9.913 19.525-21.022 0-11.634-9.458-21.098-21.083-21.098-11.625 0-21.081 9.466-21.081 21.098 0 11.112 8.629 20.221 19.529 21.024v19.647h-20.096c-1.19 0-2.304.463-3.14 1.299a4.406 4.406 0 0 0-1.306 3.144 4.426 4.426 0 0 0 2.89 4.158v14.099c0 2.735 1.062 5.302 2.99 7.226 1.554 1.558 3.53 2.519 5.668 2.844v5.461h29.092v-5.46c2.137-.326 4.119-1.285 5.666-2.843 1.936-1.928 3-4.497 3-7.228V77.116a4.396 4.396 0 0 0 1.575-1.008 4.423 4.423 0 0 0 1.303-3.146c0-1.19-.463-2.304-1.303-3.144a4.38 4.38 0 0 0-3.129-1.297zm-39.627-40.67c0-9.917 8.06-17.984 17.969-17.984 9.91 0 17.97 8.07 17.97 17.983 0 9.917-8.06 17.986-17.97 17.986-9.908 0-17.969-8.07-17.969-17.986zm-4.619 44.169c.25-.25.586-.39.942-.39h43.306c.35 0 .684.135.936.392a1.323 1.323 0 0 1 0 1.88 1.309 1.309 0 0 1-.931.392h-43.313c-.354 0-.687-.137-.944-.394a1.314 1.314 0 0 1-.391-.94c0-.354.14-.686.395-.94zm34.025 31.615H141.82v-2.196h22.87l-.002 2.196zm8.663-12.42a7.049 7.049 0 0 1-2.087 5.029 7.03 7.03 0 0 1-5.021 2.08h-25.98a7.04 7.04 0 0 1-5.025-2.085 7.058 7.058 0 0 1-2.077-5.025V77.412h40.194v13.802h-.004z" fill="#70B3B8" fill-rule="nonzero"/><path d="M148.352 65.432v-8.99c0-2.401-.935-4.66-2.635-6.36a8.932 8.932 0 0 0-6.357-2.633H122v8.994c0 2.4.935 4.658 2.633 6.356a8.937 8.937 0 0 0 6.36 2.635l17.36-.002zm-23.24-8.991v-5.884h14.25c1.57 0 3.046.61 4.157 1.723a5.842 5.842 0 0 1 1.725 4.16v5.882h-14.246a5.833 5.833 0 0 1-4.16-1.725 5.836 5.836 0 0 1-1.726-4.156zM167.146 47.449a8.95 8.95 0 0 0-6.363 2.635 8.966 8.966 0 0 0-2.635 6.359v8.99h17.362c2.4 0 4.659-.934 6.357-2.634a8.924 8.924 0 0 0 2.633-6.358v-8.994l-17.354.002zm14.244 8.992c0 1.57-.61 3.047-1.723 4.16a5.825 5.825 0 0 1-4.154 1.72h-14.246v-5.88c0-1.567.61-3.046 1.718-4.159a5.845 5.845 0 0 1 4.16-1.725h14.245v5.884zM168.635 27.861c0-8.483-6.902-15.385-15.385-15.385s-15.385 6.902-15.385 15.385c0 8.484 6.902 15.386 15.385 15.386s15.385-6.902 15.385-15.386zm-27.658 0c0-6.768 5.506-12.273 12.273-12.273 6.767 0 12.273 5.507 12.273 12.273 0 6.77-5.506 12.275-12.273 12.275-6.767 0-12.273-5.506-12.273-12.275z" fill="#70B3B8" fill-rule="nonzero"/><path d="M154.806 36.505v-.967a4.634 4.634 0 0 0 2.767-1.312 4.643 4.643 0 0 0 1.348-3.277 4.6 4.6 0 0 0-1.358-3.28 4.6 4.6 0 0 0-3.284-1.362h-2.06a1.53 1.53 0 0 1-1.086-2.61c.294-.292.68-.452 1.086-.452h2.06c.406 0 .794.162 1.077.44.292.295.454.685.454 1.091h3.113a4.65 4.65 0 0 0-1.367-3.294 4.63 4.63 0 0 0-2.748-1.3v-.964h-3.112v.962a4.64 4.64 0 0 0-2.758 1.31 4.624 4.624 0 0 0-1.355 3.282c0 1.246.482 2.41 1.354 3.279a4.602 4.602 0 0 0 3.286 1.362h2.06c.409 0 .794.16 1.086.453a1.533 1.533 0 0 1-1.083 2.613l-2.061-.001c-.408 0-.794-.16-1.08-.442a1.535 1.535 0 0 1-.447-1.087h-3.113c0 1.237.48 2.402 1.36 3.29a4.614 4.614 0 0 0 2.753 1.302v.964h3.108z" fill="#70B3B8" fill-rule="nonzero"/><ellipse stroke="#70B3B8" stroke-width="4" fill="#FFF" cx="23.395" cy="83.395" rx="23.395" ry="23.395"/></g><text font-family="FontAwesome" font-size="30" letter-spacing="-.855" fill="#70B3B8" transform="translate(3 3)"><tspan x="11" y="121"></tspan></text></g></svg>