<svg width="375" height="300" viewBox="0 0 375 300" xmlns="http://www.w3.org/2000/svg" style="background:#fff"><title>Home Page &amp;gt; Team Assistance</title><g fill="none" fill-rule="evenodd"><g stroke-width="6"><g transform="translate(58 177.36)" stroke="#EE6262"><path d="M.175 55.634s-.63-27.188 18.52-27.188S37.213 55.92 37.213 55.92" stroke-linecap="round" stroke-linejoin="round"/><ellipse cx="18.258" cy="12.64" rx="12.64" ry="12.64"/></g><g transform="translate(164 177)" stroke="#70B875"><path d="M.175 55.634s-.63-27.188 18.52-27.188S37.213 55.92 37.213 55.92" stroke-linecap="round" stroke-linejoin="round"/><ellipse cx="18.258" cy="12.64" rx="12.64" ry="12.64"/></g><g transform="translate(270.547 177.36)" stroke="#4368C8"><path d="M.175 55.634s-.63-27.188 18.52-27.188S37.213 55.92 37.213 55.92" stroke-linecap="round" stroke-linejoin="round"/><ellipse cx="18.258" cy="12.64" rx="12.64" ry="12.64"/></g><g stroke="#169CA6"><g transform="translate(162.869 45)"><path d="M.175 55.634s-.63-27.188 18.52-27.188S37.213 55.92 37.213 55.92" stroke-linecap="round" stroke-linejoin="round"/><ellipse cx="18.258" cy="12.64" rx="12.64" ry="12.64"/></g><g transform="translate(128.225 59.045)"><path d="M.175 55.634s-.63-27.188 18.52-27.188S37.213 55.92 37.213 55.92" stroke-linecap="round" stroke-linejoin="round"/><ellipse cx="18.258" cy="12.64" rx="12.64" ry="12.64"/></g><g transform="translate(198.45 59.045)"><path d="M.175 55.634s-.63-27.188 18.52-27.188S37.213 55.92 37.213 55.92" stroke-linecap="round" stroke-linejoin="round"/><ellipse cx="18.258" cy="12.64" rx="12.64" ry="12.64"/></g></g></g><text font-family="Nunito-Black, Nunito" font-size="15" font-weight="700" letter-spacing="3" fill="#83A5C2" transform="translate(51 45)"><tspan x="75" y="90">YOUR TEAM</tspan></text><text font-family="Nunito-Black, Nunito" font-size="12" font-weight="700" letter-spacing="1.6" fill="#83A5C2" transform="translate(51 45)"><tspan x="0" y="206">DESIGN</tspan></text><text font-family="Nunito-Black, Nunito" font-size="12" font-weight="700" letter-spacing="1.6" fill="#83A5C2" transform="translate(51 45)"><tspan x="91" y="206">PROTOTYPE</tspan></text><text font-family="Nunito-Black, Nunito" font-size="12" font-weight="700" letter-spacing="1" fill="#83A5C2" transform="translate(51 45)"><tspan x="201" y="205">RESEARC</tspan> <tspan x="264.244" y="205">H</tspan></text><g><path fill="#83A5C2" d="M122.5 86l-18 10.5v-21z"/><path d="M113 86.002H91.402c-17.007 0-17.282 1.962-17.282 33.981 0 32.02-.12 41.615-.12 41.615" stroke="#83A5C2" stroke-width="6" stroke-linecap="round" stroke-linejoin="round"/></g><g><path fill="#83A5C2" d="M249.5 86l18 10.5v-21z"/><path d="M259 86.002h21.598c17.007 0 17.282 1.962 17.282 33.981 0 32.02.12 41.615.12 41.615" stroke="#83A5C2" stroke-width="6" stroke-linecap="round" stroke-linejoin="round"/></g><path d="M183 142v25.75" stroke="#83A5C2" stroke-width="6" stroke-linecap="round" stroke-linejoin="round"/></g></svg>