<svg width="375" height="300" viewBox="0 0 375 300" xmlns="http://www.w3.org/2000/svg" style="background:#fff"><title>Home Page &amp;gt; UX Reviews</title><g fill="none" fill-rule="evenodd"><path d="M244 219h43v6h-43z" fill="#B9D0E4"/><path fill="#FFF" d="M119 58h146v160.059H119z"/><g fill-rule="nonzero"><path d="M265.031 220.688V56H110.97v164.688H103V226h170v-5.313h-7.969zM259.72 77.25H158.78V61.312H259.72V77.25zm-106.25-15.938V77.25H116.28V61.312h37.188zm-37.188 21.25H259.72v138.125H116.28V82.563z" fill="#83A5C2"/><path fill="#000" d="M121.594 66.625h5.313v5.313h-5.313zM132.219 66.625h5.313v5.313h-5.313z"/><path fill="#83A5C2" d="M164.094 66.625h90.313v5.313h-90.313zM121.594 87.875v37.188h132.812V87.874H121.594zm127.5 31.875H126.906V93.187h122.188v26.563z"/><path fill="#83A5C2" d="M185.344 103.813h5.313v5.313h-5.313zM174.719 103.813h5.313v5.313h-5.313zM195.969 103.813h5.313v5.313h-5.313zM161.438 135.688h-39.844v26.562h39.844v-26.563zm-5.313 21.25h-29.219V141h29.219v15.938zM209.25 135.688h-42.5v26.562h42.5v-26.563zm-5.313 21.25h-31.875V141h31.875v15.938zM214.563 162.25h39.843v-26.563h-39.844v26.563zm5.312-21.25h29.219v15.938h-29.219V141zM121.594 167.563h39.844v5.313h-39.844zM121.594 178.188h39.844v5.313h-39.844zM121.594 188.813h39.844v5.313h-39.844zM166.75 167.563h39.844v5.313H166.75zM166.75 178.188h39.844v5.313H166.75zM166.75 188.813h39.844v5.313H166.75zM214.563 167.563h39.844v5.313h-39.844zM214.563 178.188h39.844v5.313h-39.844zM214.563 188.813h39.844v5.313h-39.844zM121.594 204.396h132.813v5.313H121.594z"/></g><path d="M68 184h70.508s-.136 10.44 1.678 13.572c1.813 3.133 7.804 2.807 7.804 2.807s-6.304 7.013-7.804 11.383c-1.5 4.37-1.678 16.238-1.678 16.238H68v-44z" fill="#FFF"/><path fill="#169CA6" fill-rule="nonzero" d="M100.344 202.219h4.688v4.688h-4.688zM109.719 202.219h4.688v4.688h-4.688zM90.969 202.219h4.688v4.688h-4.688z"/><path stroke="#169CA6" stroke-width="6" stroke-linecap="round" stroke-linejoin="round" d="M139.174 184.305H65.867v40.683h72.838v-13.84l10.727-15.034H139.08z"/><g><path fill="#FFF" d="M70.258 55.291h69.89l2.597 12.113 8.126.784-7.963 12.924-.783 11.978-3.524 2.415-69.083-.13-1.577-39.546z"/><path fill="#EE6262" fill-rule="nonzero" d="M80.5 67.406h23.438v4.688H80.5zM80.5 76.781h46.875v4.688H80.5z"/><path stroke="#EE6262" stroke-width="6" stroke-linecap="round" stroke-linejoin="round" d="M68.975 53.23h73.243v13.405h10.605l-11.902 14.784v14.274H68.394z"/></g><g><path fill="#FFF" d="M228.596 122.26l9.155-.225.645-12.597 69.688-.503 2.942 4.548-.628 34.916-4.276 2.367-65.96-1.668-2.376-2.35-.206-11.359z"/><path fill="#4368C8" fill-rule="nonzero" d="M249.125 121.969h49.219v4.688h-49.219zM249.125 131.344h25.781v4.688h-25.781zM279.594 131.344h19v4.688h-19z"/><path stroke="#4368C8" stroke-width="6" stroke-linecap="round" stroke-linejoin="round" d="M228.14 122.385h9.555V107.25h71.05v42.28h-70.653v-14.424z"/></g><g transform="translate(242 194)" fill="#70B876"><circle cx="25" cy="25" r="25"/></g><path fill="#FFF" fill-rule="nonzero" d="M260.977 228.012l-6.63-6.629 2.21-2.209 4.42 4.42 15.466-15.468 2.21 2.21z"/></g></svg>