<?xml version="1.0" encoding="UTF-8"?>
<svg width="400px" height="325px" viewBox="0 0 400 325" version="1.1" xmlns="http://www.w3.org/2000/svg" xmlns:xlink="http://www.w3.org/1999/xlink" style="background: #FFFFFF;">
    <!-- Generator: Sketch 42 (36781) - http://www.bohemiancoding.com/sketch -->
    <title>Home Page &gt; Design Solutions</title>
    <desc>Created with Sketch.</desc>
    <defs></defs>
    <g id="Page-1" stroke="none" stroke-width="1" fill="none" fill-rule="evenodd">
        <g id="Home-Page-&gt;-Design-Solutions">
            <g id="Group-26" transform="translate(68.000000, 25.000000)">
                <g id="Group-30" transform="translate(19.000000, 11.000000)">
                    <g id="Group-29" transform="translate(152.000000, 17.000000)">
                        <path d="M46.6337891,38.2060547 C36.0274971,19.9795949 17.3144531,5.08691406 3,0" id="Oval-3-Copy-2" stroke="#83A5C2" stroke-width="6" stroke-linecap="round"></path>
                        <polygon id="Triangle-2-Copy-3" fill="#83A5C2" transform="translate(49.778638, 43.531757) rotate(-24.000000) translate(-49.778638, -43.531757) " points="49.7786378 52.5317569 39.2786378 34.5317569 60.2786378 34.5317569"></polygon>
                    </g>
                    <g id="Group-29-Copy" transform="translate(183.666665, 181.276058) rotate(-278.000000) translate(-183.666665, -181.276058) translate(150.666665, 151.276058)">
                        <path d="M48.6337891,38.2060547 C38.0274971,19.9795949 19.3144531,5.08691406 5,1.13686838e-13" id="Oval-3-Copy-3" stroke="#83A5C2" stroke-width="6" stroke-linecap="round"></path>
                        <polygon id="Triangle-2-Copy-4" fill="#83A5C2" transform="translate(51.778638, 43.531757) rotate(-24.000000) translate(-51.778638, -43.531757) " points="51.7786378 52.5317569 41.2786378 34.5317569 62.2786378 34.5317569"></polygon>
                    </g>
                    <g id="Group-29-Copy-2" transform="translate(37.348378, 173.107083) rotate(-170.000000) translate(-37.348378, -173.107083) translate(5.348378, 142.607083)">
                        <path d="M47.6337891,38.2060547 C37.0274971,19.9795949 18.3144531,5.08691406 4,5.68434189e-14" id="Oval-3-Copy-4" stroke="#83A5C2" stroke-width="6" stroke-linecap="round"></path>
                        <polygon id="Triangle-2-Copy-5" fill="#83A5C2" transform="translate(49.793830, 43.705405) rotate(-24.000000) translate(-49.793830, -43.705405) " points="49.79383 52.7054051 39.29383 34.7054051 60.29383 34.7054051"></polygon>
                    </g>
                    <g id="Group-29-Copy-3" transform="translate(53.955287, 35.497500) rotate(-84.000000) translate(-53.955287, -35.497500) translate(21.455287, 5.497500)">
                        <path d="M48.6337891,38.2060547 C38.0274971,19.9795949 19.3144531,5.08691406 5,1.70530257e-13" id="Oval-3" stroke="#83A5C2" stroke-width="6" stroke-linecap="round"></path>
                        <polygon id="Triangle-2-Copy" fill="#83A5C2" transform="translate(50.793830, 43.705405) rotate(-24.000000) translate(-50.793830, -43.705405) " points="50.79383 52.7054051 40.29383 34.7054051 61.29383 34.7054051"></polygon>
                    </g>
                </g>
                <g id="square-copy">
                    <g id="Group-22" transform="translate(0.000000, 75.000000)">
                        <g id="Group-19" transform="translate(33.453235, 40.825472) rotate(-25.000000) translate(-33.453235, -40.825472) translate(13.953235, 5.825472)" stroke="#4368C8" stroke-width="4">
                            <rect id="Rectangle-5" x="14.5283019" y="35.6603774" width="9.24528302" height="34.3396226" rx="4"></rect>
                            <circle id="Oval-2" fill="#FFFFFF" cx="19.1509434" cy="19.1509434" r="19.1509434"></circle>
                        </g>
                        <g id="Group-20" transform="translate(1.000000, 49.000000)">
                            <rect id="Rectangle-14" fill="#FFFFFF" x="0" y="2" width="71" height="16"></rect>
                            <text id="LEARN" font-family="Nunito-Black, Nunito" font-size="15" font-weight="700" letter-spacing="3" fill="#83A5C2">
                                <tspan x="5" y="15">LEARN</tspan>
                            </text>
                        </g>
                    </g>
                    <g id="Group-18" transform="translate(199.000000, 84.000000)">
                        <g id="Group-25" transform="translate(12.000000, 3.000000)" stroke="#B9D0E4" stroke-width="4">
                            <path d="M21.5058594,19.3544922 L30,23" id="Path-4"></path>
                        </g>
                        <g id="Group-25-Copy" transform="translate(9.000000, 0.000000)" stroke="#70B876" stroke-width="4">
                            <path d="M13.3022318,10.9704809 L25.9022318,10.9704809 L25.9022318,57.2781732 L13.3022318,57.2781732 L13.3022318,10.9704809 Z M13.3022318,4.20068828 C13.3022318,1.99185961 15.0941235,0.201250172 17.306263,0.201250172 L21.8982006,0.201250172 C24.109566,0.201250172 25.9022318,1.98331417 25.9022318,4.20068828 L25.9022318,10.4320194 L13.3022318,10.4320194 L13.3022318,4.20068828 Z M19.6022318,70.2012502 L13.3022318,57.2781732 L25.9022318,57.2781732 L19.6022318,70.2012502 Z" id="Combined-Shape" stroke-linecap="round" stroke-linejoin="round" transform="translate(19.602232, 35.201250) rotate(23.000000) translate(-19.602232, -35.201250) "></path>
                            <path d="M21.5058594,19.3544922 L30,23" id="Path-4"></path>
                        </g>
                        <g id="Group-21" transform="translate(0.000000, 33.000000)">
                            <rect id="Rectangle-16" fill="#FFFFFF" x="0" y="2" width="66" height="16"></rect>
                            <text id="BUILD-Copy" font-family="Nunito-Black, Nunito" font-size="15" font-weight="700" letter-spacing="3" fill="#83A5C2">
                                <tspan x="2.2725" y="15">BUILD</tspan>
                            </text>
                        </g>
                    </g>
                    <g id="noun_906655" transform="translate(102.000000, 0.000000)">
                        <g id="Group">
                            <path d="M31.5,0 C17.99,0 7,10.99 7,24.5 C7,34.377 13.0608333,43.3685 22.1666667,47.1298333 L22.1666667,53.6666667 L22.1666667,61.8333333 C22.1666667,62.4773333 22.6893333,63 23.3333333,63 L25.6666667,63 L25.6666667,67.6666667 L21,67.6666667 L21,70 L25.6666667,70 L28,70 L35,70 L37.3333333,70 L43.1666667,70 L43.1666667,67.6666667 L37.3333333,67.6666667 L37.3333333,63 L39.6666667,63 C40.3106667,63 40.8333333,62.4773333 40.8333333,61.8333333 L40.8333333,53.6666667 L40.8333333,47.1298333 C49.9391667,43.3685 56,34.377 56,24.5 C56,10.99 45.01,0 31.5,0 Z M38.5,60.6666667 L36.1666667,60.6666667 C35.5226667,60.6666667 35,61.1893333 35,61.8333333 L35,67.6666667 L28,67.6666667 L28,63 L32.6666667,63 L32.6666667,60.6666667 L26.8333333,60.6666667 L24.5,60.6666667 L24.5,54.8333333 L38.5,54.8333333 L38.5,60.6666667 Z M39.2571667,45.2421667 C38.8021667,45.4125 38.5,45.8488333 38.5,46.3353333 L38.5,52.5 L32.6666667,52.5 L30.3333333,52.5 L24.5,52.5 L24.5,46.3353333 C24.5,45.8488333 24.1978333,45.4125 23.7428333,45.2421667 C15.1235,42.0163333 9.33333333,33.6805 9.33333333,24.5 C9.33333333,12.2768333 19.2768333,2.33333333 31.5,2.33333333 C43.7231667,2.33333333 53.6666667,12.2768333 53.6666667,24.5 C53.6666667,33.6805 47.8765,42.0163333 39.2571667,45.2421667 Z" id="Shape-Copy-2" stroke="#EE6262" stroke-width="2" fill="#EE6262" fill-rule="nonzero"></path>
                            <g id="Group-24" transform="translate(0.000000, 18.000000)">
                                <rect id="Rectangle-15" fill="#FFFFFF" x="0" y="2" width="62" height="16"></rect>
                                <text id="IDEA" font-family="Nunito-Black, Nunito" font-size="15" font-weight="700" letter-spacing="2.5" fill="#83A5C2">
                                    <tspan x="10.245" y="15">IDEA</tspan>
                                </text>
                            </g>
                        </g>
                    </g>
                    <g id="Group-23" transform="translate(82.000000, 172.000000)">
                        <path d="M83.2275345,15.0001803 C75.1619817,15.0001893 64.5328432,17.8465092 54.8947667,23.6683241 C51.0926057,25.9649942 47.448497,28.7510652 44.2068612,31.999841 C42.5004238,31.8140355 40.8831333,31.6849584 39.381875,31.6351618 C34.3214025,31.4673062 30.3523895,32.0809457 26.926678,33.6549235 C22.3590624,35.7535636 18.9964788,39.4288566 15.3411007,44.455038 C14.9985306,44.928268 14.9076109,45.5385767 15.0973696,46.0911095 C15.2871284,46.6436424 15.7338381,47.0693106 16.294877,47.2322103 L33.7994781,52.4779802 L47.5450784,66.2235804 L52.7908483,83.7281815 C52.9604489,84.2843578 53.3888785,84.7239717 53.9405004,84.9078456 C54.4921223,85.0917196 55.0986344,84.9970863 55.5680206,84.6539056 C60.5941553,80.9984961 64.241449,77.635952 66.3400828,73.0683283 C68.3764765,68.6361678 68.8341698,63.2768693 68.0232175,55.8442496 C77.1407799,46.7706256 82.4876483,34.4772026 84.3215721,24.2574213 C84.4368263,23.6260289 84.2064817,22.9811108 83.7173069,22.5656015 C83.2281321,22.1500922 82.5544444,22.0271175 81.9500154,22.2430007 C81.3455864,22.4588839 80.9022433,22.9808272 80.7869892,23.6122196 C78.192529,38.0701853 67.7400164,57.1712779 49.5367878,63.1378334 L36.8291206,50.4301663 C40.2673573,39.9583753 47.9517417,32.0663136 56.7462149,26.7540711 C65.8207455,21.2726624 76.0326749,18.5908677 83.2275345,18.5908677 C83.875,18.6000245 84.4772398,18.2598507 84.8036447,17.7006055 C85.1300496,17.1413603 85.1300496,16.4496877 84.8036447,15.8904425 C84.4772398,15.3311973 83.875,14.9910235 83.2275345,15.0001803 Z M64.3764256,27.5675863 C59.9357561,27.5675863 56.297379,31.205967 56.297379,35.6466329 C56.297379,40.0873079 59.9357561,43.7256796 64.3764256,43.7256796 C68.8170961,43.7256796 72.4554723,40.0873079 72.4554723,35.6466329 C72.4554723,31.205967 68.8170961,27.5675863 64.3764256,27.5675863 Z M64.3764256,31.1582737 C66.8765405,31.1582737 68.8647849,33.1465181 68.8647849,35.6466329 C68.8647849,38.1467568 66.8765405,40.1349922 64.3764256,40.1349922 C61.8763072,40.1349922 59.8880664,38.1467568 59.8880664,35.6466329 C59.8880664,33.1465181 61.8763072,31.1582737 64.3764256,31.1582737 Z M37.0815909,35.197797 C38.3335576,35.1706164 39.707115,35.2366195 41.1772187,35.3380582 C37.9728937,39.2084844 35.340383,43.6387123 33.6031124,48.6628748 L19.9136167,44.567247 C22.7180638,41.0082025 25.3268535,38.3680957 28.4414993,36.9370362 C30.7764048,35.8642394 33.5278714,35.2749501 37.0815909,35.197797 Z M29.1428054,58.060377 C28.7471398,58.1175392 28.3818671,58.3051117 28.1048723,58.5933697 L22.7188412,63.9794008 C22.2479327,64.4272415 22.0557646,65.094581 22.2163839,65.7242774 C22.3770033,66.3539738 22.8653381,66.8477346 23.4932213,67.0153019 C24.1211046,67.1828692 24.7905267,66.9980865 25.2435433,66.5321551 L30.6295744,61.146124 C31.2009705,60.6094699 31.3581753,59.7641617 31.0179164,59.0579641 C30.6776576,58.3517665 29.9185937,57.9479332 29.1428054,58.060377 L29.1428054,58.060377 Z M64.6850003,58.9019444 C65.0758099,64.525784 64.5337157,68.4307042 63.0860223,71.5815593 C61.6555006,74.6951341 58.984565,77.2782297 55.4277593,80.0813896 L51.3321315,66.4199461 C56.3601478,64.6847366 60.8125247,62.0958994 64.6850003,58.9019444 Z M35.4265084,62.5487363 C35.0308428,62.6058984 34.66557,62.7934709 34.3885753,63.0817289 L23.6165131,73.8537912 C23.1456085,74.3016327 22.9534434,74.9689703 23.1140633,75.5986643 C23.2746831,76.2283582 23.763016,76.7221171 24.3908968,76.8896849 C25.0187776,77.0572526 25.6881977,76.872473 26.1412151,76.4065455 L36.9132774,65.6344833 C37.4846738,65.0978292 37.6418787,64.2525209 37.3016198,63.5463232 C36.9613609,62.8401254 36.2022968,62.4362922 35.4265084,62.5487363 Z M39.9148676,68.8324392 C39.5192021,68.8896014 39.1539293,69.0771739 38.8769346,69.3654319 L33.4909034,74.751463 C33.0199989,75.1993046 32.8278338,75.8666422 32.9884536,76.4963361 C33.1490735,77.1260301 33.6374064,77.6197889 34.2652872,77.7873567 C34.8931679,77.9549245 35.5625881,77.7701448 36.0156055,77.3042173 L41.4016366,71.9181862 C41.973033,71.3815322 42.130238,70.5362239 41.789979,69.8300261 C41.4497201,69.1238284 40.6906561,68.7199951 39.9148676,68.8324392 Z" id="Shape-Copy-3" fill="#169CA6" fill-rule="nonzero" transform="translate(50.024224, 50.000000) rotate(-45.000000) translate(-50.024224, -50.000000) "></path>
                        <rect id="Rectangle-17" fill="#FFFFFF" x="8" y="41" width="86" height="16"></rect>
                        <text id="LAUNCH" font-family="Nunito-Black, Nunito" font-size="15" font-weight="700" letter-spacing="3" fill="#83A5C2">
                            <tspan x="11.34" y="55">LAUNCH</tspan>
                        </text>
                    </g>
                </g>
            </g>
        </g>
    </g>
</svg>