<?xml version="1.0" encoding="UTF-8"?>
<svg width="190px" height="140px" viewBox="0 0 190 140" version="1.1" xmlns="http://www.w3.org/2000/svg" xmlns:xlink="http://www.w3.org/1999/xlink">
    <!-- Generator: Sketch 42 (36781) - http://www.bohemiancoding.com/sketch -->
    <title>Home Page &gt; Brand Loyalty Icon</title>
    <desc>Created with Sketch.</desc>
    <defs>
        <path d="M0,5.99741867 C0,2.6851358 2.69229302,0 6.00716493,0 L127.26571,0 C130.583375,0 133.272874,2.68214785 133.272874,5.99741867 L133.272874,119.699997 L0,119.699997 L0,5.99741867 Z" id="path-1"></path>
        <mask id="mask-2" maskContentUnits="userSpaceOnUse" maskUnits="objectBoundingBox" x="0" y="0" width="133.272874" height="119.699997" fill="white">
            <use xlink:href="#path-1"></use>
        </mask>
    </defs>
    <g id="Page-1" stroke="none" stroke-width="1" fill="none" fill-rule="evenodd">
        <g id="Home-Page-&gt;-Brand-Loyalty-Icon">
            <g id="Group-31" transform="translate(8.000000, 3.000000)">
                <g id="browser" transform="translate(23.000000, 0.000000)">
                    <g id="Group-35">
                        <use id="Rectangle-19" stroke="#70B3B8" mask="url(#mask-2)" stroke-width="8" fill="#FFFFFF" xlink:href="#path-1"></use>
                        <ellipse id="Oval-5" fill="#70B3B8" cx="11.8226721" cy="11.9975709" rx="3.39352227" ry="3.39352227"></ellipse>
                        <ellipse id="Oval-5-Copy" fill="#70B3B8" cx="23.545749" cy="11.9975709" rx="3.39352227" ry="3.39352227"></ellipse>
                        <ellipse id="Oval-5-Copy-2" fill="#70B3B8" cx="35.2688259" cy="11.9975709" rx="3.39352227" ry="3.39352227"></ellipse>
                        <path d="M2.56761134,21.5611336 L129.767611,21.5611336" id="Line" stroke="#70B3B8" stroke-width="4" stroke-linecap="square"></path>
                    </g>
                    <g id="Group-36" transform="translate(37.000000, 40.000000)" stroke="#70B3B8" stroke-width="4" stroke-linecap="round">
                        <polygon id="Star" stroke-linejoin="round" fill="#FFFFFF" points="30 41 18.244295 47.1803399 20.4894348 34.0901699 10.9788697 24.8196601 24.1221475 22.9098301 30 11 35.8778525 22.9098301 49.0211303 24.8196601 39.5105652 34.0901699 41.755705 47.1803399"></polygon>
                        <path d="M30,0 L30,4" id="Path-5"></path>
                        <path d="M30,55 L30,59" id="Path-5-Copy"></path>
                        <path d="M4,25 L0,25" id="Path-5-Copy-2"></path>
                        <path d="M60,25 L56,25" id="Path-5-Copy-3"></path>
                        <path d="M50.0606602,6.73223305 L47.232233,9.56066017" id="Path-5-Copy-4"></path>
                        <path d="M12.0606602,6.73223305 L9.23223305,9.56066017" id="Path-5-Copy-5" transform="translate(10.646447, 8.146447) scale(-1, 1) translate(-10.646447, -8.146447) "></path>
                        <path d="M55.0606602,42.732233 L52.232233,45.5606602" id="Path-5-Copy-7" transform="translate(53.646447, 44.146447) scale(1, -1) translate(-53.646447, -44.146447) "></path>
                        <path d="M8.06066017,42.732233 L5.23223305,45.5606602" id="Path-5-Copy-6" transform="translate(6.646447, 44.146447) scale(-1, -1) translate(-6.646447, -44.146447) "></path>
                    </g>
                </g>
                <g id="tap" transform="translate(119.668016, 60.530364)">
                    <g id="Group">
                        <path d="M50.562602,51.1939044 C50.6468757,59.0717419 47.1793631,65.1192594 41.0475718,67.7844159 C36.2360689,69.8754577 30.82236,69.8456107 26.64291,69.5857668 C23.6652385,69.4005401 20.586614,69.2091686 17.9258467,67.9924667 C8.70840822,63.7735134 7.59441493,59.8776094 4.61849906,49.4671709 L1.07373556,35.358345 C0.712938679,34.3435489 0.769999013,33.2444791 1.23613805,32.2621635 C1.70227708,31.2807258 2.51867878,30.5406971 3.53347487,30.1790224 C4.54827096,29.8182255 5.64821862,29.8752859 6.62965636,30.3414249 C7.6110941,30.8075639 8.35112274,31.6239656 8.71279747,32.6387617 L12.901026,44.4037247 C13.0643063,44.8619631 13.5664372,45.0998608 14.0255535,44.9374583 C14.4794026,44.7759336 14.7164224,44.2790698 14.5610428,43.8243428 C14.5847447,43.7453362 14.6102024,43.6663296 14.6102024,43.5794223 L14.6102024,5.76773378 C14.6102024,3.65386788 16.3299131,1.9341572 18.443779,1.9341572 C20.5576449,1.9341572 22.2773556,3.65386788 22.2773556,5.76773378 L22.2773556,21.7130246 L22.2773556,34.0529802 C22.2773556,34.5393098 22.6715108,34.933465 23.1578404,34.933465 C23.64417,34.933465 24.0383253,34.5393098 24.0383253,34.0529802 L24.0383253,21.7130246 C24.0383253,19.5991587 25.7580359,17.879448 27.8719018,17.879448 C29.9857677,17.879448 31.7054784,19.5991587 31.7054784,21.7130246 L31.7054784,24.4861568 L31.7054784,34.8851832 L31.7054784,35.5786857 C31.7054784,36.0650153 32.0996337,36.4591705 32.5859633,36.4591705 C33.0722929,36.4591705 33.4664481,36.0650153 33.4664481,35.5786857 L33.4664481,34.8851832 L33.4664481,24.4861568 C33.4664481,22.3722909 35.1861588,20.6525802 37.3000247,20.6525802 C39.4138906,20.6525802 41.1336013,22.3722909 41.1336013,24.4861568 L41.1336013,30.8233653 L41.1336013,36.5592456 L41.1336013,36.9648129 C41.1336013,37.4511425 41.5277565,37.8452977 42.0140861,37.8452977 C42.5004157,37.8452977 42.8945709,37.4511425 42.8945709,36.9648129 L42.8945709,36.5592456 L42.8945709,30.8233653 C42.8945709,28.8086966 44.6142816,27.1688703 46.7281475,27.1688703 C48.8420134,27.1688703 50.5617241,28.8086966 50.5617241,30.8233653 L50.5617241,51.1939044 L50.562602,51.1939044 Z" id="Path-Copy-2" fill="#FFFFFF"></path>
                        <path d="M47.7299032,25.4079007 C46.2463346,25.4079007 44.8988328,25.9741147 43.8963267,26.8897136 L43.8963267,24.4861568 C43.8963267,21.4013874 41.3865498,18.8916105 38.3017804,18.8916105 C36.7558843,18.8916105 35.3548336,19.5219078 34.3417932,20.5384596 C33.800159,18.0163928 31.5554932,16.1184783 28.8736575,16.1184783 C27.3900889,16.1184783 26.0425871,16.7031273 25.040081,17.649451 L25.040081,5.76773378 C25.040081,2.68296435 22.5303041,0.173187519 19.4455347,0.173187519 C16.3607653,0.173187519 13.8509884,2.68296435 13.8509884,5.76773378 L13.8509884,39.0093285 L11.3728143,32.0479678 C10.2974464,29.0272815 6.96600079,27.4445157 3.94443665,28.5207613 C2.48632566,29.0395714 1.31527205,30.1000158 0.647227214,31.5072114 C-0.0208176163,32.9135292 -0.102457786,34.4910279 0.391772489,35.8657431 L3.92775748,49.9517448 C6.97741286,60.6211494 8.24064086,65.0376192 18.1954745,69.5945453 C21.1529555,70.948192 24.3983717,71.1500978 27.53669,71.3441029 C28.6910645,71.4152088 29.939369,71.4696356 31.2447339,71.4696356 C34.8781604,71.4696356 38.9575353,71.0473892 42.7498529,69.3987844 C49.4627817,66.4816846 53.415746,59.6686808 53.3244495,51.184248 L53.3244495,30.8233653 C53.3244495,27.8369152 50.8146727,25.4079007 47.7299032,25.4079007 Z M51.562602,51.1939044 C51.6468757,59.0717419 48.1793631,65.1192594 42.0475718,67.7844159 C37.2360689,69.8754577 31.82236,69.8456107 27.64291,69.5857668 C24.6652385,69.4005401 21.586614,69.2091686 18.9258467,67.9924667 C9.70840822,63.7735134 8.59441493,59.8776094 5.61849906,49.4671709 L2.07373556,35.358345 C1.71293868,34.3435489 1.76999901,33.2444791 2.23613805,32.2621635 C2.70227708,31.2807258 3.51867878,30.5406971 4.53347487,30.1790224 C5.54827096,29.8182255 6.64821862,29.8752859 7.62965636,30.3414249 C8.6110941,30.8075639 9.35112274,31.6239656 9.71279747,32.6387617 L13.901026,44.4037247 C14.0643063,44.8619631 14.5664372,45.0998608 15.0255535,44.9374583 C15.4794026,44.7759336 15.7164224,44.2790698 15.5610428,43.8243428 C15.5847447,43.7453362 15.6102024,43.6663296 15.6102024,43.5794223 L15.6102024,5.76773378 C15.6102024,3.65386788 17.3299131,1.9341572 19.443779,1.9341572 C21.5576449,1.9341572 23.2773556,3.65386788 23.2773556,5.76773378 L23.2773556,21.7130246 L23.2773556,34.0529802 C23.2773556,34.5393098 23.6715108,34.933465 24.1578404,34.933465 C24.64417,34.933465 25.0383253,34.5393098 25.0383253,34.0529802 L25.0383253,21.7130246 C25.0383253,19.5991587 26.7580359,17.879448 28.8719018,17.879448 C30.9857677,17.879448 32.7054784,19.5991587 32.7054784,21.7130246 L32.7054784,24.4861568 L32.7054784,34.8851832 L32.7054784,35.5786857 C32.7054784,36.0650153 33.0996337,36.4591705 33.5859633,36.4591705 C34.0722929,36.4591705 34.4664481,36.0650153 34.4664481,35.5786857 L34.4664481,34.8851832 L34.4664481,24.4861568 C34.4664481,22.3722909 36.1861588,20.6525802 38.3000247,20.6525802 C40.4138906,20.6525802 42.1336013,22.3722909 42.1336013,24.4861568 L42.1336013,30.8233653 L42.1336013,36.5592456 L42.1336013,36.9648129 C42.1336013,37.4511425 42.5277565,37.8452977 43.0140861,37.8452977 C43.5004157,37.8452977 43.8945709,37.4511425 43.8945709,36.9648129 L43.8945709,36.5592456 L43.8945709,30.8233653 C43.8945709,28.8086966 45.6142816,27.1688703 47.7281475,27.1688703 C49.8420134,27.1688703 51.5617241,28.8086966 51.5617241,30.8233653 L51.5617241,51.1939044 L51.562602,51.1939044 Z" id="Shape" stroke="#70B3B8" stroke-width="2" fill="#70B3B8" fill-rule="nonzero"></path>
                    </g>
                </g>
                <g id="Group-34" transform="translate(0.000000, 87.000000)">
                    <g id="Group-28" transform="translate(9.198381, 10.040486)"></g>
                    <g id="Group-2">
                        <ellipse id="Oval-4" stroke="#70B3B8" stroke-width="4" fill="#FFFFFF" cx="23.3947368" cy="23.3947368" rx="23.3947368" ry="23.3947368"></ellipse>
                        <polyline id="Path-6" stroke="#70B3B8" stroke-width="4" stroke-linecap="round" points="9.36304423 32.197101 18.7310539 22.3627119 25.9023438 28.62224 36.5097656 16.87224"></polyline>
                        <polygon id="Triangle-2-Copy" fill="#70B3B8" transform="translate(36.911538, 17.130162) rotate(-137.000000) translate(-36.911538, -17.130162) " points="36.9115382 21.7576921 31.5127528 12.5026314 42.3103237 12.5026314"></polygon>
                    </g>
                </g>
            </g>
        </g>
    </g>
</svg>