<?xml version="1.0" encoding="UTF-8"?>
<svg width="190px" height="140px" viewBox="0 0 190 140" version="1.1" xmlns="http://www.w3.org/2000/svg" xmlns:xlink="http://www.w3.org/1999/xlink">
    <!-- Generator: Sketch 42 (36781) - http://www.bohemiancoding.com/sketch -->
    <title>Home Page &gt; ROI Icon</title>
    <desc>Created with Sketch.</desc>
    <defs>
        <path d="M0,6.0067953 C0,2.68933386 2.69229302,0 6.00716493,0 L127.26571,0 C130.583375,0 133.272874,2.68679939 133.272874,6.0067953 L133.272874,133.75 L0,133.75 L0,6.0067953 Z" id="path-1"></path>
        <mask id="mask-2" maskContentUnits="userSpaceOnUse" maskUnits="objectBoundingBox" x="0" y="0" width="133.272874" height="133.75" fill="white">
            <use xlink:href="#path-1"></use>
        </mask>
    </defs>
    <g id="Page-1" stroke="none" stroke-width="1" fill="none" fill-rule="evenodd">
        <g id="Home-Page-&gt;-ROI-Icon">
            <g id="Group-2" transform="translate(3.000000, 3.000000)">
                <g id="Group-35" transform="translate(21.000000, 0.000000)">
                    <use id="Rectangle-19" stroke="#70B3B8" mask="url(#mask-2)" stroke-width="8" fill="#FFFFFF" xlink:href="#path-1"></use>
                    <ellipse id="Oval-5" fill="#70B3B8" cx="11.8226721" cy="11.9975709" rx="3.39352227" ry="3.39352227"></ellipse>
                    <ellipse id="Oval-5-Copy" fill="#70B3B8" cx="23.545749" cy="11.9975709" rx="3.39352227" ry="3.39352227"></ellipse>
                    <ellipse id="Oval-5-Copy-2" fill="#70B3B8" cx="35.2688259" cy="11.9975709" rx="3.39352227" ry="3.39352227"></ellipse>
                    <path d="M2.56761134,21.5611336 L129.767611,21.5611336" id="Line" stroke="#70B3B8" stroke-width="4" stroke-linecap="square"></path>
                </g>
                <g id="Group-33" transform="translate(0.000000, 27.000000)">
                    <g id="up" transform="translate(31.000000, 0.000000)" fill-rule="nonzero" fill="#70B3B8">
                        <g id="Group">
                            <path d="M111.166667,0 L2.83333333,0 C1.63733333,0 0.666666667,0.970666667 0.666666667,2.16666667 L0.666666667,93.1666667 C0.666666667,94.3626667 1.63733333,95.3333333 2.83333333,95.3333333 L111.166667,95.3333333 C112.362667,95.3333333 113.333333,94.3626667 113.333333,93.1666667 L113.333333,2.16666667 C113.333333,0.970666667 112.362667,0 111.166667,0 Z M109,91 L80.8333333,91 L80.8333333,58.5 L76.5,58.5 L76.5,91 L59.1666667,91 L59.1666667,69.3333333 L54.8333333,69.3333333 L54.8333333,91 L37.5,91 L37.5,56.3333333 L33.1666667,56.3333333 L33.1666667,91 L20.1666667,91 L20.1666667,67.1666667 L15.8333333,67.1666667 L15.8333333,91 L5,91 L5,68.0636667 L35.2575,37.8061667 L55.3966667,59.9581667 C55.7866667,60.3871667 56.3348333,60.6428333 56.9155,60.6645 C57.4961667,60.6861667 58.0616667,60.4781667 58.4863333,60.0773333 L91.6666667,28.847 L91.6666667,34.6666667 L96,34.6666667 L96,23.8333333 C96,22.6373333 95.0293333,21.6666667 93.8333333,21.6666667 L83,21.6666667 L83,26 L88.369,26 L57.1213333,55.4125 L36.9366667,33.2085 C36.538,32.7708333 35.979,32.5151667 35.3853333,32.5 C34.7721667,32.4783333 34.2196667,32.7145 33.8015,33.1326667 L5,61.9363333 L5,4.33333333 L109,4.33333333 L109,91 Z" id="Shape"></path>
                            <rect id="Rectangle-path" x="57" y="11.8333333" width="17.3333333" height="4.33333333"></rect>
                            <rect id="Rectangle-path" x="48.3333333" y="20.5" width="26" height="4.33333333"></rect>
                            <rect id="Rectangle-path" x="70" y="29.1666667" width="4.33333333" height="4.33333333"></rect>
                        </g>
                    </g>
                    <g id="plant" transform="translate(122.000000, 6.738451)">
                        <g id="Group">
                            <g id="Group-32" transform="translate(3.000000, 3.000000)" fill="#FFFFFF">
                                <path d="M10.28125,18.1229167 C10.28125,8.21458333 18.3416667,0.154166667 28.25,0.154166667 C38.1604167,0.154166667 46.2208333,8.21666667 46.2208333,18.1229167 C46.2208333,28.03125 38.1604167,36.09375 28.25,36.09375 C18.3416667,36.09375 10.28125,28.03125 10.28125,18.1229167 Z" id="Path"></path>
                                <path d="M5.6625,62.25625 C5.9125,62.00625 6.24791667,61.8666667 6.60416667,61.8666667 L49.9104167,61.8666667 C50.2604167,61.8666667 50.59375,62.0020833 50.8458333,62.2583333 C51.09375,62.50625 51.2375,62.8395833 51.2375,63.19375 C51.2375,63.5479167 51.0979167,63.88125 50.8458333,64.1375 C50.59375,64.3895833 50.2645833,64.5291667 49.9145833,64.5291667 L6.60208333,64.5291667 C6.24791667,64.5291667 5.91458333,64.3916667 5.65833333,64.1354167 C5.40416667,63.8833333 5.26666667,63.55 5.26666667,63.1958333 C5.26666667,62.8416667 5.40625,62.5104167 5.6625,62.25625 Z" id="Path"></path>
                                <polygon id="Path" points="39.6875 93.8458333 16.81875 93.8458333 16.81875 91.6520833 39.6895833 91.6520833"></polygon>
                                <path d="M48.35,81.4354167 C48.35,83.33125 47.6125,85.1166667 46.2625,86.4604167 C44.925,87.8020833 43.1458333,88.5395833 41.2416667,88.5395833 L15.2625,88.5395833 C13.3625,88.5395833 11.5791667,87.8020833 10.2375,86.45625 C8.89791667,85.1166667 8.16041667,83.3354167 8.16041667,81.4354167 L8.16041667,67.64375 L48.3541667,67.64375 L48.3541667,81.4354167 L48.35,81.4354167 L48.35,81.4354167 Z" id="Path"></path>
                                <path d="M0.1125,46.7020833 L0.1125,40.81875 L14.3625,40.81875 C15.93125,40.81875 17.4083333,41.4291667 18.51875,42.5416667 C19.63125,43.6520833 20.24375,45.13125 20.24375,46.7020833 L20.24375,52.5833333 L5.99791667,52.5833333 C4.425,52.5833333 2.95,51.9729167 1.8375,50.8583333 C0.725,49.7458333 0.1125,48.2729167 0.1125,46.7020833 Z" id="Path"></path>
                                <path d="M56.3895833,46.7020833 C56.3895833,48.2729167 55.7791667,49.75 54.6666667,50.8625 C53.5604167,51.9729167 52.0833333,52.5833333 50.5125,52.5833333 L36.2666667,52.5833333 L36.2666667,46.7020833 C36.2666667,45.1354167 36.8770833,43.65625 37.9854167,42.54375 C39.0979167,41.43125 40.575,40.81875 42.1458333,40.81875 L56.3895833,40.81875 L56.3895833,46.7020833 L56.3895833,46.7020833 Z" id="Path"></path>
                            </g>
                            <path d="M52.9083333,61.7825714 L32.8083333,61.7825714 L32.8083333,42.1311879 C43.7041667,41.3284524 52.3333333,32.2189676 52.3333333,21.1099415 C52.3333333,9.47548852 42.875,0.0115490683 31.25,0.0115490683 C19.625,0.0115490683 10.16875,9.47757355 10.16875,21.1099415 C10.16875,32.2210526 18.7979167,41.3305374 29.6979167,42.133273 L29.6979167,61.7804863 L9.60208333,61.7804863 C8.4125,61.7804863 7.29791667,62.2433624 6.4625,63.0794584 C5.62083333,63.9155544 5.15625,65.0352141 5.15625,66.2236798 C5.15625,67.4121454 5.62083333,68.5276351 6.45833333,69.3679011 C6.91458333,69.8266071 7.45833333,70.1622966 8.04583333,70.3812244 L8.04583333,84.4801798 C8.04583333,87.2157358 9.10833333,89.7824046 11.0354167,91.7068849 C12.5895833,93.2644003 14.5666667,94.225598 16.7041667,94.5508623 L16.7041667,100.011549 L45.7958333,100.011549 L45.7958333,94.5508623 C47.9333333,94.225598 49.9145833,93.2664854 51.4625,91.7089699 C53.3979167,89.7803195 54.4625,87.2115657 54.4625,84.4801798 L54.4625,70.3770544 C55.04375,70.1602115 55.5854167,69.8224371 56.0375,69.3699861 C56.8770833,68.5276351 57.3395833,67.4142304 57.3395833,66.2236798 C57.3395833,65.0331291 56.8770833,63.9197245 56.0375,63.0794584 C55.2041667,62.2412774 54.0916667,61.7825714 52.9083333,61.7825714 Z M13.28125,21.1120265 C13.28125,11.1956361 21.3416667,3.12866506 31.25,3.12866506 C41.1604167,3.12866506 49.2208333,11.1977212 49.2208333,21.1120265 C49.2208333,31.0284169 41.1604167,39.097473 31.25,39.097473 C21.3416667,39.097473 13.28125,31.0284169 13.28125,21.1120265 Z M8.6625,65.2812474 C8.9125,65.0310441 9.24791667,64.8913472 9.60416667,64.8913472 L52.9104167,64.8913472 C53.2604167,64.8913472 53.59375,65.026874 53.8458333,65.2833324 C54.09375,65.5314507 54.2375,65.865055 54.2375,66.2195097 C54.2375,66.5739644 54.0979167,66.9075688 53.8458333,67.1640271 C53.59375,67.4163154 53.2645833,67.5560123 52.9145833,67.5560123 L9.60208333,67.5560123 C9.24791667,67.5560123 8.91458333,67.4184005 8.65833333,67.1619421 C8.40416667,66.9096538 8.26666667,66.5760494 8.26666667,66.2215947 C8.26666667,65.8671401 8.40625,65.5356207 8.6625,65.2812474 Z M42.6875,96.8965181 L19.81875,96.8965181 L19.81875,94.7009842 L42.6895833,94.7009842 L42.6875,96.8965181 L42.6875,96.8965181 Z M51.35,84.4760098 C51.35,86.3733847 50.6125,88.1602532 49.2625,89.5050959 C47.925,90.8478536 46.1458333,91.5859533 44.2416667,91.5859533 L18.2625,91.5859533 C16.3625,91.5859533 14.5791667,90.8478536 13.2375,89.5009259 C11.8979167,88.1602532 11.1604167,86.3775548 11.1604167,84.4760098 L11.1604167,70.6731283 L51.3541667,70.6731283 L51.3541667,84.4760098 L51.35,84.4760098 L51.35,84.4760098 Z" id="Shape" fill="#70B3B8" fill-rule="nonzero"></path>
                            <path d="M26.3520833,58.69375 L26.3520833,49.7041667 C26.3520833,47.3020833 25.4166667,45.04375 23.7166667,43.34375 C22.01875,41.6458333 19.7604167,40.7104167 17.3604167,40.7104167 L0,40.7104167 L0,49.7041667 C0,52.1041667 0.935416667,54.3625 2.63333333,56.0604167 C4.33125,57.7583333 6.58958333,58.6958333 8.99375,58.6958333 L26.3520833,58.69375 L26.3520833,58.69375 Z M3.1125,49.7020833 L3.1125,43.81875 L17.3625,43.81875 C18.93125,43.81875 20.4083333,44.4291667 21.51875,45.5416667 C22.63125,46.6520833 23.24375,48.13125 23.24375,49.7020833 L23.24375,55.5833333 L8.99791667,55.5833333 C7.425,55.5833333 5.95,54.9729167 4.8375,53.8583333 C3.725,52.7458333 3.1125,51.2729167 3.1125,49.7020833 Z" id="Shape" fill="#70B3B8" fill-rule="nonzero"></path>
                            <path d="M45.1458333,40.7104167 C42.7458333,40.7104167 40.4875,41.6458333 38.7833333,43.3458333 C37.0875,45.05 36.1479167,47.3083333 36.1479167,49.7041667 L36.1479167,58.69375 L53.5104167,58.69375 C55.9104167,58.69375 58.16875,57.7604167 59.8666667,56.0604167 C61.5625,54.3666667 62.5,52.1104167 62.5,49.7020833 L62.5,40.7083333 L45.1458333,40.7104167 L45.1458333,40.7104167 Z M59.3895833,49.7020833 C59.3895833,51.2729167 58.7791667,52.75 57.6666667,53.8625 C56.5604167,54.9729167 55.0833333,55.5833333 53.5125,55.5833333 L39.2666667,55.5833333 L39.2666667,49.7020833 C39.2666667,48.1354167 39.8770833,46.65625 40.9854167,45.54375 C42.0979167,44.43125 43.575,43.81875 45.1458333,43.81875 L59.3895833,43.81875 L59.3895833,49.7020833 L59.3895833,49.7020833 Z" id="Shape" fill="#70B3B8" fill-rule="nonzero"></path>
                            <path d="M46.6354167,21.1229167 C46.6354167,12.6395833 39.7333333,5.7375 31.25,5.7375 C22.7666667,5.7375 15.8645833,12.6395833 15.8645833,21.1229167 C15.8645833,29.60625 22.7666667,36.5083333 31.25,36.5083333 C39.7333333,36.5083333 46.6354167,29.60625 46.6354167,21.1229167 Z M18.9770833,21.1229167 C18.9770833,14.3541667 24.4833333,8.85 31.25,8.85 C38.0166667,8.85 43.5229167,14.35625 43.5229167,21.1229167 C43.5229167,27.8916667 38.0166667,33.3979167 31.25,33.3979167 C24.4833333,33.3979167 18.9770833,27.8916667 18.9770833,21.1229167 Z" id="Shape" fill="#70B3B8" fill-rule="nonzero"></path>
                            <path d="M32.80625,29.7666667 L32.80625,28.8 C33.8416667,28.6833333 34.8083333,28.24375 35.5729167,27.4875 C36.44375,26.6041667 36.9208333,25.4395833 36.9208333,24.2104167 C36.9208333,22.9708333 36.4395833,21.80625 35.5625,20.93125 C34.6875,20.0520833 33.5208333,19.56875 32.2791667,19.56875 L30.21875,19.56875 C29.8104167,19.56875 29.4270833,19.4083333 29.1333333,19.1166667 C28.8479167,18.83125 28.6916667,18.4479167 28.6916667,18.0375 C28.6916667,17.6291667 28.8520833,17.2416667 29.1333333,16.9583333 C29.4270833,16.6666667 29.8125,16.50625 30.21875,16.50625 L32.2791667,16.50625 C32.6854167,16.50625 33.0729167,16.66875 33.35625,16.9458333 C33.6479167,17.2416667 33.8104167,17.63125 33.8104167,18.0375 L36.9229167,18.0375 C36.9229167,16.8083333 36.4458333,15.64375 35.55625,14.74375 C34.8041667,14 33.8395833,13.5625 32.8083333,13.44375 L32.8083333,12.4791667 L29.6958333,12.4791667 L29.6958333,13.4416667 C28.6625,13.5604167 27.6979167,14 26.9375,14.7520833 C26.0645833,15.6291667 25.5833333,16.7958333 25.5833333,18.0333333 C25.5833333,19.2791667 26.0645833,20.44375 26.9375,21.3125 C27.8125,22.1916667 28.9791667,22.675 30.2229167,22.675 L32.2833333,22.675 C32.6916667,22.675 33.0770833,22.8354167 33.36875,23.1270833 C33.6583333,23.4166667 33.8166667,23.8 33.8166667,24.2083333 C33.8166667,24.6166667 33.6541667,25.0041667 33.3729167,25.2875 C33.0791667,25.5791667 32.69375,25.7395833 32.2854167,25.7395833 L30.225,25.7395833 C29.8166667,25.7395833 29.43125,25.5791667 29.1458333,25.2979167 C28.85625,25.00625 28.6979167,24.61875 28.6979167,24.2104167 L25.5854167,24.2104167 C25.5854167,25.4479167 26.0645833,26.6125 26.9458333,27.5 C27.6958333,28.2458333 28.6625,28.6833333 29.6979167,28.8020833 L29.6979167,29.7666667 L32.80625,29.7666667 L32.80625,29.7666667 Z" id="Shape" fill="#70B3B8" fill-rule="nonzero"></path>
                        </g>
                    </g>
                    <ellipse id="Oval-4" stroke="#70B3B8" stroke-width="4" fill="#FFFFFF" cx="23.3947368" cy="83.3947368" rx="23.3947368" ry="23.3947368"></ellipse>
                </g>
                <g id="browser" transform="translate(21.000000, 0.000000)"></g>
                <text id="refresh---FontAwesome" font-family="FontAwesome" font-size="30" font-weight="normal" letter-spacing="-0.855000079" fill="#70B3B8">
                    <tspan x="11" y="121"></tspan>
                </text>
            </g>
        </g>
    </g>
</svg>