<?xml version="1.0" encoding="UTF-8"?>
<svg width="272px" height="227px" viewBox="0 0 272 227" version="1.1" xmlns="http://www.w3.org/2000/svg" xmlns:xlink="http://www.w3.org/1999/xlink" style="background: #183C5A;">
    <!-- Generator: Sketch 42 (36781) - http://www.bohemiancoding.com/sketch -->
    <title>Home Page &gt; Design Solutions</title>
    <desc>Created with Sketch.</desc>
    <defs></defs>
    <g id="Page-1" stroke="none" stroke-width="1" fill="none" fill-rule="evenodd">
        <g id="Home-Page-&gt;-Design-Solutions">
            <circle id="Oval" stroke="#B87088" stroke-width="2" fill="#FFFFFF" cx="136" cy="55" r="35"></circle>
            <circle id="Oval" stroke="#B87088" stroke-width="2" fill="#FFFFFF" cx="136" cy="167" r="35"></circle>
            <circle id="Oval" stroke="#B87088" stroke-width="2" fill="#FFFFFF" cx="202" cy="113" r="35"></circle>
            <circle id="Oval" stroke="#B87088" stroke-width="2" fill="#FFFFFF" cx="70" cy="113" r="35"></circle>
            <g id="np_create-your-narrative_898945_000000" transform="translate(177.000000, 88.000000)" fill-rule="nonzero">
                <g id="Group">
                    <path d="M49.1183168,18.9490196 L45.2507426,16.6512255 C45.1733911,16.5746324 45.0186881,16.5746324 44.8639851,16.5746324 L32.3332921,16.5746324 C32.0238861,15.6555147 31.172995,15.0427696 30.1674505,15.0427696 C29.7806931,15.0427696 29.3939356,15.1193627 29.0071535,15.3491422 C28.620396,14.7363971 27.9242327,14.2768382 27.0733911,14.2768382 C26.7639851,14.2768382 26.4545792,14.3534314 26.2225,14.4300245 C25.9130941,13.4343382 25.062203,12.7449755 23.9793317,12.7449755 C22.8964604,12.7449755 22.0455693,13.4342892 21.7361634,14.4300245 C21.5041089,14.3534314 21.1946782,14.2768382 20.8852723,14.2768382 C19.5703218,14.2768382 18.5647277,15.2725245 18.5647277,16.5746324 L3.09443069,16.5746324 C1.39269802,16.5746324 0.000371287129,17.9533088 0.000371287129,19.6383578 C0.000371287129,21.3234069 1.39269802,22.7020833 3.09443069,22.7020833 L15.4706683,22.7020833 L15.4706683,25.1530637 L17.0950248,28.3699755 L19.3381931,31.3571324 L19.3381931,33.5783088 C18.8740842,33.8080882 18.5646782,34.3442402 18.5646782,34.8803676 L18.5646782,49.4333088 L20.1117079,49.4333088 L20.1117079,34.9573284 L29.3938861,34.9573284 L29.3938861,49.5102696 L30.9409158,49.5102696 L30.9409158,34.9573284 C30.9409158,34.421152 30.6315099,33.8850245 30.167401,33.6552696 L30.167401,32.8127206 L32.4879455,25.2298775 L32.4879455,22.7023284 L44.8641832,22.7023284 C45.0188861,22.7023284 45.1735891,22.7023284 45.2509406,22.6257353 L49.1185149,20.3279412 C49.3505693,20.1747549 49.5052723,19.9449755 49.5052723,19.6386275 C49.5052723,19.3322794 49.3505693,19.102451 49.1185149,18.9493137 L49.1183168,18.9490196 Z M18.5643564,21.1701961 L9.28217822,21.1701961 L9.28217822,18.1064706 L18.5643564,18.1064706 L18.5643564,21.1701961 Z M7.73514851,21.1701961 L6.18811881,21.1701961 L6.18811881,18.1064706 L7.73514851,18.1064706 L7.73514851,21.1701961 Z M1.5470297,19.6383333 C1.5470297,18.7957843 2.24316832,18.1064706 3.09405941,18.1064706 L4.64108911,18.1064706 L4.64108911,21.1701961 L3.09405941,21.1701961 C2.24316832,21.1701961 1.5470297,20.4808824 1.5470297,19.6383333 Z M30.9405941,24.9231373 L28.6200495,32.5059804 L28.6200495,33.5016667 L20.884901,33.5016667 L20.884901,30.9741176 L18.4869802,27.7572059 L17.0172772,24.8466667 L17.0172772,22.7020588 L18.5643069,22.7020588 L18.5643069,23.4679902 L20.1113366,23.4679902 L20.1113366,16.5748529 C20.1113366,16.1152941 20.4207426,15.8089216 20.8848515,15.8089216 C21.3489604,15.8089216 21.6583663,16.1152941 21.6583663,16.5748529 L21.6583663,18.1067157 L23.205396,18.1067157 L23.205396,15.0429902 C23.205396,14.5834314 23.514802,14.2770588 23.9789109,14.2770588 C24.4430198,14.2770588 24.7524257,14.5834314 24.7524257,15.0429902 L24.7524257,18.1067157 L26.2994554,18.1067157 L26.2994554,16.5748529 C26.2994554,16.1152941 26.6088614,15.8089216 27.0729703,15.8089216 C27.5370792,15.8089216 27.8464851,16.1152941 27.8464851,16.5748529 L27.8464851,18.1067157 L29.3935149,18.1067157 L29.3935149,17.3407843 C29.3935149,16.8812255 29.7029208,16.5748529 30.1670297,16.5748529 C30.6311386,16.5748529 30.9405446,16.8812255 30.9405446,17.3407843 L30.9405941,24.9231373 Z M32.4876238,18.1064706 L40.2227723,18.1064706 L40.2227723,21.1701961 L32.4876238,21.1701961 L32.4876238,18.1064706 Z M44.6316832,21.1701961 L41.769703,21.1701961 L41.769703,18.1064706 L44.6316832,18.1064706 L47.1842574,19.6383333 L44.6316832,21.1701961 Z" id="Shape" fill="#0D2132"></path>
                    <polygon id="Shape" fill="#000000" points="21.6584158 36.4892157 23.2054455 36.4892157 23.2054455 38.0210784 21.6584158 38.0210784"></polygon>
                    <polygon id="Shape" fill="#B70303" points="32.4876238 47.9779412 34.0346535 47.9779412 34.0346535 49.5098039 32.4876238 49.5098039"></polygon>
                    <polygon id="Shape" fill="#B70303" points="32.4876238 44.9142157 34.0346535 44.9142157 34.0346535 46.4460784 32.4876238 46.4460784"></polygon>
                    <polygon id="Shape" fill="#B70303" points="32.4876238 41.8504902 34.0346535 41.8504902 34.0346535 43.3823529 32.4876238 43.3823529"></polygon>
                    <polygon id="Shape" fill="#B70303" points="15.470297 47.9779412 17.0173267 47.9779412 17.0173267 49.5098039 15.470297 49.5098039"></polygon>
                    <polygon id="Shape" fill="#B70303" points="15.470297 44.9142157 17.0173267 44.9142157 17.0173267 46.4460784 15.470297 46.4460784"></polygon>
                    <polygon id="Shape" fill="#B70303" points="15.470297 41.8504902 17.0173267 41.8504902 17.0173267 43.3823529 15.470297 43.3823529"></polygon>
                    <path d="M4.79579208,24.0808824 L3.24876238,24.2340686 C3.94490099,30.8213235 7.81252475,36.7953431 13.5363861,40.2419118 L14.309901,38.9398529 C8.97277228,35.7229412 5.41435644,30.2084804 4.79554455,24.0810294 L4.79579208,24.0808824 Z" id="Shape" fill="#B70303"></path>
                    <path d="M35.349505,38.8632353 L36.200396,40.1652941 C41.9241584,36.6420098 45.559802,30.8976471 46.3335644,24.3103922 L44.7865347,24.1572059 C44.090396,30.2846569 40.6095545,35.6464216 35.349901,38.8630882 L35.349505,38.8632353 Z" id="Shape" fill="#B70303"></path>
                    <path d="M31.5594059,3.17098039 C37.2059406,5.16240196 41.6148515,9.52833333 43.6262376,15.1195098 L45.0959406,14.5833333 C42.930099,8.60882353 38.1345545,3.86029412 32.1008911,1.71568627 C20.8850495,-2.26715686 8.43158416,3.55392157 4.40881188,14.6598039 L5.87851485,15.1959804 C9.59138614,4.85578431 21.1943564,-0.505490196 31.5592079,3.17098039 L31.5594059,3.17098039 Z" id="Shape" fill="#B70303"></path>
                </g>
            </g>
            <g id="np_responsive-website_712123_000000" transform="translate(113.000000, 144.000000)" fill-rule="nonzero">
                <g id="Group">
                    <path d="M21.5625,33.92 C21.5625,34.78135 22.207558,35.4825 23,35.4825 C23.792442,35.4825 24.4375,34.7833 24.4375,33.92 C24.4375,33.05865 23.792442,32.35945 23,32.35945 C22.207558,32.35945 21.5625,33.05865 21.5625,33.92 Z M23.71875,33.92 C23.71875,34.34969 23.3953148,34.70125 23,34.70125 C22.6046852,34.70125 22.28125,34.34969 22.28125,33.92 C22.28125,33.49031 22.6028912,33.13875 23,33.13875 C23.3953148,33.13875 23.71875,33.49031 23.71875,33.92 Z" id="Shape" fill="#0D2132"></path>
                    <path d="M43.4792,21.426 L35.57456,21.426 C34.187384,21.426 33.058912,22.65255 33.058912,24.1604 L33.058912,41.3419 L33.058912,41.3497125 L33.058912,41.3536185 L33.058912,42.9161185 C33.058912,44.4493185 34.16397,45.6505185 35.57456,45.6505185 L43.4792,45.6505185 C44.889744,45.6505185 45.994848,44.4493685 45.994848,42.9161185 L45.994848,41.3653185 C45.994848,41.361412 45.9930512,41.359459 45.9930512,41.357506 C45.9930512,41.3516465 45.994848,41.34774 45.994848,41.339928 L45.9930512,24.160428 C45.9930512,22.652628 44.8646252,21.426028 43.4792432,21.426028 L43.4792,21.426 Z M43.4792,44.8695 L35.57456,44.8695 C34.685104,44.8695 33.966354,44.1996 33.81184,43.28745 C34.2664488,43.77378 34.888148,44.0765 35.57456,44.0765 L43.4792,44.0765 C44.165612,44.0765 44.787348,43.773765 45.24192,43.28745 C45.0855936,44.1976 44.368656,44.8695 43.4792,44.8695 Z M45.274258,41.34215 C45.274258,42.4183 44.469258,43.29525 43.477406,43.29525 L39.659038,43.29525 C40.199906,43.234705 40.625774,42.74055 40.625774,42.1351 C40.625774,41.4886 40.142406,40.9632 39.547626,40.9632 C38.952846,40.9632 38.469478,41.4886 38.469478,42.1351 C38.469478,42.74055 38.8953368,43.23275 39.436214,43.29525 L35.57295,43.29525 C34.582892,43.29525 33.776098,42.42025 33.776098,41.34215 L33.7778952,24.16065 C33.7778952,23.0845 34.5828952,22.20755 35.5747472,22.20755 L43.4793872,22.20755 C44.4694452,22.20755 45.2762392,23.0845 45.2762392,24.16065 L45.274258,41.34215 Z M39.549558,42.52575 C39.3519006,42.52575 39.190183,42.34997 39.190183,42.135125 C39.190183,41.92028 39.3519006,41.7445 39.549558,41.7445 C39.7472154,41.7445 39.908933,41.92028 39.908933,42.135125 C39.908933,42.34997 39.7472154,42.52575 39.549558,42.52575 Z" id="Shape" fill="#0D2132"></path>
                    <path d="M44.19588,24.5625 L34.85558,24.5625 C34.6561286,24.5625 34.496205,24.73633 34.496205,24.953125 L34.496205,29.638675 C34.496205,29.85352 34.6561286,30.0293 34.85558,30.0293 L44.19588,30.0293 C44.3953314,30.0293 44.555255,29.85547 44.555255,29.638675 L44.555255,24.953125 C44.555255,24.73633 44.3953314,24.5625 44.19588,24.5625 Z M43.836505,29.24805 L35.213345,29.24805 L35.213345,25.34375 L43.836505,25.34375 L43.836505,29.24805 Z" id="Shape" fill="#0D2132"></path>
                    <path d="M44.19588,30.8105 L34.85558,30.8105 C34.6561286,30.8105 34.496205,30.98433 34.496205,31.201125 L34.496205,36.668125 C34.496205,36.88492 34.6561286,37.05875 34.85558,37.05875 L44.19588,37.05875 L44.1976768,37.05875 C44.2587694,37.05875 44.3126768,37.0372655 44.3629916,37.00797 C44.3683823,37.0040635 44.3755698,37.006017 44.3809605,37.0040635 C44.3935383,36.9962515 44.4007263,36.9825795 44.4115073,36.9728135 C44.431273,36.9552355 44.4510383,36.9396105 44.4672087,36.9181285 C44.4815837,36.90055 44.4923647,36.8790655 44.504943,36.8595335 C44.5157244,36.838049 44.5265055,36.8165645 44.533693,36.7931285 C44.5408805,36.7677375 44.5444744,36.7403935 44.548068,36.7150035 C44.5498647,36.6993785 44.5570522,36.6857065 44.5570522,36.6700815 L44.5570522,31.2030815 C44.5552555,30.9843315 44.3953346,30.8105015 44.1958786,30.8105015 L44.19588,30.8105 Z M35.2153,31.59175 L43.83846,31.59175 L43.83846,35.25385 L42.350636,32.54875 C42.2194624,32.31242 41.86368,32.31242 41.732488,32.54875 L40.210532,35.31635 L39.46662,34.0976 C39.3354464,33.87885 39.001238,33.87885 38.868252,34.0976 L37.538576,36.2773 L35.215208,36.2773 L35.2153,31.59175 Z M38.399374,36.2773 L39.166654,35.0195 L39.800948,36.0605 L39.6805568,36.27925 L38.399374,36.2773 Z M40.52508,36.263628 L42.03986,33.509728 L43.561816,36.277328 L40.51611,36.277328 L40.52508,36.263628 Z" id="Shape" fill="#B70303"></path>
                    <path d="M38.44772,23.781 L40.60397,23.781 C40.8016274,23.781 40.963345,23.60717 40.963345,23.390375 C40.963345,23.17358 40.8034214,22.99975 40.60397,22.99975 L38.44772,22.99975 C38.2500626,22.99975 38.088345,23.17358 38.088345,23.390375 C38.088345,23.60522 38.2500626,23.781 38.44772,23.781 Z" id="Shape" fill="#000000"></path>
                    <path d="M36.3147,26.9045 L42.78184,26.9045 C42.9794974,26.9045 43.141215,26.73067 43.141215,26.513875 C43.141215,26.29708 42.9812914,26.12325 42.78184,26.12325 L36.3147,26.12325 C36.1152486,26.12325 35.955325,26.29708 35.955325,26.513875 C35.955325,26.73067 36.1170426,26.9045 36.3147,26.9045 Z" id="Shape" fill="#4A4A4A"></path>
                    <path d="M41.32272,27.6855 L37.775706,27.6855 C37.5780486,27.6855 37.416331,27.85933 37.416331,28.076125 C37.416331,28.29097 37.5762546,28.46675 37.775706,28.46675 L41.32272,28.46675 C41.5221714,28.46675 41.682095,28.29292 41.682095,28.076125 C41.682095,27.86128 41.5203774,27.6855 41.32272,27.6855 Z" id="Shape" fill="#4A4A4A"></path>
                    <path d="M44.19588,37.84 L34.85558,37.84 C34.6561286,37.84 34.496205,38.01383 34.496205,38.230625 C34.496205,38.44742 34.6561286,38.62125 34.85558,38.62125 L44.19588,38.62125 C44.3953314,38.62125 44.555255,38.44742 44.555255,38.230625 C44.555255,38.01383 44.3953314,37.84 44.19588,37.84 Z" id="Shape" fill="#4A4A4A"></path>
                    <path d="M44.19588,39.4005 L34.85558,39.4005 C34.6561286,39.4005 34.496205,39.57433 34.496205,39.791125 C34.496205,40.00792 34.6561286,40.18175 34.85558,40.18175 L44.19588,40.18175 C44.3953314,40.18175 44.555255,40.00792 44.555255,39.791125 C44.555255,39.57628 44.3953314,39.4005 44.19588,39.4005 Z" id="Shape" fill="#4A4A4A"></path>
                    <path d="M38.11192,33.543 C38.11192,32.8965 37.628552,32.3711 37.033772,32.3711 C36.438992,32.3711 35.955624,32.8965 35.955624,33.543 C35.955624,34.1895 36.438992,34.7149 37.033772,34.7149 C37.628552,34.7149 38.11192,34.1895 38.11192,33.543 Z M36.67442,33.543 C36.67442,33.328155 36.8361376,33.152375 37.033795,33.152375 C37.2314524,33.152375 37.39317,33.328155 37.39317,33.543 C37.39317,33.757845 37.2314524,33.933625 37.033795,33.933625 C36.8361376,33.933625 36.67442,33.757845 36.67442,33.543 Z" id="Shape" fill="#B70303"></path>
                    <path d="M8.26942,21.4375 C9.259478,21.4375 10.066272,20.56055 10.066272,19.4844 C10.066272,18.40825 9.259478,17.5313 8.26942,17.5313 C7.279362,17.5313 6.472568,18.40825 6.472568,19.4844 C6.47436522,20.5625 7.279362,21.4375 8.26942,21.4375 L8.26942,21.4375 Z M8.26942,18.31445 C8.8642,18.31445 9.347568,18.83985 9.347568,19.48635 C9.347568,20.13285 8.8642,20.65825 8.26942,20.65825 C7.67464,20.65825 7.191272,20.13285 7.191272,19.48635 C7.19306922,18.83985 7.676434,18.31445 8.26942,18.31445 L8.26942,18.31445 Z" id="Shape" fill="#B70303"></path>
                    <path d="M41.68198,6.9885 C41.68198,6.773655 41.5220564,6.597875 41.322605,6.597875 L4.677165,6.5998285 C4.4795076,6.5998285 4.31779,6.7736585 4.31779,6.9904535 L4.31779,13.2384535 C4.31779,13.4532985 4.4777136,13.6290785 4.677165,13.6290785 L41.322605,13.6290785 C41.5220564,13.6290785 41.68198,13.4552485 41.68198,13.2384535 L41.68198,6.9885 Z M40.96323,12.848 L5.03631,12.848 L5.03631,7.379 L40.96323,7.379 L40.96323,12.848 Z" id="Shape" fill="#B70303"></path>
                    <path d="M4.67728,15.1895 C4.4796226,15.1895 4.317905,15.36333 4.317905,15.580125 L4.317905,26.513625 C4.317905,26.72847 4.4778286,26.90425 4.67728,26.90425 L21.92176,26.90425 C22.1194174,26.90425 22.281135,26.73042 22.281135,26.513625 L22.281135,15.580125 C22.281135,15.36333 22.1212114,15.1895 21.92176,15.1895 L4.67728,15.1895 Z M16.53286,19.4219 L20.541668,26.1249 L12.523868,26.1249 L16.53286,19.4219 Z M11.66698,26.1249 L9.659862,26.1249 L11.862848,22.537 L12.851112,24.1464 L11.66698,26.1249 Z M21.5625,26.1249 L21.3989838,26.1249 L16.8349098,18.4919 C16.7019422,18.269245 16.3641458,18.269245 16.2329538,18.4919 L13.2770858,23.4333 L12.1612178,21.6169 C12.094734,21.507525 11.9815326,21.44307 11.8629354,21.44307 C11.7425442,21.44307 11.6311368,21.507525 11.564653,21.6169 L8.795683,26.1247 L5.036609,26.1247 L5.036609,15.9702 L21.562569,15.9702 L21.5625,26.1249 Z" id="Shape" fill="#B70303"></path>
                    <path d="M41.32272,18.3145 L24.07824,18.3145 C23.8805826,18.3145 23.718865,18.48833 23.718865,18.705125 C23.718865,18.91997 23.8787886,19.09575 24.07824,19.09575 L41.32272,19.09575 C41.5221714,19.09575 41.682095,18.92192 41.682095,18.705125 C41.682095,18.48833 41.5203774,18.3145 41.32272,18.3145 Z" id="Shape" fill="#4A4A4A"></path>
                    <path d="M41.32272,15.9705 L24.07824,15.9705 C23.8805826,15.9705 23.718865,16.14433 23.718865,16.361125 C23.718865,16.57597 23.8787886,16.75175 24.07824,16.75175 L41.32272,16.75175 C41.5221714,16.75175 41.682095,16.57792 41.682095,16.361125 C41.682095,16.14628 41.5203774,15.9705 41.32272,15.9705 Z" id="Shape" fill="#4A4A4A"></path>
                    <path d="M31.2639,20.656 L24.07824,20.656 C23.8805826,20.656 23.718865,20.82983 23.718865,21.046625 C23.718865,21.26147 23.8787886,21.43725 24.07824,21.43725 L31.2639,21.43725 C31.4615574,21.43725 31.623275,21.26342 31.623275,21.046625 C31.623275,20.83178 31.4615574,20.656 31.2639,20.656 Z" id="Shape" fill="#4A4A4A"></path>
                    <path d="M30.54492,23 L24.07778,23 C23.8801226,23 23.718405,23.17383 23.718405,23.390625 C23.718405,23.60547 23.8783286,23.78125 24.07778,23.78125 L30.54492,23.78125 C30.7425774,23.78125 30.904295,23.60742 30.904295,23.390625 C30.904295,23.17383 30.7425774,23 30.54492,23 Z" id="Shape" fill="#4A4A4A"></path>
                    <path d="M30.54492,25.344 L24.07778,25.344 C23.8801226,25.344 23.718405,25.51783 23.718405,25.734625 C23.718405,25.95142 23.8783286,26.12525 24.07778,26.12525 L30.54492,26.12525 C30.7425774,26.12525 30.904295,25.95142 30.904295,25.734625 C30.904295,25.51783 30.7425774,25.344 30.54492,25.344 Z" id="Shape" fill="#4A4A4A"></path>
                    <path d="M43.4792,0.35155 L2.52126,0.35155 C1.110716,0.35155 0.005612,1.5527 0.005612,3.08595 L0.005612,34.32045 L0.005612,34.3243565 L0.005612,34.3263095 L0.005612,35.8888095 C0.005612,37.4220095 1.11067,38.6232095 2.52126,38.6232095 L17.88296,38.6232095 L16.607196,44.8597095 L15.81296,44.8597095 C15.6153026,44.8597095 15.453585,45.0335395 15.453585,45.2503345 C15.453585,45.4671295 15.6135086,45.6409595 15.81296,45.6409595 L30.18428,45.6409595 C30.3819374,45.6409595 30.543655,45.4671295 30.543655,45.2503345 C30.543655,45.0335395 30.3837314,44.8597095 30.18428,44.8597095 L29.390044,44.8597095 L28.11428,38.6232095 L30.541838,38.6232095 C30.7394954,38.6232095 30.901213,38.4493795 30.901213,38.2325845 C30.901213,38.0157895 30.7412894,37.8419595 30.541838,37.8419595 L27.73869,37.8419595 C27.6883752,37.8302405 27.638065,37.8263345 27.5841576,37.838053 C27.5823608,37.838053 27.5805636,37.8400065 27.5769701,37.8419595 L18.4183701,37.8400065 C18.4165733,37.8400065 18.4147766,37.838053 18.4111831,37.8361 C18.3608683,37.8243815 18.3087595,37.8263345 18.2602433,37.8400065 L2.52134326,37.8400065 C1.63906326,37.8400065 0.92390126,37.1818065 0.76041726,36.2833565 C1.21143346,36.7599165 1.82775526,37.0529065 2.52134326,37.0529065 L30.5436233,37.0529065 C30.7412807,37.0529065 30.9029983,36.8790765 30.9029983,36.6622815 C30.9029983,36.4474365 30.7430747,36.2716565 30.5436233,36.2716565 L2.52134326,36.269703 C1.51329926,36.269703 0.72449126,35.412303 0.72449126,34.316603 L0.72449126,31.576353 L30.5435313,31.576353 C30.7411887,31.576353 30.9029063,31.402523 30.9029063,31.185728 C30.9029063,30.968933 30.7429827,30.795103 30.5435313,30.795103 L0.72633126,30.797056 L0.72633126,3.084056 C0.72633126,1.988356 1.51513926,1.130956 2.52318326,1.130956 L43.4792833,1.130956 C44.4873273,1.130956 45.2761353,1.988356 45.2761353,3.084056 L45.2761353,19.484556 C45.2761353,19.699401 45.4360589,19.875181 45.6355103,19.875181 C45.8349617,19.875181 45.9948853,19.701351 45.9948853,19.484556 L45.9930885,3.084056 C45.9930885,1.550856 44.8880305,0.351656 43.4792805,0.351656 L43.4792,0.35155 Z M28.65478,44.85555 L17.34522,44.85555 L18.620984,38.61905 L27.380764,38.61905 L28.65478,44.85555 Z" id="Shape" fill="#0D2132"></path>
                    <path d="M43.4792,19.0955 C43.6768574,19.0955 43.838575,18.92167 43.838575,18.704875 L43.8367782,3.083875 C43.8367782,2.86903 43.6768546,2.69325 43.4774032,2.69325 L2.52130324,2.69325 C2.32364584,2.69325 2.16192824,2.86708 2.16192824,3.083875 L2.16192824,28.857375 C2.16192824,29.07222 2.32185184,29.248 2.52130324,29.248 L30.5435832,29.248 C30.7412406,29.248 30.9029582,29.07417 30.9029582,28.857375 C30.9029582,28.64058 30.7430346,28.46675 30.5435832,28.46675 L2.88056324,28.46675 L2.88056324,5.03725 L43.1181432,5.03725 L43.1181432,18.70525 C43.11994,18.920095 43.2798608,19.095875 43.4793168,19.095875 L43.4792,19.0955 Z M6.85538,4.2555 L2.880704,4.2555 L2.880704,3.47425 L3.973204,3.47425 C3.7755466,3.47425 3.6174216,3.64808 3.6174216,3.864875 C3.6174216,4.07972 3.7827364,4.2555 3.9803892,4.2555 C4.1780466,4.2555 4.3397642,4.08167 4.3397642,3.864875 C4.3397642,3.65003 4.1798406,3.47425 3.9803892,3.47425 L5.4107132,3.47425 C5.2130558,3.47425 5.0549308,3.64808 5.0549308,3.864875 C5.0549308,4.07972 5.2202456,4.2555 5.4178984,4.2555 C5.6155558,4.2555 5.7772734,4.08167 5.7772734,3.864875 C5.7772734,3.65003 5.6173498,3.47425 5.4178984,3.47425 L6.8482224,3.47425 C6.650565,3.47425 6.49244,3.64808 6.49244,3.864875 C6.49244,4.08167 6.6559562,4.2555 6.8554076,4.2555 C7.053065,4.2555 7.2147826,4.08167 7.2147826,3.864875 C7.2147826,3.65003 7.054859,3.47425 6.8554076,3.47425 L43.1199676,3.47425 L43.1199676,4.2555 L6.85538,4.2555 Z" id="Shape" fill="#0D2132"></path>
                    <path d="M7.55228,10.504 L38.44956,10.504 C38.6490114,10.504 38.808935,10.33017 38.808935,10.113375 C38.808935,9.89853 38.6490114,9.72275 38.44956,9.72275 L7.55228,9.72275 C7.3546226,9.72275 7.192905,9.89658 7.192905,10.113375 C7.192905,10.32822 7.3528286,10.504 7.55228,10.504 L7.55228,10.504 Z" id="Shape" fill="#4A4A4A"></path>
                </g>
            </g>
            <g id="Group-2" transform="translate(41.000000, 96.000000)" fill-rule="nonzero">
                <g id="np_website-programming_712128_000000">
                    <g id="Group">
                        <path d="M17.5,22.7786277 C16.897055,22.7786277 16.40625,23.2707277 16.40625,23.878322 C16.40625,24.4845439 16.897055,24.9780163 17.5,24.9780163 C18.102945,24.9780163 18.59375,24.4859163 18.59375,23.878322 C18.59375,23.2707277 18.102945,22.7786277 17.5,22.7786277 Z M17.5,24.4267967 C17.197852,24.4267967 16.953125,24.1793673 16.953125,23.8769496 C16.953125,23.5745354 17.197852,23.3271024 17.5,23.3271024 C17.802148,23.3271024 18.046875,23.5745354 18.046875,23.8769496 C18.046875,24.1807397 17.802148,24.4267967 17.5,24.4267967 Z" id="Shape" fill="#0D2132"></path>
                        <path d="M1.918175,20.5890924 L33.080425,20.5890924 C33.2308165,20.5890924 33.3538625,20.4667501 33.3538625,20.3141688 L33.3538625,2.17466746 C33.3538625,2.02345861 33.2321815,1.89974389 33.080425,1.89974389 L1.918175,1.89974389 C1.7677835,1.89974389 1.6447375,2.0220862 1.6447375,2.17466746 L1.6447375,20.3141688 C1.6461046,20.4667501 1.7677835,20.5890924 1.918175,20.5890924 L1.918175,20.5890924 Z M3.285345,20.0392452 L3.285345,2.44976698 L17.226545,2.44976698 L17.226545,20.0392452 L3.285345,20.0392452 Z M32.808545,20.0392452 L17.773595,20.0392452 L17.773595,2.44976698 L32.808545,2.44976698 L32.808545,20.0392452 Z M2.738645,2.44976698 L2.738645,20.0448757 L2.19177,20.0448757 L2.19177,18.9451814 L2.4652075,18.9451814 C2.615599,18.9451814 2.738645,18.8228391 2.738645,18.6702578 C2.738645,18.5176765 2.616964,18.3953342 2.4652075,18.3953342 L2.19177,18.3953342 L2.19177,17.2956399 L2.4652075,17.2956399 C2.615599,17.2956399 2.738645,17.1732976 2.738645,17.0207164 C2.738645,16.8695075 2.616964,16.7457928 2.4652075,16.7457928 L2.19177,16.7457928 L2.19177,15.6460985 L2.4652075,15.6460985 C2.615599,15.6460985 2.738645,15.5237562 2.738645,15.3711749 C2.738645,15.2185937 2.616964,15.0962514 2.4652075,15.0962514 L2.19177,15.0962514 L2.19177,13.9965571 L2.4652075,13.9965571 C2.615599,13.9965571 2.738645,13.8742148 2.738645,13.7216335 C2.738645,13.5704246 2.616964,13.4467099 2.4652075,13.4467099 L2.19177,13.4467099 L2.19177,12.3470156 L2.4652075,12.3470156 C2.615599,12.3470156 2.738645,12.2246733 2.738645,12.0720921 C2.738645,11.9195108 2.616964,11.7971685 2.4652075,11.7971685 L2.19177,11.7971685 L2.19177,10.6974742 L2.4652075,10.6974742 C2.615599,10.6974742 2.738645,10.5751319 2.738645,10.4225506 C2.738645,10.2713418 2.616964,10.147627 2.4652075,10.147627 L2.19177,10.147627 L2.19177,9.04793274 L2.4652075,9.04793274 C2.615599,9.04793274 2.738645,8.92559043 2.738645,8.77300917 C2.738645,8.62042791 2.616964,8.4980856 2.4652075,8.4980856 L2.19177,8.4980856 L2.19177,7.3983913 L2.4652075,7.3983913 C2.615599,7.3983913 2.738645,7.27604899 2.738645,7.12346773 C2.738645,6.97225889 2.616964,6.84854416 2.4652075,6.84854416 L2.19177,6.84854416 L2.19177,5.74884986 L2.4652075,5.74884986 C2.615599,5.74884986 2.738645,5.62650755 2.738645,5.47392629 C2.738645,5.32134503 2.616964,5.19900272 2.4652075,5.19900272 L2.19177,5.19900272 L2.19177,4.09930842 L2.4652075,4.09930842 C2.615599,4.09930842 2.738645,3.97696611 2.738645,3.82438485 C2.738645,3.67317601 2.616964,3.54946128 2.4652075,3.54946128 L2.19177,3.54946128 L2.19177,2.44976698 L2.738645,2.44976698 Z" id="Shape" fill="#0D2132"></path>
                        <path d="M33.082,0.251539674 L1.91835,0.251539674 C0.86289,0.251539674 0.00427,1.1147909 0.00427,2.17602228 L0.00427,25.2544707 C0.00427,26.3335435 0.845075,27.1789533 1.91835,27.1789533 L13.60905,27.1762038 L12.636995,31.5735734 L12.032685,31.5735734 C11.8822935,31.5735734 11.7592475,31.6959157 11.7592475,31.848497 C11.7592475,32.0010783 11.8809285,32.1234206 12.032685,32.1234206 L22.967385,32.1234206 C23.1177765,32.1234206 23.2408225,32.0010783 23.2408225,31.848497 C23.2408225,31.6959157 23.1191415,31.5735734 22.967385,31.5735734 L22.363075,31.5735734 L21.39102,27.1762038 L33.08172,27.1762038 C34.15496,27.1762038 34.9958,26.3308293 34.9958,25.2517212 L34.9958,24.1602615 L34.9944329,2.17446934 C34.9944329,1.11464556 34.1358479,0.251394338 33.0817529,0.251394338 L33.082,0.251539674 Z M33.082,25.5364147 L1.91835,25.5364147 C1.165045,25.5364147 0.55118,24.9205859 0.55118,24.1618144 L0.55118,24.1535669 L0.5525471,22.2304919 L34.4479471,22.2304919 L34.4479471,24.163209 C34.4479471,24.920608 33.8354471,25.5364368 33.0821421,25.5364368 L33.082,25.5364147 Z M1.91835,0.801562772 L33.0806,0.801562772 C33.833905,0.801562772 34.44777,1.41876399 34.44777,2.17616304 L34.44777,21.6806929 L0.55237,21.6806929 L0.55237,2.17475543 C0.55237,1.41735639 1.16487,0.801527582 1.918175,0.801527582 L1.91835,0.801562772 Z M21.80255,31.5736484 L13.19605,31.5736484 L14.168105,27.1762788 L20.830355,27.1762788 L21.80255,31.5736484 Z M33.082,26.6276633 L1.91835,26.6276633 C1.24705,26.6276633 0.70427,26.1644193 0.578515,25.5334587 C0.924413,25.8743639 1.39608,26.0874231 1.91835,26.0874231 L33.0806,26.0874231 C33.60287,26.0874231 34.07453,25.8757328 34.420435,25.5334587 C34.2960205,26.1644193 33.751865,26.6276633 33.081965,26.6276633 L33.082,26.6276633 Z" id="Shape" fill="#0D2132"></path>
                        <path d="M4.65255,4.09895652 L6.84005,4.09895652 C6.9904415,4.09895652 7.1134875,3.97661421 7.1134875,3.82403295 C7.1134875,3.6728241 6.9918065,3.54910937 6.84005,3.54910937 L4.65255,3.54910937 C4.5021585,3.54910937 4.3791125,3.67145168 4.3791125,3.82403295 C4.3791125,3.97524179 4.5007935,4.09895652 4.65255,4.09895652 Z" id="Shape" fill="#4A4A4A"></path>
                        <path d="M9.02615,5.7472663 L15.58725,5.7472663 C15.7376415,5.7472663 15.8606875,5.62492399 15.8606875,5.47234273 C15.8606875,5.31976147 15.7390065,5.19741916 15.58725,5.19741916 L9.02615,5.19741916 C8.8743935,5.19741916 8.7527125,5.31976147 8.7527125,5.47234273 C8.7527125,5.62492399 8.8743935,5.7472663 9.02615,5.7472663 L9.02615,5.7472663 Z" id="Shape" fill="#4A4A4A"></path>
                        <path d="M4.9259,5.47383832 C4.9259,5.62504716 5.047581,5.74876189 5.1993375,5.74876189 L7.9323475,5.74876189 C8.082739,5.74876189 8.205785,5.62641958 8.205785,5.47383832 C8.205785,5.32125705 8.084104,5.19891474 7.9323475,5.19891474 L5.1993375,5.19891474 C5.047581,5.19891474 4.9259,5.32125705 4.9259,5.47383832 Z" id="Shape" fill="#4A4A4A"></path>
                        <path d="M15.58585,6.8469606 L15.038975,6.8469606 C14.8885835,6.8469606 14.7655375,6.96930291 14.7655375,7.12188417 C14.7655375,7.27309302 14.8872185,7.39680774 15.038975,7.39680774 L15.58585,7.39680774 C15.7362415,7.39680774 15.8592875,7.27446543 15.8592875,7.12188417 C15.8592875,6.97067533 15.7376065,6.8469606 15.58585,6.8469606 Z" id="Shape" fill="#4A4A4A"></path>
                        <path d="M14.22015,7.1217962 C14.22015,6.97058735 14.098469,6.84687262 13.9467125,6.84687262 L5.7462125,6.84687262 C5.595821,6.84687262 5.472775,6.96921493 5.472775,7.1217962 C5.472775,7.27300504 5.594456,7.39671977 5.7462125,7.39671977 L13.9467125,7.39671977 C14.097104,7.39671977 14.22015,7.27437746 14.22015,7.1217962 Z" id="Shape" fill="#4A4A4A"></path>
                        <path d="M7.3857,10.1446359 L5.74644,10.1446359 C5.5960485,10.1446359 5.4730025,10.2669782 5.4730025,10.4195594 C5.4730025,10.5707683 5.5946835,10.694483 5.74644,10.694483 L7.387065,10.694483 C7.5374565,10.694483 7.6605025,10.5721407 7.6605025,10.4195594 C7.65913505,10.2683506 7.5374565,10.1446359 7.3856965,10.1446359 L7.3857,10.1446359 Z" id="Shape" fill="#4A4A4A"></path>
                        <path d="M15.58585,10.1446359 L8.4791,10.1446359 C8.3287085,10.1446359 8.2056625,10.2669782 8.2056625,10.4195594 C8.2056625,10.5707683 8.3273435,10.694483 8.4791,10.694483 L15.58585,10.694483 C15.7362415,10.694483 15.8592875,10.5721407 15.8592875,10.4195594 C15.8592875,10.2683506 15.7376065,10.1446359 15.58585,10.1446359 Z" id="Shape" fill="#4A4A4A"></path>
                        <path d="M15.58585,8.49667799 L6.2916,8.49667799 C6.1412085,8.49667799 6.0181625,8.6190203 6.0181625,8.77160156 C6.0181625,8.92418283 6.1398435,9.04652514 6.2916,9.04652514 L15.58585,9.04652514 C15.7362415,9.04652514 15.8592875,8.92418283 15.8592875,8.77160156 C15.8592875,8.6190203 15.7376065,8.49667799 15.58585,8.49667799 Z" id="Shape" fill="#4A4A4A"></path>
                        <path d="M15.58585,11.7943533 L13.39835,11.7943533 C13.2465935,11.7943533 13.1249125,11.9166956 13.1249125,12.0692768 C13.1249125,12.2218581 13.2465935,12.3442004 13.39835,12.3442004 L15.58585,12.3442004 C15.7362415,12.3442004 15.8592875,12.2218581 15.8592875,12.0692768 C15.8592875,11.918068 15.7376065,11.7943533 15.58585,11.7943533 Z" id="Shape" fill="#4A4A4A"></path>
                        <path d="M4.9259,13.7185543 C4.9259,13.8697632 5.047581,13.9934779 5.1993375,13.9934779 L13.9465375,13.9934779 C14.096929,13.9934779 14.219975,13.8711356 14.219975,13.7185543 C14.219975,13.5673455 14.098294,13.4436308 13.9465375,13.4436308 L5.1993375,13.4436308 C5.047581,13.4436308 4.9259,13.5659731 4.9259,13.7185543 L4.9259,13.7185543 Z" id="Shape" fill="#4A4A4A"></path>
                        <path d="M9.5732,16.741394 L5.1996,16.741394 C5.0492085,16.741394 4.9261625,16.8637363 4.9261625,17.0163176 C4.9261625,17.1688989 5.0478435,17.2912412 5.1996,17.2912412 L9.5732,17.2912412 C9.7235915,17.2912412 9.8466375,17.1688989 9.8466375,17.0163176 C9.8466375,16.8637363 9.7235915,16.741394 9.5732,16.741394 Z" id="Shape" fill="#4A4A4A"></path>
                        <path d="M15.58585,15.0920285 L12.85284,15.0920285 C12.7024485,15.0920285 12.5794025,15.2143708 12.5794025,15.3669521 C12.5794025,15.5195334 12.7010835,15.6418757 12.85284,15.6418757 L15.58585,15.6418757 C15.7362415,15.6418757 15.8592875,15.5195334 15.8592875,15.3669521 C15.8592875,15.2157433 15.7376065,15.0920285 15.58585,15.0920285 Z" id="Shape" fill="#4A4A4A"></path>
                        <path d="M11.7593,15.0920285 L5.7463,15.0920285 C5.5959085,15.0920285 5.4728625,15.2143708 5.4728625,15.3669521 C5.4728625,15.5195334 5.5945435,15.6418757 5.7463,15.6418757 L11.7607,15.6418757 C11.9110915,15.6418757 12.0341375,15.5195334 12.0341375,15.3669521 C12.0327704,15.2157433 11.9110915,15.0920285 11.7593315,15.0920285 L11.7593,15.0920285 Z" id="Shape" fill="#4A4A4A"></path>
                        <path d="M6.83865,18.3911114 L4.65115,18.3911114 C4.5007585,18.3911114 4.3777125,18.5134537 4.3777125,18.666035 C4.3777125,18.8172438 4.4993935,18.9409586 4.65115,18.9409586 L6.83865,18.9409586 C6.9890415,18.9409586 7.1120875,18.8186163 7.1120875,18.666035 C7.1120875,18.5134537 6.9904065,18.3911114 6.83865,18.3911114 Z" id="Shape" fill="#4A4A4A"></path>
                        <path d="M15.58585,13.4437187 L15.038975,13.4437187 C14.8885835,13.4437187 14.7655375,13.5660611 14.7655375,13.7186423 C14.7655375,13.8698512 14.8872185,13.9935659 15.038975,13.9935659 L15.58585,13.9935659 C15.7362415,13.9935659 15.8592875,13.8712236 15.8592875,13.7186423 C15.8592875,13.5660611 15.7376065,13.4437187 15.58585,13.4437187 Z" id="Shape" fill="#4A4A4A"></path>
                        <path d="M12.306,11.7943533 L5.7463,11.7943533 C5.5959085,11.7943533 5.4728625,11.9166956 5.4728625,12.0692768 C5.4728625,12.2218581 5.5945435,12.3442004 5.7463,12.3442004 L12.3074,12.3442004 C12.4577915,12.3442004 12.5808375,12.2218581 12.5808375,12.0692768 C12.5794704,11.918068 12.4577915,11.7943533 12.3060315,11.7943533 L12.306,11.7943533 Z" id="Shape" fill="#4A4A4A"></path>
                        <path d="M21.60025,13.4437188 C22.353555,13.4437188 22.96742,12.8265175 22.96742,12.0691185 C22.96742,11.3117194 22.35492,10.6945182 21.60025,10.6945182 C20.846945,10.6945182 20.23308,11.3117194 20.23308,12.0691185 C20.23308,12.8265175 20.846945,13.4437188 21.60025,13.4437188 Z M21.60025,11.2443302 C22.0528,11.2443302 22.42058,11.614109 22.42058,12.0691185 C22.42058,12.524128 22.0528,12.8939068 21.60025,12.8939068 C21.1477,12.8939068 20.77992,12.524128 20.77992,12.0691185 C20.77992,11.614109 21.1477,11.2443302 21.60025,11.2443302 Z" id="Shape" fill="#B70303"></path>
                        <path d="M19.41415,17.2914171 L31.4412,17.2914171 C31.5929565,17.2914171 31.7146375,17.1690748 31.7146375,17.0164935 L31.7146375,9.8697123 C31.7146375,9.71850345 31.5929565,9.59478872 31.4412,9.59478872 L19.41415,9.59616325 C19.2637585,9.59616325 19.1407125,9.71850556 19.1407125,9.87108683 L19.1407125,17.0164605 C19.1407125,17.1690417 19.2623935,17.291384 19.41415,17.291384 L19.41415,17.2914171 Z M27.34095,12.0237935 L30.39113,16.741394 L24.29063,16.741394 L27.34095,12.0237935 Z M23.63865,16.741394 L22.111495,16.741394 L23.78768,14.2162144 L24.53962,15.3489171 L23.63865,16.741394 Z M19.6875,10.1446359 L31.16785,10.1446359 L31.16785,16.741394 L31.0434355,16.741394 L27.5707705,11.3692554 C27.4709645,11.2125499 27.2125805,11.2125499 27.1127605,11.3692554 L24.8637305,14.8470342 L24.0160655,13.568644 C23.96548,13.4916654 23.879345,13.4463017 23.7891115,13.4463017 C23.6975095,13.4463017 23.612743,13.4916654 23.5621575,13.568644 L21.4566975,16.7412533 L19.6875525,16.7412533 L19.6875,10.1446359 Z" id="Shape" fill="#B70303"></path>
                        <path d="M19.41415,8.49667799 L31.4412,8.49667799 C31.5929565,8.49667799 31.7146375,8.37433568 31.7146375,8.22175442 L31.7146375,3.82438485 C31.7146375,3.67317601 31.5929565,3.54946128 31.4412,3.54946128 L19.41415,3.54946128 C19.2637585,3.54946128 19.1407125,3.67180359 19.1407125,3.82438485 C19.1407125,3.9755937 19.2623935,4.09930842 19.41415,4.09930842 L31.16785,4.09930842 L31.16785,7.94700679 L19.41415,7.94700679 C19.2637585,7.94700679 19.1407125,8.0693491 19.1407125,8.22193037 C19.1407125,8.37313921 19.2623935,8.49685394 19.41415,8.49685394 L19.41415,8.49667799 Z" id="Shape" fill="#B70303"></path>
                        <path d="M19.41415,6.2972894 L29.80215,6.2972894 C29.9525415,6.2972894 30.0755875,6.17494709 30.0755875,6.02236583 C30.0755875,5.87115698 29.9539065,5.74744226 29.80215,5.74744226 L19.41415,5.74744226 C19.2637585,5.74744226 19.1407125,5.86978457 19.1407125,6.02236583 C19.1407125,6.17494709 19.2623935,6.2972894 19.41415,6.2972894 Z" id="Shape" fill="#4A4A4A"></path>
                        <path d="M31.4412,18.3911114 L19.41415,18.3911114 C19.2637585,18.3911114 19.1407125,18.5134537 19.1407125,18.666035 C19.1407125,18.8172438 19.2623935,18.9409586 19.41415,18.9409586 L31.4412,18.9409586 C31.5929565,18.9409586 31.7146375,18.8186163 31.7146375,18.666035 C31.7146375,18.5134537 31.5915915,18.3911114 31.4412,18.3911114 Z" id="Shape" fill="#4A4A4A"></path>
                    </g>
                </g>
                <g id="np_head_944754_000000" transform="translate(35.000000, 5.000000)" fill="#0D2132">
                    <g id="Group">
                        <path d="M24.6481618,9.44986884 C24.6481618,4.427645 19.7525735,0.341737103 13.7334559,0.341737103 C7.71470588,0.341737103 2.81875,4.427645 2.81875,9.44986884 C2.81875,10.0134436 2.88194118,10.5798601 3.00257353,11.126348 C3.02842353,11.4252077 2.23279412,12.3716118 1.80485294,12.8796634 C0.826838235,14.042371 -0.0980147059,15.1424512 0.569779412,15.9906733 C0.819665441,16.3094579 1.21889706,16.320843 1.54058824,16.3308037 C2.09492647,16.3464584 2.34481618,16.3763444 2.47551471,16.9128862 C2.62343382,17.517739 2.52290809,18.3018763 2.4266875,19.0604015 C2.26727941,20.3099279 2.102125,21.603574 3.03415074,22.3450124 C3.7723125,22.9327783 4.72014338,22.9996685 5.36786397,22.9996685 C5.77429779,22.9996685 6.17639338,22.9683594 6.53113603,22.9398973 C6.81548897,22.9171269 7.07830515,22.8957811 7.30378309,22.8957811 C7.535,22.8957811 7.61685662,22.9213976 7.63696324,22.9285136 C7.79924632,22.9911338 7.84950735,23.0879059 7.73605515,23.8578345 C7.63552574,24.5437861 7.4660625,25.6937059 8.6494375,26.1334465 C9.54557721,26.4664617 11.9783713,26.5845905 13.9575257,26.5845905 C17.9744375,26.5845905 20.2534816,26.2174235 20.7303199,25.4958773 C20.8839853,25.2639041 20.9069632,24.984984 20.793511,24.7302113 C18.487114,19.5272821 21.5402757,15.8967808 22.1750551,15.2235077 C23.1702757,14.1703891 24.6480699,11.7609968 24.6480699,9.44968085 L24.6481618,9.44986884 Z M19.6305147,24.9307782 C19.0244853,25.1698667 17.0914706,25.4488123 13.9577206,25.4488123 C11.4071691,25.4488123 9.55882353,25.2581099 9.05183824,25.0702419 C8.79908088,24.9763152 8.7516875,24.8439631 8.87232353,24.0256485 C8.96710662,23.375255 9.12795221,22.2865783 8.05372059,21.8709924 C7.85840809,21.7955662 7.62000735,21.7599862 7.30405147,21.7599862 C7.05273162,21.7599862 6.75831618,21.7827565 6.44092647,21.8069513 C6.09051471,21.8354142 5.72861029,21.8638771 5.36813235,21.8638771 C4.61272794,21.8638771 4.10004412,21.735795 3.75394118,21.4596947 C3.32309559,21.1152944 3.44086765,20.187398 3.56724632,19.2054321 C3.67639338,18.3444222 3.79128309,17.4549585 3.59309669,16.64663 C3.24986507,15.2419739 2.11820699,15.2092575 1.57533934,15.1935915 C1.56241434,15.1935915 1.54805331,15.1935915 1.53369228,15.1921685 C1.6844864,14.803652 2.32354522,14.0451268 2.68975846,13.6096124 C3.55718493,12.5778432 4.30681728,11.6869586 4.12733199,10.885698 C4.02249375,10.4146255 3.96935772,9.93218595 3.96935772,9.4511673 C3.96935772,5.0566759 8.34950478,1.48155203 13.7347989,1.48155203 C19.120093,1.48155203 23.5002401,5.05649373 23.5002401,9.4511673 C23.5002401,11.2059035 22.3858283,13.336332 21.3360121,14.450803 C19.2866739,16.6253876 17.7888063,20.5018814 19.6299092,24.9309837 L19.6305147,24.9307782 Z" id="Shape"></path>
                        <path d="M9.05330882,8.88042845 L7.90441176,8.88042845 C7.58702941,8.88042845 7.32996324,9.13517196 7.32996324,9.44968668 C7.32996324,9.7642014 7.58702941,10.0189449 7.90441176,10.0189449 L9.05330882,10.0189449 C9.37069118,10.0189449 9.62775735,9.7642014 9.62775735,9.44968668 C9.62775735,9.13517196 9.37069118,8.88042845 9.05330882,8.88042845 Z" id="Shape"></path>
                    </g>
                </g>
            </g>
            <g id="np_arrow_890466_0D2132" transform="translate(85.000000, 168.500000) scale(-1, 1) translate(-85.000000, -168.500000) translate(72.000000, 156.000000)" stroke="#FFFFFF" fill-rule="nonzero" fill="#FFFFFF">
                <path d="M24.9876577,1.97719357 C24.976806,1.86867703 24.9605283,1.75473216 24.9138669,1.65707783 C24.8324781,1.48778847 24.7358961,1.32284955 24.6262822,1.16875062 C24.5307864,1.03527322 24.4711026,0.896370267 24.4624212,0.732512013 C24.4580802,0.654379103 24.4450583,0.574076529 24.4244395,0.498113284 C24.3517322,0.230075038 24.1683358,0.113963284 23.9241667,0.222477047 C23.6528725,0.342930907 23.3685549,0.446024677 23.1265581,0.627240245 C22.9887414,0.730331236 22.8324728,0.810636588 22.7000705,0.918075242 C22.5915512,1.00597581 22.4938858,1.11015302 22.4114024,1.22302278 C22.3365254,1.32611377 22.4233395,1.50299557 22.5546447,1.51169089 C22.6599081,1.51820211 22.7771061,1.50300946 22.873677,1.46177195 C23.0646686,1.38038315 23.2513263,1.33263665 23.4911562,1.39557636 C23.4303861,1.57571682 23.3804672,1.73958341 23.3207834,1.89909955 C23.0429775,2.64136914 22.7369465,3.37277652 22.490616,4.12371365 C22.1683056,5.10689651 21.752708,6.04557487 21.2838827,6.96372337 C21.0679331,7.38693288 20.8563117,7.8134205 20.6371228,8.23446313 C20.5492222,8.40266627 20.4548127,8.56760796 20.3495381,8.72604067 C19.6886657,9.71464075 19.0267098,10.7021574 18.3593089,11.6852291 C18.2258315,11.88056 18.0750023,12.0661288 17.9198199,12.2451747 C16.9843919,13.3238395 15.9643164,14.3222183 14.9714659,15.3454886 C14.1749408,16.1669606 13.3035471,16.8972845 12.4017613,17.5983277 C10.9367797,18.736693 9.4392392,19.8272756 7.84935603,20.7855948 C6.96710005,21.3162597 6.06967587,21.8175882 5.10060554,22.1800416 C4.68606358,22.3352211 4.28455071,22.5240486 3.87653718,22.6976773 C3.30789628,22.9385878 2.74036661,23.1795038 2.17064227,23.417139 C2.08599759,23.452951 1.99050181,23.4659717 1.91671101,23.4855043 C1.88198527,23.4648858 1.86245274,23.4616302 1.85594096,23.4486089 C1.72463323,23.2044425 1.49240416,23.0959343 1.24499023,23.0416788 C0.995398294,22.9863343 0.731688264,23.0112924 0.498386868,23.1187255 C0.243369385,23.2359262 0.0708158061,23.4551206 0.0252556383,23.7362046 C-0.0724098043,24.3428216 0.14028395,24.659687 0.724104163,24.8474282 C0.902072179,24.9049424 1.06049933,24.8897492 1.22762736,24.8127025 C1.68014539,24.6054343 1.68231228,24.6097736 1.84835686,24.167026 C1.87006045,24.1095119 1.89285026,24.0509115 1.92214767,23.9771207 C2.70130988,23.7861291 3.43813447,23.6059998 4.13373266,23.2847728 C4.47882315,23.1252511 4.83258119,22.9798253 5.19178422,22.8626468 C6.17930086,22.5436145 7.08325348,22.0498423 7.96550946,21.5213721 C9.35128863,20.6901213 10.7023421,19.8035315 11.9698037,18.7964851 C12.6024511,18.2940454 13.2492388,17.8089685 13.8840531,17.3086956 C14.1076007,17.1328973 14.3257089,16.9473257 14.5264792,16.7465832 C15.2774163,15.9967295 16.0229362,15.2392639 16.7673727,14.4818261 C17.8590666,13.3727694 18.8932268,12.2170691 19.7093372,10.8822951 C19.8742845,10.6120844 20.0555111,10.3505468 20.2378074,10.0911872 C20.8346456,9.24799073 21.3349184,8.35056655 21.7831027,7.42055573 C22.2779306,6.3918127 22.7652021,5.36195844 23.0473418,4.24856795 C23.1243885,3.94145353 23.2274823,3.64086755 23.3218918,3.33919812 C23.365299,3.20355105 23.4000247,3.06030877 23.4694762,2.93876869 C23.675661,2.57739878 23.8145667,2.19324878 23.9024645,1.78848558 C23.9219978,1.69950157 23.9458716,1.60183335 24.0945423,1.58881259 C24.1444612,1.64958263 24.2019754,1.72012032 24.2594895,1.79282769 C24.3582412,1.91653743 24.4493948,2.04675895 24.5557417,2.16286515 C24.6870495,2.30502398 24.8552443,2.35494292 24.9301407,2.28983078 C25.0343179,2.19976055 24.998506,2.08364601 24.9876549,1.97729914 L24.9876577,1.97719357 Z" id="Shape"></path>
            </g>
            <path d="M97.9860594,51.8155777 C97.9752078,51.7057328 97.95893,51.5903932 97.9122686,51.4915435 C97.8308798,51.3201819 97.7342978,51.153224 97.624684,50.9972388 C97.5291882,50.8621275 97.4695044,50.7215243 97.4608229,50.5556603 C97.4564819,50.4765709 97.4434601,50.3952854 97.4228413,50.3183923 C97.3501339,50.0470731 97.1667376,49.92954 96.9225684,50.0393821 C96.6512743,50.1613104 96.3669566,50.2656661 96.1249599,50.4490999 C95.9871432,50.5534528 95.8308746,50.6347411 95.6984723,50.7434949 C95.589953,50.8324715 95.4922875,50.9379239 95.4098042,51.0521752 C95.3349272,51.1565281 95.4217412,51.3355751 95.5530465,51.3443769 C95.6583099,51.3509678 95.7755079,51.3355892 95.8720788,51.2938469 C96.0630703,51.2114618 96.2497281,51.1631309 96.4895579,51.226841 C96.4287879,51.4091865 96.378869,51.575059 96.3191851,51.7365277 C96.0413792,52.4878832 95.7353483,53.2282436 95.4890178,53.9883728 C95.1667074,54.9835905 94.7511097,55.933759 94.2822845,56.8631464 C94.0663348,57.2915363 93.8547134,57.7232444 93.6355246,58.1494409 C93.547624,58.319703 93.4532144,58.4866637 93.3479399,58.6470357 C92.6870674,59.647737 92.0251115,60.6473416 91.3577106,61.6424469 C91.2242332,61.8401688 91.0734041,62.0280091 90.9182217,62.2092466 C89.9827937,63.3011151 88.9627182,64.3117148 87.9698677,65.3475107 C87.1733426,66.1790382 86.3019488,66.9183018 85.4001631,67.6279263 C83.9351815,68.780226 82.437641,69.8841582 80.8477578,70.854208 C79.9655018,71.3913685 79.0680776,71.8988337 78.0990073,72.2657238 C77.6844653,72.4228029 77.2829525,72.6139417 76.8749389,72.7896957 C76.306298,73.0335552 75.7387684,73.2774202 75.169044,73.5179642 C75.0843994,73.5542146 74.9889036,73.5673947 74.9151128,73.5871663 C74.880387,73.5662955 74.8608545,73.563 74.8543427,73.5498193 C74.723035,73.3026641 74.4908059,73.1928277 74.243392,73.1379081 C73.9938001,73.0818861 73.73009,73.1071497 73.4967886,73.2158979 C73.2417712,73.3345333 73.0692176,73.5564108 73.0236574,73.8409355 C72.925992,74.4549779 73.1386857,74.775722 73.7225059,74.9657613 C73.9004739,75.0239795 74.0589011,75.0086003 74.2260291,74.9306105 C74.6785472,74.7208052 74.680714,74.7251976 74.8467586,74.2770304 C74.8684622,74.2188123 74.891252,74.1594946 74.9205494,74.0848005 C75.6997116,73.8914711 76.4365362,73.7091368 77.1321344,73.3839778 C77.4772249,73.2225034 77.830983,73.0752975 78.190186,72.9566846 C79.1777026,72.6337471 80.0816552,72.1339307 80.9639112,71.5989917 C82.3496904,70.7575657 83.7007438,69.8601235 84.9682055,68.8407501 C85.6008529,68.3321601 86.2476406,67.8411455 86.8824548,67.3347489 C87.1060025,67.1567986 87.3241106,66.9689555 87.524881,66.7657557 C88.2758181,66.0067233 89.021338,65.2399858 89.7657745,64.4732764 C90.8574683,63.3506439 91.8916286,62.180797 92.707739,60.8296843 C92.8726862,60.556166 93.0539129,60.291427 93.2362091,60.0288927 C93.8330473,59.1753749 94.3333202,58.2669655 94.7815045,57.3255707 C95.2763323,56.2842351 95.7636039,55.2417746 96.0457436,54.1147554 C96.1227903,53.8038816 96.225884,53.4996163 96.3202936,53.1942542 C96.3637008,53.0569467 96.3984265,52.911951 96.467878,52.7889232 C96.6740627,52.4231298 96.8129685,52.0342775 96.9008662,51.6245597 C96.9203996,51.5344865 96.9442734,51.4356227 97.092944,51.4224426 C97.142863,51.4839565 97.2003771,51.5553576 97.2578913,51.628955 C97.3566429,51.754179 97.4477966,51.8859946 97.5541435,52.003522 C97.6854512,52.147421 97.853646,52.1979509 97.9285425,52.1320418 C98.0327197,52.040869 97.9969078,51.9233332 97.9860567,51.8156845 L97.9860594,51.8155777 Z" id="Shape" stroke="#FFFFFF" fill="#FFFFFF" fill-rule="nonzero" transform="translate(85.500838, 62.499747) scale(-1, 1) rotate(-90.000000) translate(-85.500838, -62.499747) "></path>
            <path d="M198.986059,51.8170962 C198.975208,51.7072513 198.95893,51.5919117 198.912269,51.493062 C198.83088,51.3217004 198.734298,51.1547425 198.624684,50.9987573 C198.529188,50.863646 198.469504,50.7230428 198.460823,50.5571788 C198.456482,50.4780894 198.44346,50.3968039 198.422841,50.3199108 C198.350134,50.0485916 198.166738,49.9310585 197.922568,50.0409006 C197.651274,50.1628289 197.366957,50.2671846 197.12496,50.4506184 C196.987143,50.5549713 196.830875,50.6362596 196.698472,50.7450134 C196.589953,50.83399 196.492288,50.9394424 196.409804,51.0536937 C196.334927,51.1580466 196.421741,51.3370936 196.553046,51.3458954 C196.65831,51.3524863 196.775508,51.3371077 196.872079,51.2953654 C197.06307,51.2129803 197.249728,51.1646494 197.489558,51.2283595 C197.428788,51.410705 197.378869,51.5765775 197.319185,51.7380462 C197.041379,52.4894017 196.735348,53.2297621 196.489018,53.9898913 C196.166707,54.985109 195.75111,55.9352775 195.282284,56.8646649 C195.066335,57.2930548 194.854713,57.7247629 194.635525,58.1509594 C194.547624,58.3212215 194.453214,58.4881822 194.34794,58.6485542 C193.687067,59.6492555 193.025112,60.6488601 192.357711,61.6439654 C192.224233,61.8416873 192.073404,62.0295276 191.918222,62.2107651 C190.982794,63.3026336 189.962718,64.3132333 188.969868,65.3490292 C188.173343,66.1805567 187.301949,66.9198203 186.400163,67.6294448 C184.935181,68.7817445 183.437641,69.8856767 181.847758,70.8557265 C180.965502,71.392887 180.068078,71.9003522 179.099007,72.2672423 C178.684465,72.4243214 178.282952,72.6154602 177.874939,72.7912143 C177.306298,73.0350737 176.738768,73.2789387 176.169044,73.5194827 C176.084399,73.5557331 175.988904,73.5689132 175.915113,73.5886848 C175.880387,73.567814 175.860855,73.5645185 175.854343,73.5513378 C175.723035,73.3041826 175.490806,73.1943462 175.243392,73.1394266 C174.9938,73.0834046 174.73009,73.1086682 174.496789,73.2174164 C174.241771,73.3360518 174.069218,73.5579293 174.023657,73.842454 C173.925992,74.4564964 174.138686,74.7772405 174.722506,74.9672798 C174.900474,75.025498 175.058901,75.0101188 175.226029,74.932129 C175.678547,74.7223237 175.680714,74.7267161 175.846759,74.2785489 C175.868462,74.2203308 175.891252,74.1610131 175.920549,74.086319 C176.699712,73.8929896 177.436536,73.7106553 178.132134,73.3854963 C178.477225,73.2240219 178.830983,73.076816 179.190186,72.9582031 C180.177703,72.6352656 181.081655,72.1354492 181.963911,71.6005102 C183.34969,70.7590842 184.700744,69.861642 185.968205,68.8422686 C186.600853,68.3336786 187.247641,67.842664 187.882455,67.3362674 C188.106002,67.1583171 188.324111,66.970474 188.524881,66.7672742 C189.275818,66.0082418 190.021338,65.2415043 190.765774,64.4747949 C191.857468,63.3521625 192.891629,62.1823155 193.707739,60.8312028 C193.872686,60.5576846 194.053913,60.2929455 194.236209,60.0304112 C194.833047,59.1768934 195.33332,58.268484 195.781504,57.3270892 C196.276332,56.2857536 196.763604,55.2432931 197.045744,54.1162739 C197.12279,53.8054001 197.225884,53.5011348 197.320294,53.1957727 C197.363701,53.0584652 197.398426,52.9134695 197.467878,52.7904417 C197.674063,52.4246483 197.812968,52.035796 197.900866,51.6260782 C197.9204,51.536005 197.944273,51.4371412 198.092944,51.4239611 C198.142863,51.485475 198.200377,51.5568761 198.257891,51.6304735 C198.356643,51.7556975 198.447797,51.8875131 198.554143,52.0050405 C198.685451,52.1489395 198.853646,52.1994694 198.928542,52.1335603 C199.03272,52.0423875 198.996908,51.9248517 198.986057,51.817203 L198.986059,51.8170962 Z" id="Shape" stroke="#FFFFFF" fill="#FFFFFF" fill-rule="nonzero" transform="translate(186.500838, 62.501266) scale(-1, 1) rotate(-180.000000) translate(-186.500838, -62.501266) "></path>
            <path d="M198.986059,157.817096 C198.975208,157.707251 198.95893,157.591912 198.912269,157.493062 C198.83088,157.3217 198.734298,157.154742 198.624684,156.998757 C198.529188,156.863646 198.469504,156.723043 198.460823,156.557179 C198.456482,156.478089 198.44346,156.396804 198.422841,156.319911 C198.350134,156.048592 198.166738,155.931059 197.922568,156.040901 C197.651274,156.162829 197.366957,156.267185 197.12496,156.450618 C196.987143,156.554971 196.830875,156.63626 196.698472,156.745013 C196.589953,156.83399 196.492288,156.939442 196.409804,157.053694 C196.334927,157.158047 196.421741,157.337094 196.553046,157.345895 C196.65831,157.352486 196.775508,157.337108 196.872079,157.295365 C197.06307,157.21298 197.249728,157.164649 197.489558,157.22836 C197.428788,157.410705 197.378869,157.576577 197.319185,157.738046 C197.041379,158.489402 196.735348,159.229762 196.489018,159.989891 C196.166707,160.985109 195.75111,161.935278 195.282284,162.864665 C195.066335,163.293055 194.854713,163.724763 194.635525,164.150959 C194.547624,164.321221 194.453214,164.488182 194.34794,164.648554 C193.687067,165.649256 193.025112,166.64886 192.357711,167.643965 C192.224233,167.841687 192.073404,168.029528 191.918222,168.210765 C190.982794,169.302634 189.962718,170.313233 188.969868,171.349029 C188.173343,172.180557 187.301949,172.91982 186.400163,173.629445 C184.935181,174.781744 183.437641,175.885677 181.847758,176.855726 C180.965502,177.392887 180.068078,177.900352 179.099007,178.267242 C178.684465,178.424321 178.282952,178.61546 177.874939,178.791214 C177.306298,179.035074 176.738768,179.278939 176.169044,179.519483 C176.084399,179.555733 175.988904,179.568913 175.915113,179.588685 C175.880387,179.567814 175.860855,179.564519 175.854343,179.551338 C175.723035,179.304183 175.490806,179.194346 175.243392,179.139427 C174.9938,179.083405 174.73009,179.108668 174.496789,179.217416 C174.241771,179.336052 174.069218,179.557929 174.023657,179.842454 C173.925992,180.456496 174.138686,180.77724 174.722506,180.96728 C174.900474,181.025498 175.058901,181.010119 175.226029,180.932129 C175.678547,180.722324 175.680714,180.726716 175.846759,180.278549 C175.868462,180.220331 175.891252,180.161013 175.920549,180.086319 C176.699712,179.89299 177.436536,179.710655 178.132134,179.385496 C178.477225,179.224022 178.830983,179.076816 179.190186,178.958203 C180.177703,178.635266 181.081655,178.135449 181.963911,177.60051 C183.34969,176.759084 184.700744,175.861642 185.968205,174.842269 C186.600853,174.333679 187.247641,173.842664 187.882455,173.336267 C188.106002,173.158317 188.324111,172.970474 188.524881,172.767274 C189.275818,172.008242 190.021338,171.241504 190.765774,170.474795 C191.857468,169.352162 192.891629,168.182315 193.707739,166.831203 C193.872686,166.557685 194.053913,166.292946 194.236209,166.030411 C194.833047,165.176893 195.33332,164.268484 195.781504,163.327089 C196.276332,162.285754 196.763604,161.243293 197.045744,160.116274 C197.12279,159.8054 197.225884,159.501135 197.320294,159.195773 C197.363701,159.058465 197.398426,158.91347 197.467878,158.790442 C197.674063,158.424648 197.812968,158.035796 197.900866,157.626078 C197.9204,157.536005 197.944273,157.437141 198.092944,157.423961 C198.142863,157.485475 198.200377,157.556876 198.257891,157.630473 C198.356643,157.755698 198.447797,157.887513 198.554143,158.00504 C198.685451,158.148939 198.853646,158.199469 198.928542,158.13356 C199.03272,158.042388 198.996908,157.924852 198.986057,157.817203 L198.986059,157.817096 Z" id="Shape" stroke="#FFFFFF" fill="#FFFFFF" fill-rule="nonzero" transform="translate(186.500838, 168.501266) scale(-1, 1) rotate(90.000000) translate(-186.500838, -168.501266) "></path>
            <g id="Group-3" transform="translate(114.000000, 79.000000)">
                <rect id="Rectangle-2" fill="#B87088" x="0" y="0" width="44" height="16" rx="3"></rect>
                <text id="DEFINE" font-family="Nunito-Light, Nunito" font-size="9" font-weight="300" letter-spacing="-0.270000011" fill="#FFFFFF">
                    <tspan x="7.41550003" y="11">DEFINE</tspan>
                </text>
            </g>
            <g id="Group-3" transform="translate(180.000000, 137.000000)">
                <rect id="Rectangle-2" fill="#B87088" x="0" y="0" width="44" height="16" rx="3"></rect>
                <text id="IDEATE" font-family="Nunito-Light, Nunito" font-size="9" font-weight="300" letter-spacing="-0.270000011" fill="#FFFFFF">
                    <tspan x="7.74850003" y="11">IDEATE</tspan>
                </text>
            </g>
            <g id="Group-3" transform="translate(114.000000, 191.000000)">
                <rect id="Rectangle-2" fill="#B87088" x="0" y="0" width="44" height="16" rx="3"></rect>
                <text id="BUILD" font-family="Nunito-Light, Nunito" font-size="9" font-weight="300" letter-spacing="-0.270000011" fill="#FFFFFF">
                    <tspan x="9.63400003" y="11">BUILD</tspan>
                </text>
            </g>
            <g id="Group-3" transform="translate(48.000000, 137.000000)">
                <rect id="Rectangle-2" fill="#B87088" x="0" y="0" width="44" height="16" rx="3"></rect>
                <text id="TEST" font-family="Nunito-Light, Nunito" font-size="9" font-weight="300" letter-spacing="-0.270000011" fill="#FFFFFF">
                    <tspan x="12.0055" y="11">TEST</tspan>
                </text>
            </g>
            <g id="np_power-lightbulb_585915_0D2132" transform="translate(111.000000, 25.000000)" fill-rule="nonzero">
                <g id="Group">
                    <path d="M25.2604167,8.01979167 C25.7283542,8.01979167 26.0416667,7.65561458 26.0416667,7.185625 L26.0416667,1.09447917 C26.0416667,0.626541667 25.7283542,0.2603125 25.2604167,0.2603125 C24.7924792,0.2603125 24.4791667,0.624489583 24.4791667,1.09447917 L24.4791667,7.18770833 C24.4791667,7.60478125 24.7924792,8.01984375 25.2604167,8.01984375 L25.2604167,8.01979167 Z" id="Shape" fill="#0D2132"></path>
                    <path d="M48.9052083,23.9583333 L42.8119792,23.9583333 C42.3440417,23.9583333 41.9778125,24.2716458 41.9778125,24.7395833 C41.9778125,25.2075208 42.3419896,25.5208333 42.8119792,25.5208333 L48.9052083,25.5208333 C49.3731458,25.5208333 49.739375,25.2075208 49.739375,24.7395833 C49.739375,24.2716458 49.3751979,23.9583333 48.9052083,23.9583333 Z" id="Shape" fill="#0D2132"></path>
                    <path d="M8.01979167,24.7395833 C8.01979167,24.2716458 7.65561458,23.9583333 7.185625,23.9583333 L1.09447917,23.9583333 C0.626541667,23.9583333 0.2603125,24.2716458 0.2603125,24.7395833 C0.2603125,25.2075208 0.624489583,25.5208333 1.09447917,25.5208333 L7.18770833,25.5208333 C7.65564583,25.5208333 8.01984375,25.2075208 8.01984375,24.7395833 L8.01979167,24.7395833 Z" id="Shape" fill="#0D2132"></path>
                    <path d="M38.0739583,36.5114583 C37.7606458,36.1981458 37.1889583,36.1981458 36.875625,36.5114583 C36.5623125,36.8247708 36.5623125,37.3964583 36.875625,37.7097917 L41.1989583,42.033125 C41.3556146,42.1897812 41.5631354,42.2935417 41.7727083,42.2935417 C41.9802292,42.2935417 42.1897813,42.1897812 42.3464583,42.033125 C42.6597708,41.7198125 42.6597708,41.148125 42.3464583,40.8347917 L38.0739583,36.5114583 Z" id="Shape" fill="#0D2132"></path>
                    <path d="M12.0828125,12.9171875 C12.2394688,13.0738438 12.4469896,13.1776042 12.6565625,13.1776042 C12.8640833,13.1776042 13.0736354,13.0738438 13.2303125,12.9171875 C13.543625,12.603875 13.543625,12.0321875 13.2303125,11.7188542 L8.90697917,7.39552083 C8.59366667,7.08220833 8.02197917,7.08220833 7.70864583,7.39552083 C7.39533333,7.70883333 7.39533333,8.28052083 7.70864583,8.59385417 L12.0828125,12.9171875 Z" id="Shape" fill="#0D2132"></path>
                    <path d="M12.0828125,36.5114583 L7.81239583,40.781875 C7.49908333,41.0951875 7.49908333,41.666875 7.81239583,41.9802083 C7.96905208,42.1368646 8.17657292,42.240625 8.38614583,42.240625 C8.59366667,42.240625 8.80321875,42.1368646 8.95989583,41.9802083 L13.2832292,37.656875 C13.5965417,37.3435625 13.5965417,36.771875 13.2832292,36.4585417 C12.9678802,36.1452292 12.4470313,36.198125 12.0828646,36.5114375 L12.0828125,36.5114583 Z" id="Shape" fill="#0D2132"></path>
                    <path d="M37.5,13.1244792 C37.7075208,13.1244792 37.9170729,13.0207187 38.07375,12.8640625 L42.3970833,8.54072917 C42.7103958,8.22741667 42.7103958,7.65572917 42.3970833,7.34239583 C42.0837708,7.02908333 41.5120833,7.02908333 41.19875,7.34239583 L36.8754167,11.6657292 C36.5621042,11.9790417 36.5621042,12.5507292 36.8754167,12.8640625 C37.0829375,13.0736146 37.2924896,13.1244792 37.5,13.1244792 L37.5,13.1244792 Z" id="Shape" fill="#0D2132"></path>
                    <path d="M25.1036458,10.8338542 C17.3947917,10.8338542 11.1447917,17.0838542 11.1447917,24.7927083 C11.1447917,28.6989583 12.8110417,32.4484375 15.675625,35.1057292 C15.8322812,35.2094896 15.9360417,35.3661458 16.0926979,35.4699063 C17.5514479,36.8249063 18.3326979,38.6986563 18.3326979,40.7313646 C18.3326979,40.7842604 18.3326979,40.8880208 18.3855937,40.9388854 C18.4893542,41.7730521 19.1139271,42.3976354 19.8951771,42.6051354 C19.8422812,42.7617917 19.8422812,42.9184479 19.8422812,43.0730729 L19.8422812,44.0618229 C19.8422812,44.8959896 20.3102188,45.6243229 20.9876979,45.9376563 C20.9348021,46.0943125 20.8839375,46.3018333 20.8839375,46.5114063 L20.8839375,47.5001563 C20.8839375,48.6455729 21.8726875,49.5305729 23.0201875,49.5305729 L27.2906042,49.5305729 C28.4360208,49.5305729 29.7381042,48.6455729 29.7381042,47.5001563 L29.7381042,46.5114063 C29.7381042,46.3038854 29.6852083,46.1472292 29.6343437,45.9376563 C30.3626771,45.6243438 30.7797604,44.8959896 30.7797604,44.0618229 L30.7797604,43.0730729 C30.7797604,42.9164167 30.5722396,42.7597604 30.5722396,42.6051354 C31.3534896,42.3976146 31.8743229,41.7201354 31.9780729,40.9388854 L31.9780729,40.7313646 C31.9780729,38.7517813 32.7593229,36.8780313 34.2180729,35.5230313 C34.3747292,35.4192708 34.4784896,35.3155104 34.58225,35.1588542 C37.4468333,32.5017708 39.1130833,28.7520833 39.1130833,24.8458333 C39.0622208,17.084375 32.8120417,10.834375 25.1037083,10.834375 L25.1036458,10.8338542 Z M27.6040625,47.0317708 C27.6040625,47.2392917 27.4474062,47.3959479 27.2398854,47.3959479 L22.7598854,47.3959479 C22.5523646,47.3959479 22.3957083,47.2392917 22.3957083,47.0317708 L22.3957083,46.1976042 C22.3957083,45.9900833 22.5523646,45.8334271 22.7598854,45.8334271 L27.2398854,45.8334271 C27.4474062,45.8334271 27.6040625,45.9900833 27.6040625,46.1976042 L27.6040625,47.0317708 Z M29.1665625,44.0634375 C29.1665625,44.2709583 28.5419792,44.7917708 28.3323958,44.7917708 L21.8751042,44.7917708 C21.6675833,44.7917708 21.3542708,44.2180208 21.3542708,44.0634375 L21.3542708,43.0746875 C21.3542708,42.8671667 21.6675833,42.761375 21.8751042,42.761375 L28.3323958,42.761375 C28.5399167,42.761375 29.1665625,42.8651354 29.1665625,43.0746875 L29.1665625,44.0634375 Z M30.2082292,40.6251042 C30.2082292,40.832625 30.0007083,41.1459375 29.8440521,41.1459375 L20.4159271,41.1459375 C20.2084063,41.1459375 19.8421771,40.832625 19.8421771,40.6251042 L19.8421771,39.6363542 C19.8421771,39.4288333 20.2063542,39.0626042 20.4159271,39.0626042 L29.8440521,39.0626042 C30.0515729,39.0626042 30.2082292,39.4267813 30.2082292,39.6363542 L30.2082292,40.6251042 Z M19.4275,37.5001042 C18.9066667,36.0942708 18.0216667,34.8430208 16.8233333,33.8542708 C14.2720833,31.5105208 12.8641667,28.22875 12.8641667,24.7928125 C12.8641667,18.0219792 18.3860417,12.5001042 25.156875,12.5001042 C31.9277083,12.5001042 37.4495833,18.0219792 37.4495833,24.7928125 C37.4495833,28.2311458 35.9908333,31.5105208 33.4904167,33.8542708 C32.2920833,34.8430208 31.4070833,36.0942708 30.8333333,37.5001042 L19.4275,37.5001042 Z" id="Shape" fill="#0D2132"></path>
                    <polygon id="Shape" fill="#B70303" points="29.6875 34.375 25.6775 26.3552083 29.48 26.3552083 20.3122917 15.625 24.3222917 23.6447917 20.5197917 23.6447917"></polygon>
                </g>
            </g>
        </g>
    </g>
</svg>