<?xml version="1.0" encoding="UTF-8"?>
<svg width="214px" height="214px" viewBox="0 0 214 214" version="1.1" xmlns="http://www.w3.org/2000/svg" xmlns:xlink="http://www.w3.org/1999/xlink">
    <!-- Generator: Sketch 42 (36781) - http://www.bohemiancoding.com/sketch -->
    <title>Home Page &gt; Reduce Development Costs</title>
    <desc>Created with Sketch.</desc>
    <defs></defs>
    <g id="Page-1" stroke="none" stroke-width="1" fill="none" fill-rule="evenodd">
        <g id="Home-Page-&gt;-Reduce-Development-Costs" fill-rule="nonzero">
            <g id="Group-2" transform="translate(0.000000, 12.000000)">
                <g id="np_maintenance_338635_70B3B8">
                    <g id="Group">
                        <path d="M96.0245442,88.9756364 C97.1809594,88.9756364 98.2343458,88.2989846 98.7037648,87.2324072 C99.1732132,86.1772801 98.9785574,84.9386846 98.2114244,84.0785937 L82.4223541,66.462804 C81.3918892,65.3044777 79.6400753,65.1553894 78.4263567,66.1187383 L64.4120802,77.2319528 L35.8679432,77.2319528 C34.9290758,77.2319528 34.0359925,77.6906973 33.4864073,78.459098 L25.0937281,90.2029578 C24.3494871,91.2466053 24.3609478,92.6572484 25.1395269,93.6894162 L34.0360658,105.433276 C34.5971117,106.155788 35.4558422,106.591602 36.3718176,106.591602 L64.4120949,106.591602 L78.4149399,117.704817 C78.9530645,118.129152 79.5942472,118.335579 80.23543,118.335579 C81.0369157,118.335579 81.8384015,118.002993 82.4223101,117.360751 L98.2113804,99.7449613 C98.9899741,98.8848117 99.1846006,97.6462162 98.7037208,96.5911478 C98.2228411,95.5245705 97.1694548,94.8479186 96.0245002,94.8479186 L83.1665511,94.8479186 L83.1665511,88.9759887 L96.0245442,88.9756364 Z M80.2354739,100.719496 L89.4523844,100.719496 L79.8919465,111.38527 L67.2514866,101.361592 C66.7362541,100.948736 66.0950714,100.719349 65.4309966,100.719349 L37.8256976,100.719349 L31.1160682,91.8542032 L37.3789948,83.1035597 L65.4307035,83.1035597 C66.0947783,83.1035597 66.735961,82.8741875 67.2511935,82.472797 L79.8916534,72.4491191 L89.4520913,83.1034423 L80.2351808,83.1034423 C78.6207779,83.1034423 77.3040597,84.4223364 77.3040597,86.0394072 L77.3040597,97.783267 C77.3040597,99.4003378 78.6207779,100.719232 80.2351808,100.719232 L80.2354739,100.719496 Z" id="Shape" fill="#4A4A4A" transform="translate(61.755060, 91.909998) rotate(-25.000000) translate(-61.755060, -91.909998) "></path>
                        <path d="M50.9233832,94.8493899 L45.0611409,94.8493899 C43.446738,94.8493899 42.1300197,96.1682841 42.1300197,97.7853549 C42.1300197,99.4139053 43.446738,100.72132 45.0611409,100.72132 L50.9233832,100.72132 C52.5377861,100.72132 53.8545043,99.4139053 53.8545043,97.7853549 C53.8545043,96.1682841 52.5377861,94.8493899 50.9233832,94.8493899 Z" id="Shape" fill="#4A4A4A" transform="translate(47.992262, 97.785355) rotate(-25.000000) translate(-47.992262, -97.785355) "></path>
                        <path d="M209.82533,0 L3.88565426,0 C1.74551361,0 0,1.74839814 0,3.89207547 L0,147.898868 C0,150.042545 1.74551361,151.790943 3.88565426,151.790943 L101.027011,151.790943 L101.027011,183.064548 L46.2043148,183.064548 C44.0641742,183.064548 42.3186606,184.797728 42.3186606,186.956624 C42.3186606,189.100301 44.0641742,190.848699 46.2043148,190.848699 L163.624901,190.848699 C165.765042,190.848699 167.510555,189.100301 167.510555,186.956624 C167.510555,184.797728 165.765042,183.064548 163.624901,183.064548 L108.802205,183.064548 L108.802205,151.790943 L209.829216,151.790943 C211.969356,151.790943 213.71487,150.042545 213.71487,147.898868 L213.71487,3.89207547 C213.71487,1.74839814 211.969356,0 209.829216,0 L209.82533,0 Z M205.939676,7.78415094 L205.939676,23.3524528 L7.77130852,23.3524528 L7.77130852,7.78415094 L205.939676,7.78415094 Z M7.77130852,144.006792 L7.77130852,31.1366038 L205.939676,31.1366038 L205.939676,144.006792 L7.77130852,144.006792 Z" id="Shape" fill="#70B3B8"></path>
                        <path d="M23.3139256,15.5683019 C23.3139256,20.7525464 15.542617,20.7525464 15.542617,15.5683019 C15.542617,10.3840574 23.3139256,10.3840574 23.3139256,15.5683019" id="Shape" fill="#D0011B"></path>
                        <path d="M38.042617,15.5683019 C38.042617,20.7525464 30.2713085,20.7525464 30.2713085,15.5683019 C30.2713085,10.3840574 38.042617,10.3840574 38.042617,15.5683019" id="Shape" fill="#F8E81C"></path>
                        <path d="M52.7713085,15.5683019 C52.7713085,20.7525464 45,20.7525464 45,15.5683019 C45,10.3840574 52.7713085,10.3840574 52.7713085,15.5683019" id="Shape" fill="#7ED321"></path>
                    </g>
                </g>
                <g id="np_discount-tag_115154_70B3B8" transform="translate(120.000000, 44.000000)" fill="#4A4A4A">
                    <g id="Group">
                        <polygon id="Shape" points="15.0329643 53.0941778 15.0329643 74 45.3839286 74 45.3839286 47.8105778"></polygon>
                        <path d="M37.6288214,18.2237333 L20.4042857,12.5741622 L8.31039286,26.0865622 L14.6892786,49.9120956 L42.6400286,36.9456511 L37.6288214,18.2237333 Z M22.8110714,21.5575978 C21.4890643,21.9108984 20.1318179,21.1272138 19.7756464,19.8039622 C19.4226868,18.4806778 20.205615,17.12212 21.5275893,16.7656044 C22.8495964,16.4123038 24.2068429,17.1959884 24.5630143,18.51924 C24.9159739,19.8425244 24.1330457,21.2010822 22.8110714,21.5575978 Z" id="Shape"></path>
                        <path d="M19.5795714,10.9750222 C19.5795714,10.9750222 9.80292857,2.96797556 0.616071429,3.26348222 L5.06016429,0.000246666667 C5.06016429,0.000246666667 12.1739,0.594433778 19.5797357,10.9752689 L19.5795714,10.9750222 Z" id="Shape"></path>
                    </g>
                </g>
            </g>
        </g>
    </g>
</svg>