<?xml version="1.0" encoding="UTF-8"?>
<svg width="193px" height="193px" viewBox="0 0 193 193" version="1.1" xmlns="http://www.w3.org/2000/svg" xmlns:xlink="http://www.w3.org/1999/xlink">
    <!-- Generator: Sketch 42 (36781) - http://www.bohemiancoding.com/sketch -->
    <title>Home Page &gt; Brand Loyalty Icon</title>
    <desc>Created with Sketch.</desc>
    <defs></defs>
    <g id="Page-1" stroke="none" stroke-width="1" fill="none" fill-rule="evenodd">
        <g id="Home-Page-&gt;-Brand-Loyalty-Icon" fill-rule="nonzero">
            <g id="Group-2" transform="translate(18.000000, 0.000000)">
                <g id="np_fidelity_601079_70B3B8" fill="#70B3B8">
                    <g id="Group">
                        <path d="M78.7252785,192.308342 C77.8917075,192.308342 77.0497301,192.148078 76.2499141,191.81068 C76.2078131,191.793809 76.1572949,191.768506 76.115196,191.768506 C25.3103024,171.819908 0.606234212,147.130703 0.606234212,116.284583 L0.606234212,21.7034882 C0.606234212,19.7550326 1.48190193,17.916228 2.98912814,16.6847585 C4.49628969,15.4532673 6.46657977,14.9640481 8.37785254,15.3604806 C16.477752,17.0221548 27.331074,17.1233845 38.166721,15.6050903 C56.1853221,13.0661425 69.1173985,7.0351159 74.0189822,2.13450189 C75.9050357,0.186046267 78.3047425,-0.336858641 81.2265089,0.574035834 C82.1442733,0.95360399 82.9357476,1.52718852 83.5671552,2.23570999 C88.5517253,7.11948117 101.425819,13.0829206 119.32673,15.6050255 C130.154618,17.1233197 141.015268,17.030533 149.106977,15.3604159 C151.001458,14.9724047 152.988583,15.4532004 154.495701,16.6846937 C156.002863,17.9161849 156.878595,19.7550542 156.878595,21.7034234 L156.878595,116.275881 C156.878595,147.147913 132.148661,171.835607 81.2941912,191.785716 C81.2773504,191.79415 81.2520902,191.802587 81.2352515,191.811021 C80.7384758,192.021893 80.2248657,192.15686 79.7028276,192.232761 C79.3744603,192.283369 79.0544994,192.308675 78.7261321,192.308675 C77.8925611,192.308675 79.0544994,192.308675 78.7261321,192.308675 L78.7252785,192.308342 Z M6.92610114,21.690755 L6.92610114,116.792298 C6.92610114,143.57233 30.2292502,165.942089 78.1322602,185.139752 C126.045629,165.940674 149.338419,143.57233 149.338419,116.792298 L149.347617,21.690755 C140.611291,22.5475274 130.587198,22.2619445 120.489418,20.8431806 C103.274082,18.42036 87.7867546,12.9756764 78.1320413,6.13975182 C68.4759154,12.9662427 52.988823,18.4201242 35.7746646,20.8339827 C25.6863014,22.2711659 15.6624443,22.5475274 6.9258822,21.690755 L6.92610114,21.690755 Z" id="Shape"></path>
                    </g>
                </g>
                <g id="np_users_847322_70B3B8" transform="translate(34.000000, 67.000000)" fill-opacity="0.75" fill="#0D2132">
                    <path d="M22,0 C15.9609,0 11,4.9609 11,11 C11,17.0391 15.9609,22 22,22 C26.4453,22 30.3008,19.3242 32.031,15.5 C32.30053,22.4102 38.0271,28 45,28 C51.9729,28 57.699,22.4102 57.969,15.5 C59.6995,19.3242 63.5549,22 68,22 C74.0391,22 79,17.0391 79,11 C79,4.9609 74.0391,0 68,0 C62.2344,0 57.449,4.5195 57.031,10.188 C55.1013,5.4146 50.4372,2.0005 45,2.0005 C39.5628,2.0005 34.898,5.4146 32.969,10.188 C32.55103,4.52 27.7659,0 22,0 Z M22,6 C24.7969,6 27,8.2031 27,11 C27,13.7969 24.7969,16 22,16 C19.2031,16 17,13.7969 17,11 C17,8.2031 19.2031,6 22,6 Z M68,6 C70.7969,6 73,8.2031 73,11 C73,13.7969 70.7969,16 68,16 C65.2031,16 63,13.7969 63,11 C63,8.2031 65.2031,6 68,6 Z M45,8 C48.9023,8 52,11.0977 52,15 C52,18.9023 48.9023,22 45,22 C41.0977,22 38,18.9023 38,15 C38,11.0977 41.0977,8 45,8 Z M22,23 C16.2773,23 11.074,24.2812 7.062,26.5938 C3.05,28.9064 -0.0005,32.5469 -0.0005,36.9998 L-0.0005,46.9998 C-0.0005,48.5701 1.4292,49.9998 2.9995,49.9998 L20.9995,49.9998 L20.9995,56.9998 C20.9995,58.5701 22.4292,59.9998 23.9995,59.9998 L65.9995,59.9998 C67.5698,59.9998 68.9995,58.5701 68.9995,56.9998 L68.9995,49.9998 L86.9995,49.9998 C88.5698,49.9998 89.9995,48.5701 89.9995,46.9998 L89.9995,36.9998 C89.9995,32.5467 86.9487,28.906 82.937,26.5938 C78.9253,24.2816 73.7222,23 67.999,23 C59.8154,23 52.561,25.4141 48.655,30.1875 C47.4558,30.08594 46.2488,30 44.9988,30 C43.7488,30 42.5418,30.085938 41.3426,30.1875 C37.4364,25.4102 30.1826,23 21.9986,23 L22,23 Z M22,29 C26.6367,29 30.707,30.1562 33.562,31.6875 C31.7964,32.25391 30.144,32.9414 28.6558,33.7813 C24.273,36.2501 20.9996,38.1954 20.9996,43.0001 L20.9996,44.0001 L5.9996,44.0001 L5.9996,37.0001 C5.9996,35.3009 7.2066,33.4298 10.0621,31.7813 C12.9176,30.1328 17.1949,29.0001 22.0001,29.0001 L22,29 Z M68,29 C72.8047,29 77.082,30.1328 79.938,31.7812 C82.794,33.4296 84.0005,35.3007 84.0005,37 L84.0005,44 L69.0005,44 L69.0005,43 C69.0005,38.1953 65.7271,36.25 61.3443,33.7812 C59.856,32.94136 58.2037,32.2539 56.4381,31.6874 C59.2936,30.1562 63.3639,28.9999 68.0001,28.9999 L68,29 Z M45,36 C50.3789,36 55.164,37.2227 58.375,39.0312 C61.586,40.8397 63,40.9101 63,43 L63,54 L27,54 L27,43 C27,40.9102 28.4141,40.8398 31.625,39.0312 C34.8359,37.2226 39.6211,36 45,36 Z" id="Shape"></path>
                </g>
            </g>
        </g>
    </g>
</svg>