<svg xmlns="http://www.w3.org/2000/svg" width="42" height="42" viewBox="0 0 42 42">
  <defs>
    <style>
      .cls-1 {
        fill-rule: evenodd;
      }
    </style>
  </defs>
  <path id="Stats_"  fill="#70B3B8" data-name="Stats " class="cls-1" d="M987.776,1286H954.138c-2.235,0-4.138-2.23-4.138-5v-36a1.075,1.075,0,0,1,1.08-1,0.938,0.938,0,0,1,.92,1v15.55c1.886-2.71,3.889-3.38,5.04-3.53a5.028,5.028,0,0,1,9.871.1c1.9,0.41,4.8,1.89,6.8,6.96,0.043,0.12,2.941,8.28,7.676,8.88,2.663,0.34,5.564-1.81,8.613-6.4V1245a1,1,0,0,1,2,0v36C992,1283.77,990.011,1286,987.776,1286ZM962,1255a3,3,0,1,0,3,3A3.013,3.013,0,0,0,962,1255Zm19.937,20a7.212,7.212,0,0,1-.8-0.05c-5.952-.76-9.152-9.79-9.285-10.17-1.55-3.93-3.665-5.2-5-5.61A5.016,5.016,0,0,1,962,1263a5.156,5.156,0,0,1-4.884-3.92c-1.2.27-3.383,1.38-5.113,5.75h0V1281c0,1.64,1.019,3,2.138,3h33.638c1.119,0,2.224-1.36,2.224-3v-11.08C987.309,1273.28,984.607,1275,981.937,1275Z" transform="translate(-950 -1244)"/>
</svg>
