<?xml version="1.0" encoding="UTF-8"?>
<svg width="272px" height="227px" viewBox="0 0 272 227" version="1.1" xmlns="http://www.w3.org/2000/svg" xmlns:xlink="http://www.w3.org/1999/xlink" style="background: #183C5A;">
    <!-- Generator: Sketch 42 (36781) - http://www.bohemiancoding.com/sketch -->
    <title>Home Page &gt; Team Assistance</title>
    <desc>Created with Sketch.</desc>
    <defs></defs>
    <g id="Page-1" stroke="none" stroke-width="1" fill="none" fill-rule="evenodd">
        <g id="Home-Page-&gt;-Team-Assistance">
            <g id="Group-2" transform="translate(152.000000, 61.000000)">
                <circle id="Oval" stroke="#4990E2" stroke-width="2" fill="#FFFFFF" cx="50" cy="50" r="50"></circle>
                <g id="np_working-team_879353_FFFFFF" transform="translate(15.000000, 17.000000)" fill-rule="nonzero" fill="#0D2132">
                    <g id="Group">
                        <path d="M0.456842105,49.6374375 L1.26636447,47.5163875 L9.52341711,25.7767312 L60.4797329,25.7767312 L60.8575118,26.7886734 L69.5319855,49.6373453 L53.9100118,49.6373453 C54.3813329,48.4778109 54.4496934,47.1922562 53.8560437,45.9930812 L53.8560437,45.614965 C53.8416522,44.1420853 53.3847226,42.7665556 52.3737016,41.7005916 C51.4022674,40.6598869 50.0926226,40.0945009 48.7038595,39.9036728 C47.9087332,39.7956383 46.9625174,39.7956383 46.1817411,39.9036728 C44.7929779,40.0909241 43.4833332,40.6598961 42.5118989,41.7005916 C41.5008595,42.7809369 41.0403332,44.1565587 41.0295568,45.6293462 L41.0295568,46.0074625 C40.4215147,47.2102328 40.5042713,48.4778109 40.9611972,49.6517266 L29.074092,49.6517266 C29.545413,48.4921922 29.6137736,47.2066375 29.0201238,46.0074625 L29.0201238,45.6293462 C29.0057333,44.1564666 28.5488028,42.7809369 27.5377817,41.7149728 C26.5663475,40.6742681 25.2567028,40.1088822 23.8679396,39.9180541 C23.0728133,39.8100195 22.1265975,39.8100195 21.3458212,39.9180541 C19.957058,40.1053053 18.6474133,40.6742773 17.6759791,41.7149728 C16.6649396,42.7953181 16.2044133,44.17094 16.193637,45.6437275 L16.193637,46.0218437 C15.5855949,47.2246141 15.6683514,48.4921922 16.1252774,49.6661078 L0.435145789,49.6661078 L0.456842105,49.6374375 Z" id="Shape"></path>
                        <path d="M17.2660526,46.233875 C17.2516612,46.0322148 17.2408674,45.8305547 17.2408674,45.62529 C17.2552588,44.30369 17.6870068,43.2089634 18.4425647,42.3987275 C19.1837266,41.6028912 20.2378805,41.1023869 21.4899595,40.9258478 C21.8389555,40.8718324 22.2167253,40.8574272 22.6088542,40.8574272 L22.6232457,40.8574272 L22.7023991,40.8574272 C23.065782,40.8574272 23.4039833,40.8826349 23.7421754,40.9258478 C24.9978464,41.1023039 26.0483991,41.5992498 26.7895701,42.3987275 C27.5451188,43.2089727 27.9768991,44.2893087 27.9912675,45.62529 C27.9912675,45.8269502 27.9912675,46.0286103 27.9660822,46.233875 C29.1677796,48.2036453 27.642277,50.2562922 27.1025954,50.8936766 C26.6564559,52.2585125 25.900898,53.2416 24.9978059,53.8501297 C24.2566441,54.3506802 23.4327533,54.606353 22.6232401,54.606353 C21.7993309,54.606353 20.978977,54.3506802 20.2486743,53.8501297 C19.3456099,53.2415447 18.5900428,52.2440391 18.1438849,50.8936766 C17.5898164,50.2598875 16.0787007,48.2072406 17.280398,46.233875 L17.2660526,46.233875 Z" id="Shape"></path>
                        <path d="M22.5805263,63.6960312 L22.5661349,63.6960312 L22.4869814,63.6960312 C21.7458196,63.6960312 16.6584683,63.6564192 12.801192,62.1979844 L13.1645749,61.2256828 L12.801192,62.1979844 C12.3550525,62.0359372 12.0852209,61.5893994 12.1283907,61.1321125 C12.1427821,60.4839237 12.2902933,57.0016516 14.6648775,55.7448594 L14.6900628,55.7304551 C14.7044542,55.7304551 14.7044542,55.7160508 14.7152471,55.7160508 L17.7626418,54.0271758 C18.1799892,53.796707 18.6944708,53.8795283 19.0183129,54.214427 C20.0580892,55.1578739 21.338905,55.6188114 22.6053524,55.6332848 C23.9005366,55.6332848 25.1958129,55.161543 26.2463655,54.2036411 C26.5953616,53.8795467 27.1242392,53.8543334 27.5020366,54.0956066 L30.4954576,55.7413378 C30.5098491,55.7557421 30.5350343,55.7665456 30.5494258,55.7809489 C33.1110574,57.1998067 33.0175705,61.2221317 33.0175705,61.2366052 L31.9777942,61.2222009 L33.0175705,61.2366052 C33.0031791,61.7083471 32.6793692,62.1152627 32.2476258,62.223288 C28.1604547,63.7213349 22.7884153,63.6816942 22.5618363,63.6816942 L22.5805263,63.6960312 Z M14.2442632,60.4946359 C17.6694737,61.5749812 21.8249868,61.6145297 22.4869474,61.6145297 L22.5948855,61.6145297 C22.6740389,61.6145297 27.2361618,61.6685451 30.9311487,60.4946359 C30.8519962,59.6051741 30.5533697,58.1467125 29.5819908,57.6065859 C29.5568055,57.5921816 29.5280226,57.5813791 29.5136312,57.5669739 L27.0707233,56.2166114 C25.7359338,57.2140801 24.1708812,57.7146583 22.6057364,57.700277 C21.0406838,57.700277 19.4756312,57.1889222 18.1552101,56.1878489 L15.7266707,57.5238301 C15.7014854,57.5382335 15.6727025,57.549037 15.6475172,57.5634413 L15.1761962,56.6307803 L15.6475172,57.5490508 C14.6364778,58.0748053 14.3378725,59.562057 14.2443857,60.4659555 L14.2442632,60.4946359 Z" id="Shape"></path>
                        <path d="M17.2660526,46.233875 C17.2516612,46.0322148 17.2408674,45.8305547 17.2408674,45.62529 C17.2552588,44.30369 17.6870068,43.2089634 18.4425647,42.3987275 C19.1837266,41.6028912 20.2378805,41.1023869 21.4899595,40.9258478 C21.8389555,40.8718324 22.2167253,40.8574272 22.6088542,40.8574272 L22.6232457,40.8574272 L22.7023991,40.8574272 C23.065782,40.8574272 23.4039833,40.8826349 23.7421754,40.9258478 C24.9978464,41.1023039 26.0483991,41.5992498 26.7895701,42.3987275 C27.5451188,43.2089727 27.9768991,44.2893087 27.9912675,45.62529 C27.9912675,45.8269502 27.9912675,46.0286103 27.9660822,46.233875 C29.1677796,48.2036453 27.642277,50.2562922 27.1025954,50.8936766 C26.6564559,52.2585125 25.900898,53.2416 24.9978059,53.8501297 C24.2566441,54.3506802 23.4327533,54.606353 22.6232401,54.606353 C21.7993309,54.606353 20.978977,54.3506802 20.2486743,53.8501297 C19.3456099,53.2415447 18.5900428,52.2440391 18.1438849,50.8936766 C17.5898164,50.2598875 16.0787007,48.2072406 17.280398,46.233875 L17.2660526,46.233875 Z" id="Shape"></path>
                        <path d="M22.5805263,63.6960313 L22.5661349,63.6960313 L22.4869814,63.6960313 C21.7458196,63.6960313 16.6584683,63.6564192 12.801192,62.1979844 L13.1645749,61.2256828 L12.801192,62.1979844 C12.3550525,62.0359372 12.0852209,61.5893994 12.1283907,61.1321125 C12.1427821,60.4839238 12.2902933,57.0016516 14.6648775,55.7448594 L14.6900628,55.7304551 C14.7044542,55.7304551 14.7044542,55.7160508 14.7152471,55.7160508 L17.7626418,54.0271758 C17.9497261,53.9191413 18.1548076,53.8795283 18.3562879,53.9047416 C18.6944892,54.2828578 19.0830537,54.6321563 19.5040116,54.9166838 C20.4214629,55.5360731 21.5008537,55.8889853 22.6197484,55.8889853 C23.7386432,55.8889853 24.8036563,55.5396777 25.7354853,54.9166838 C26.1528326,54.6322023 26.5306116,54.2973036 26.8688405,53.919215 C27.0991037,53.9048107 27.31498,53.958827 27.5164511,54.0812622 L30.5098721,55.7269934 C30.5242636,55.7413977 30.5494488,55.7522003 30.5638403,55.7666055 C33.1254718,57.1854633 33.031985,61.2077883 33.031985,61.2222617 L31.9922087,61.2078574 L33.031985,61.2222617 C33.0175936,61.6940036 32.6937837,62.1009192 32.2620403,62.2089445 C28.1748692,63.7069914 22.8028297,63.6673508 22.5762508,63.6673508 L22.5805263,63.6960313 Z" id="Shape"></path>
                        <path d="M17.5211842,6.21159375 C17.5067918,6.00993359 17.4959989,5.80827344 17.4959989,5.60300875 C17.5103904,4.28140875 17.9421384,3.18668219 18.6976963,2.37644625 C19.4388582,1.58061 20.4930121,1.08010562 21.7450911,0.903566562 C22.0940871,0.849550219 22.4718568,0.835145922 22.8639858,0.835145922 L22.8783772,0.835145922 L22.9575297,0.835145922 C23.3209126,0.835145922 23.6591139,0.860353672 23.9973061,0.903566562 C25.2529771,1.08002266 26.3035297,1.57696859 27.0447008,2.37644625 C27.8002495,3.18669141 28.2320297,4.2670275 28.2463982,5.60300875 C28.2463982,5.80466891 28.2463982,6.00632906 28.2212129,6.21159375 C29.4229103,8.18136406 27.8974076,10.2340109 27.3577261,10.8713953 C26.9115866,12.2362312 26.1560287,13.2193187 25.2529366,13.8278484 C24.5117747,14.3283989 23.6878839,14.5840717 22.8783708,14.5840717 C22.0544616,14.5840717 21.2341076,14.3283989 20.503805,13.8278484 C19.6007405,13.2192634 18.8451734,12.2217578 18.3990155,10.8713953 C17.8449471,10.2376062 16.3338313,8.18495937 17.5355287,6.21159375 L17.5211842,6.21159375 Z" id="Shape"></path>
                        <path d="M22.8393421,23.6700625 L22.8249507,23.6700625 L22.7457972,23.6700625 C22.0046354,23.6700625 16.9172841,23.6304505 13.0600078,22.1720156 C12.6138683,22.0099684 12.3440367,21.5634306 12.3872064,21.1061438 C12.4015979,20.457955 12.5491091,16.9756828 14.9236933,15.7188906 L14.9488786,15.7044863 C14.96327,15.7044863 14.96327,15.690082 14.9740629,15.690082 L18.0214576,14.001207 C18.2085418,13.8931725 18.4136234,13.8535595 18.6151037,13.8787728 C18.953305,14.2568891 19.3310747,14.6061875 19.7628274,14.890715 C20.6802787,15.5101044 21.7596695,15.8630166 22.8785642,15.8630166 C23.9974589,15.8630166 25.0624721,15.5137089 25.9943011,14.890715 C26.4116484,14.6062336 26.7894274,14.2713256 27.1276563,13.8932463 C27.3579195,13.8788429 27.5737958,13.9328583 27.7752668,14.0552934 L30.7686879,15.7010247 C30.7830793,15.715429 30.8082646,15.7262324 30.8226561,15.7406367 C33.3842876,17.1594945 33.2908008,21.1818195 33.2908008,21.196293 C33.2764093,21.6680349 32.9525995,22.0749505 32.5208561,22.1829758 C28.433685,23.6810227 23.0616455,23.641382 22.8350666,23.641382 L22.8393421,23.6700625 Z" id="Shape"></path>
                        <path d="M42.0911842,46.233875 C42.0767928,46.0322148 42.0659989,45.8305547 42.0659989,45.62529 C42.0803904,44.30369 42.5121384,43.2089634 43.2676963,42.3987275 C44.0088582,41.6028912 45.0630121,41.1023869 46.3150911,40.9258478 C46.9770976,40.8322222 47.8801437,40.8322222 48.5529726,40.9258478 C49.8086437,41.1023039 50.8591963,41.5992498 51.6003674,42.3987275 C52.3559161,43.2089727 52.7876963,44.2893087 52.8020647,45.62529 C52.8020647,45.8269502 52.8020647,46.0286103 52.7768795,46.233875 C53.9785768,48.2036453 52.4530742,50.2562922 51.9133926,50.8936766 C51.4672532,52.2585125 50.7116953,53.2416 49.8086032,53.8501297 C49.0674413,54.3506802 48.2435505,54.606353 47.4340374,54.606353 C46.6101282,54.606353 45.7897742,54.3506802 45.0594716,53.8501297 C44.1564071,53.2415447 43.40084,52.2440391 42.9546821,50.8936766 C42.4006137,50.2598875 40.8894979,48.2072406 42.0911953,46.233875 L42.0911842,46.233875 Z" id="Shape"></path>
                        <path d="M47.4056579,63.6960313 L47.3912664,63.6960313 L47.3121139,63.6960313 C46.5709521,63.6960313 41.4836008,63.6564192 37.6263245,62.1979844 L37.9897074,61.2256828 L37.6263245,62.1979844 C37.1801942,62.0359372 36.9103534,61.5893994 36.9535232,61.1321125 C36.9679146,60.4839238 37.1154258,57.0016516 39.49001,55.7448594 L39.5151953,55.7304551 C39.5295867,55.7304551 39.5295867,55.7160508 39.5403805,55.7160508 L42.5877753,54.0271758 C42.7748595,53.9191413 42.9799411,53.8795283 43.1814213,53.9047416 C43.5196226,54.2828578 43.8973924,54.6321563 44.329145,54.9166838 C45.2465963,55.5360731 46.3259871,55.8889853 47.4448818,55.8889853 C48.5637766,55.8889853 49.6287897,55.5396777 50.5606187,54.9166838 C50.9779661,54.6322023 51.355745,54.2973036 51.6939739,53.919215 C51.9242371,53.9048107 52.1401134,53.958827 52.3415845,54.0812622 L55.3350055,55.7269934 C55.349397,55.7413977 55.3745822,55.7522003 55.3889737,55.7666055 C57.9506053,57.1854633 57.8571184,61.2077883 57.8571184,61.2222617 L56.8173421,61.2078574 L57.8571184,61.2222617 C57.842727,61.6940036 57.5189171,62.1009192 57.0871737,62.2089445 C53.0000026,63.7069914 47.6279632,63.6673508 47.4013842,63.6673508 L47.4056579,63.6960313 Z" id="Shape"></path>
                        <path d="M42.2781579,6.21159375 C42.2637664,6.00993359 42.2529726,5.80827344 42.2529726,5.60300875 C42.2673641,4.28140875 42.6991121,3.18668219 43.45467,2.37644625 C44.1958318,1.58061 45.2499858,1.08010562 46.5020647,0.903566562 C46.8510608,0.849550219 47.2288305,0.835145922 47.6209595,0.835145922 L47.6353509,0.835145922 L47.7145043,0.835145922 C48.0778872,0.835145922 48.4160886,0.860353672 48.7542807,0.903566562 C50.0099517,1.08002266 51.0605043,1.57696859 51.8016754,2.37644625 C52.5572241,3.18669141 52.9890043,4.2670275 53.0033728,5.60300875 C53.0033728,5.80466891 53.0033728,6.00632906 52.9781875,6.21159375 C54.1798849,8.18136406 52.6543822,10.2340109 52.1147007,10.8713953 C51.6685612,12.2362312 50.9130033,13.2193187 50.0099112,13.8278484 C49.2687493,14.3283989 48.4448586,14.5840717 47.6353454,14.5840717 C46.8114362,14.5840717 45.9910822,14.3283989 45.2607796,13.8278484 C44.3577151,13.2192634 43.602148,12.2217578 43.1559901,10.8713953 C42.6019217,10.2376062 41.0908059,8.18495937 42.2925033,6.21159375 L42.2781579,6.21159375 Z" id="Shape"></path>
                        <path d="M47.5926316,23.6700625 L47.5782401,23.6700625 L47.4990867,23.6700625 C46.7579249,23.6700625 41.6705736,23.6304505 37.8132972,22.1720156 C37.3671578,22.0099684 37.0973262,21.5634306 37.1404959,21.1061438 C37.1548874,20.457955 37.3023986,16.9756828 39.6769828,15.7188906 L39.702168,15.7044863 C39.7165595,15.7044863 39.7165595,15.690082 39.7273524,15.690082 L42.7747471,14.001207 C42.9618313,13.8931725 43.1669129,13.8535595 43.3683932,13.8787728 C43.7065945,14.2568891 44.0951589,14.6061875 44.5161168,14.890715 C45.4335682,15.5101044 46.5129589,15.8630166 47.6318537,15.8630166 C48.7507484,15.8630166 49.8157616,15.5137089 50.7475905,14.890715 C51.1649379,14.6062336 51.5427168,14.2713256 51.8809458,13.8932463 C52.1112089,13.8788429 52.3270853,13.9328583 52.5285563,14.0552934 L55.5219774,15.7010247 C55.5363688,15.715429 55.5615541,15.7262324 55.5759455,15.7406367 C58.1375771,17.1594945 58.0440903,21.1818195 58.0440903,21.196293 C58.0296988,21.6680349 57.7058889,22.0749505 57.2741455,22.1829758 C53.1869745,23.6810227 47.814935,23.641382 47.5883561,23.641382 L47.5926316,23.6700625 Z" id="Shape"></path>
                    </g>
                </g>
                <g id="Group-3" transform="translate(21.000000, 89.000000)">
                    <rect id="Rectangle-2" fill="#4990E2" x="0" y="0" width="58" height="16" rx="3"></rect>
                    <text id="YOUR-TEAM" font-family="Nunito-Light, Nunito" font-size="9" font-weight="300" letter-spacing="-0.270000011" fill="#FFFFFF">
                        <tspan x="4.69550005" y="11">YOUR TEAM</tspan>
                    </text>
                </g>
            </g>
            <g id="Group-7" transform="translate(66.000000, 15.000000)">
                <g id="Group-2">
                    <circle id="Oval" stroke="#4990E2" stroke-width="2" fill="#FFFFFF" cx="30" cy="30" r="30"></circle>
                    <g id="Group-3" transform="translate(7.000000, 49.000000)">
                        <rect id="Rectangle-2" fill="#4990E2" x="0" y="0" width="47" height="16" rx="3"></rect>
                        <text id="DESIGN" font-family="Nunito-Light, Nunito" font-size="9" font-weight="300" letter-spacing="-0.270000011" fill="#FFFFFF">
                            <tspan x="8.08750003" y="11">DESIGN</tspan>
                        </text>
                    </g>
                </g>
                <g id="np_artist_750597_FFFFFF" transform="translate(12.000000, 10.000000)" fill-rule="nonzero" fill="#0D2132">
                    <path d="M35.9962047,16.1326355 C35.716232,18.0211269 34.6876271,22.1801811 30.8972942,26.283177 C29.4289715,25.7194126 28.140182,24.7565604 27.1694024,23.5001372 C29.8732662,18.5892646 33.4719518,16.343749 35.1547091,15.5251377 C35.3479497,15.4288485 35.5761775,15.4474869 35.7527112,15.5748348 C35.9276946,15.7006322 36.0205111,15.9149501 35.9961657,16.1323572 L35.9962047,16.1326355 Z M25.2339588,28.0599492 C24.5568438,28.1795324 22.3870606,28.7401639 21.922978,31.07748 C21.7860358,31.7375375 21.3919356,32.3106052 20.8319903,32.6677885 C20.7224358,32.7407797 20.6615722,32.8696821 20.6722218,33.0032442 C20.6843946,33.1368062 20.7665614,33.2517299 20.8867656,33.3045321 C22.6274846,34.0515397 27.1495833,35.4353069 27.146467,29.5399538 C28.0350564,28.9156385 28.8841087,28.2354238 29.6859893,27.49927 C28.4398141,26.9091065 27.3244809,26.0704573 26.4023923,25.0315088 C25.9489437,26.0192494 25.5594165,27.0364902 25.2338108,28.0754388 L25.2339588,28.0599492 Z M0,32.82014 C0,26.744764 7.51047313,24.3155678 10.7392637,23.5561955 C10.7803472,23.5468771 10.8092579,23.5080529 10.8062157,23.4645659 L10.8062157,22.180193 C10.0591026,21.1815986 9.50371476,20.0478677 9.16595576,18.8411813 C8.32449919,17.9901278 7.95020255,16.6421028 7.74784319,15.9152523 C7.4207027,14.7225209 7.08899695,13.0204138 7.99282071,11.7995339 L8.03238109,11.7482823 C7.97455968,11.3864235 7.93043404,11.036977 7.90456944,10.6782432 C7.51504228,7.89520335 7.81175291,5.84370541 8.8434078,4.54680884 L8.84188591,4.54680884 C9.39575458,3.83864447 10.1976352,3.37582494 11.0786288,3.25933484 C11.6051137,1.40654595 14.1720197,-0.402708259 16.5047421,0.0787178764 C18.7749453,0.560144012 23.5162309,0.0150419247 23.5434978,0.0103823208 C23.6028384,0.00572311456 23.663702,0.0243599397 23.7108737,0.0631845383 C23.7580455,0.102009137 23.7884753,0.159473741 23.7930406,0.221595166 C23.8082563,0.866107437 23.5678472,1.49042279 23.1265986,1.95169177 C26.9016621,4.52039779 26.3554281,9.59272646 25.9202484,11.7356671 L25.9598088,11.7869188 C26.8636286,13.0075998 26.5365037,14.7206006 26.2093477,15.9026372 C26.0069766,16.6294479 25.6326527,17.9775126 24.7912351,18.8285662 L24.7897136,18.8285662 C24.4504004,20.0290503 23.8950087,21.153478 23.1494537,22.1442799 L23.1494537,23.4519508 C23.1479322,23.4954378 23.1753206,23.5327067 23.2164056,23.5435804 C23.7154678,23.6585041 24.3104316,23.8184692 24.9692778,24.0203549 L24.871896,24.2191435 L24.871896,24.2750507 C24.5295367,25.0220584 24.2176073,25.8063588 23.9330577,26.6123669 C22.0690923,27.2087326 20.6677294,28.7850463 20.2675292,30.7356392 C20.2249266,30.9390874 20.095588,31.1114728 19.9175624,31.2093126 C19.0167809,31.8165321 18.7231164,33.0263593 19.2434857,33.9923524 L1.16864652,33.9923524 C0.531107425,33.9923524 0.0106991424,33.4705325 6.50510353e-05,32.819818 L0,32.82014 Z M22.0507429,25.6311505 C21.5288544,25.3345222 21.1332117,24.849991 20.9414864,24.2722319 C20.4134823,24.6294311 19.8459413,24.9213959 19.2510164,25.1419319 C17.7781363,25.6746057 16.1697787,25.6746057 14.6970544,25.1419319 C14.1006104,24.9260594 13.5315113,24.6356572 13.0035072,24.2799847 C12.8072206,24.8484007 12.4161782,25.3251752 11.9003663,25.6187064 C13.1039273,27.2400656 14.9831232,28.1936543 16.9762947,28.1936543 C18.9695831,28.1936543 20.8472208,27.2401054 22.050665,25.6187064 L22.0507429,25.6311505 Z M10.8518371,17.4402667 C10.9553033,17.4495847 11.0389932,17.5272367 11.0557312,17.6312906 C11.3600493,19.6191762 12.8481794,22.211379 15.3954532,23.1258064 L15.3939318,23.1258064 C16.4103639,23.4969804 17.5211006,23.4969804 18.5375328,23.1258064 C20.987308,22.2235051 22.5804351,19.682709 22.8924464,17.6356639 C22.9091836,17.53161 22.9928704,17.4524047 23.0948174,17.44464 C23.2150216,17.44464 23.6486861,17.2536161 24.1812476,15.3340621 C24.5981586,13.8353952 24.4231791,13.2902772 24.2786294,13.0992414 L24.2801509,13.0992414 C24.1553815,12.953255 23.9636601,12.8849234 23.7764923,12.9206418 C23.7004138,12.9268535 23.6258544,12.8942399 23.5786865,12.8321173 C23.5315187,12.7715504 23.5178229,12.6907905 23.5436902,12.6177993 L23.5436902,12.5743123 C23.6486795,12.2171132 24.0853667,10.3922898 22.5653149,9.2461545 C21.2323919,9.54899695 19.0595705,9.64373163 16.1108499,8.35160598 C14.689699,7.72418953 13.486099,7.70399261 12.5472996,8.26463599 C10.6742193,9.42941768 10.4170535,12.6379843 10.412496,12.6892718 C10.4048882,12.8135146 10.2998993,12.9066987 10.1796912,12.9004846 L10.0777442,12.9004846 C9.91949877,12.8880603 9.76429557,12.9563919 9.66539073,13.0837438 C9.52540636,13.2747677 9.35042297,13.8198976 9.76277252,15.3185646 C10.2998915,17.2505508 10.7320329,17.4291425 10.852241,17.4399963 L10.8518371,17.4402667 Z" id="Shape"></path>
                </g>
            </g>
            <g id="Group-5" transform="translate(25.000000, 81.000000)">
                <g id="Group-2">
                    <circle id="Oval" stroke="#4990E2" stroke-width="2" fill="#FFFFFF" cx="31" cy="30" r="30"></circle>
                    <g id="Group-3" transform="translate(0.000000, 49.000000)">
                        <g id="Group-4">
                            <rect id="Rectangle-2" fill="#4990E2" x="0" y="0" width="62" height="16" rx="3"></rect>
                            <text id="PROTOTYPE" font-family="Nunito-Light, Nunito" font-size="9" font-weight="300" letter-spacing="-0.270000011" fill="#FFFFFF">
                                <tspan x="6.61900005" y="11">PROTOTYPE</tspan>
                            </text>
                        </g>
                    </g>
                </g>
                <g id="np_developer_94086_FFFFFF" transform="translate(16.000000, 10.000000)" fill-rule="nonzero" fill="#0D2132">
                    <path d="M29.4516875,32.0001099 L29.4516875,31.5204273 C29.4516875,27.5610453 24.9818588,25.2407924 22.3147851,23.8795848 C21.7663899,23.5998953 21.3343875,23.3592619 21.0601899,23.199901 C20.7461568,22.9998999 20.5117947,22.6795781 20.3539899,22.3592564 L20.4321159,22.3592564 C23.8053111,22.3592564 25.4521438,20.0795637 25.5301834,19.9998833 C25.648137,19.8405064 25.6864353,19.599881 25.648137,19.3998799 C25.6083093,19.1998788 25.4918852,18.9998777 25.2958056,18.9201973 C24.3552514,18.3608341 23.4529719,17.440509 23.2568923,12.8405635 C23.3748459,12.1202395 23.4529719,11.3608753 23.4529719,10.599911 C23.4912685,4.72027837 19.7259315,-0.000147857143 15.1380237,-0.000147857143 C10.5501159,-0.000147857143 6.82464419,4.72027837 6.82464419,10.4795104 C6.82464419,11.2388746 6.90277011,11.9998388 7.02072371,12.7201628 C6.82464419,17.3201884 5.92236467,18.2405935 4.98181042,18.8405968 C4.7857309,18.9609095 4.6677773,19.1202864 4.62947905,19.3202795 C4.58965138,19.5202806 4.62947905,19.7609219 4.74743265,19.9202828 C4.82555857,20.0405955 6.43403025,22.2796559 9.84550019,22.2796559 L9.92362611,22.2796559 C9.76737426,22.6390339 9.53146707,22.9202995 9.21742611,23.1203006 C8.94322066,23.3203017 8.35498995,23.5999833 7.6886333,23.8796648 C4.82555857,25.2390324 0.00153177322,27.5593653 0.00153177322,31.4389068 L0.00153177322,32.4389124 L0,35.9998521 L29.4119281,35.9998521 L29.4516875,32.0001099 Z M9.5696163,14.6408135 C9.29541086,13.3204861 9.05949582,10.8814326 9.92194767,9.52038503 C10.274279,8.96102193 10.7843838,8.64070015 11.4905838,8.47973925 C14.7840923,7.87973592 16.4325721,6.67972925 17.2949298,5.52036281 C17.843325,6.20004659 18.5112503,6.80004992 19.1776069,7.40005326 C20.3142407,8.44069904 21.5305612,9.52038503 21.5305612,10.4797504 C21.5305612,15.2001766 18.6674865,19.0001977 15.1379766,19.0001977 C12.745179,19.0001977 10.6681479,17.2408279 9.56971042,14.6409735 L9.5696163,14.6408135 Z M19.2955527,24.2408668 C18.7471575,24.640869 17.3347575,25.5205539 15.1378825,25.5205539 C13.2950488,25.5205539 11.6482945,24.640869 11.0202126,24.2002266 C12.0404536,23.0408601 12.2365331,21.400211 12.2365331,20.3595653 C13.1388126,20.8002077 14.1192102,21.039249 15.1378825,21.039249 C16.1581235,21.039249 17.1385211,20.7986237 18.039232,20.3595653 C18.039232,21.400211 18.2353115,23.0408201 19.2953566,24.2408268 L19.2955527,24.2408668 Z M12.3147296,28.5596908 L9.60945966,30.5190617 L12.3147296,32.4784326 L12.3147296,34.000321 L8.47125726,31.2799859 L8.47125726,29.7206173 L12.2748862,27.0002821 L12.2748862,28.5596508 L12.3147296,28.5596908 Z M15.137961,34.000521 L13.6091682,34.000521 L15.137961,27.0004821 L16.6667538,27.0004821 L15.137961,34.000521 Z M22.0007442,31.2801859 L18.1971152,34.000521 L18.1971152,32.4411524 L20.9023851,30.4817815 L18.1971152,28.5224106 L18.1971152,26.9630419 L22.0007442,29.6833771 L22.0007442,31.2801859 Z" id="Shape"></path>
                </g>
            </g>
            <g id="Group-6" transform="translate(67.000000, 147.000000)">
                <g id="Group-2">
                    <circle id="Oval" stroke="#4990E2" stroke-width="2" fill="#FFFFFF" cx="30" cy="30" r="30"></circle>
                    <g id="Group-3" transform="translate(0.000000, 49.000000)">
                        <g id="Group-4">
                            <rect id="Rectangle-2" fill="#4990E2" x="0" y="0" width="60" height="16" rx="3"></rect>
                            <text id="RESEARCH" font-family="Nunito-Light, Nunito" font-size="9" font-weight="300" letter-spacing="-0.270000011" fill="#FFFFFF">
                                <tspan x="7.45500004" y="11">RESEARCH</tspan>
                            </text>
                        </g>
                    </g>
                </g>
                <g id="Group-8" transform="translate(11.000000, 10.000000)" fill-rule="nonzero" fill="#0D2132">
                    <path d="M-3.55271368e-15,32.8275239 C-3.55271368e-15,26.7507811 7.35581765,24.3210383 10.5181211,23.5614952 C10.5583585,23.5521747 10.5866739,23.5133417 10.5836943,23.469845 L10.5836943,22.1851831 C9.85196578,21.186364 9.30801449,20.052378 8.97721062,18.8454202 C8.15308131,17.9941752 7.78649217,16.6458469 7.58829979,15.9188329 C7.26789577,14.7258332 6.9430205,13.0233431 7.82823274,11.8021886 L7.86697849,11.7509254 C7.81034774,11.3889852 7.76713074,11.0394601 7.74179874,10.6806456 C7.36029271,7.8969796 7.65089348,5.84502012 8.66130455,4.54783177 L8.65981401,4.54783177 C9.20227743,3.83950808 9.98764573,3.37658443 10.8504979,3.26006813 C11.3661414,1.40686239 13.8801898,-0.40279886 16.1648768,0.0787355863 C18.3883321,0.560270033 23.0319852,0.0150453088 23.0586907,0.0103846566 C23.1168093,0.00572440214 23.1764196,0.0243654202 23.22262,0.0631987535 C23.2688204,0.102032087 23.2986236,0.159509619 23.3030949,0.221645021 C23.3179973,0.866302293 23.0825386,1.4907581 22.6503762,1.95213086 C26.3477037,4.52141478 25.8127178,9.59488462 25.3864993,11.7383074 L25.425245,11.7895706 C26.3104534,13.0105263 25.9900647,14.7239124 25.6696454,15.9062149 C25.4714416,16.6331892 25.1048257,17.9815572 24.2807346,18.8328023 L24.2792444,18.8328023 C23.9469183,20.0335565 23.4029632,21.158237 22.6727607,22.1492619 L22.6727607,23.457227 C22.6712705,23.5007238 22.698095,23.538001 22.738334,23.5488772 C23.2271195,23.6638267 23.8098318,23.8238279 24.4551111,24.025759 L24.3597346,24.2245923 L24.3597346,24.2805121 C24.0244251,25.0276878 23.7189189,25.8121647 23.4402287,26.6183541 C21.6146461,27.214854 20.24214,28.7915224 19.8501807,30.7425541 C19.8084554,30.946048 19.6817802,31.1184723 19.5074205,31.216334 C18.6251878,31.8236902 18.3375704,33.0337895 18.8472243,34 L1.14458178,34 C0.520170874,34 0.010478826,33.4780626 6.3711506e-05,32.8272018 L-3.55271368e-15,32.8275239 Z M21.5966745,25.636917 C21.0855327,25.3402219 20.6980371,24.8555817 20.5102598,24.2776927 C19.9931284,24.6349722 19.4372741,24.9270026 18.8546,25.1475883 C17.4120494,25.680382 15.836811,25.680382 14.394413,25.1475883 C13.810251,24.9316673 13.2528707,24.6411997 12.7357393,24.2854472 C12.5434946,24.8539911 12.1605045,25.3308728 11.6553142,25.62447 C12.8340915,27.2461941 14.6745911,28.1999973 16.6267192,28.1999973 C18.5789619,28.1999973 20.4179353,27.2462338 21.5965982,25.62447 L21.5966745,25.636917 Z M10.6283763,17.4441904 C10.7297119,17.4535105 10.8116785,17.5311799 10.8280718,17.6352572 C11.1261234,19.6235901 12.58361,22.2163761 15.0784304,23.1310092 L15.0769403,23.1310092 C16.0724421,23.5022667 17.1603065,23.5022667 18.1558083,23.1310092 C20.5551379,22.2285049 22.1154594,19.6871372 22.4210457,17.6396316 C22.4374382,17.5355543 22.5194018,17.4563311 22.6192495,17.4485647 C22.7369785,17.4485647 23.1617129,17.2574978 23.683308,15.337512 C24.0916339,13.8385078 23.9202575,13.2932672 23.7786845,13.1021884 L23.7801746,13.1021884 C23.6579744,12.9561692 23.470201,12.8878223 23.2868873,12.9235486 C23.2123754,12.9297618 23.1393513,12.8971408 23.0931548,12.8350042 C23.0469582,12.7744237 23.0335445,12.6936457 23.0588791,12.6206381 L23.0588791,12.5771413 C23.1617064,12.2198617 23.5894014,10.3946279 22.1006504,9.24823469 C20.795175,9.55114527 18.6670962,9.64590126 15.7790956,8.35348492 C14.3872091,7.72592731 13.2083936,7.70572584 12.2889259,8.26649536 C10.4544161,9.4315391 10.2025458,12.6408276 10.1980822,12.6921266 C10.190631,12.8163974 10.087804,12.9096025 9.97007127,12.9033869 L9.87022351,12.9033869 C9.71523669,12.8909599 9.56322943,12.9593068 9.46636124,13.0866874 C9.32925942,13.2777542 9.15787928,13.8230068 9.56173774,15.3220109 C10.0877964,17.2544318 10.5110392,17.4330637 10.6287719,17.44392 L10.6283763,17.4441904 Z" id="Shape"></path>
                    <path d="M36.0919846,27.9795258 L33.6477305,25.5352717 C34.4137894,24.5359539 34.8741475,23.2898944 34.8741475,21.9370738 C34.8741475,18.6641562 32.2113427,16 28.9370738,16 C25.6641562,16 23,18.6628048 23,21.9370738 C23,25.2099913 25.6628048,27.8728904 28.9370738,27.8728904 C30.2911829,27.8728904 31.5360167,27.4125322 32.5365288,26.6464734 L34.9807829,29.0907275 C35.1342398,29.2441844 35.3355742,29.3203 35.5369023,29.3203 C35.7382399,29.3203 35.9383329,29.2441844 36.0930217,29.0907275 C36.3987099,28.7838137 36.3987099,28.2853836 36.0917942,27.9796829 L36.0919846,27.9795258 Z M28.9370738,26.3000734 C26.5308791,26.3000734 24.5714027,24.3419485 24.5714027,21.9356595 C24.5714027,19.5282077 26.5295276,17.5699885 28.9370738,17.5699885 C31.3445256,17.5699885 33.3027448,19.5281134 33.3027448,21.9356595 C33.3015169,24.3418542 31.3433942,26.3000734 28.9370738,26.3000734 Z" id="Shape" transform="translate(29.661067, 22.660150) scale(-1, 1) translate(-29.661067, -22.660150) "></path>
                </g>
            </g>
            <g id="np_plus_734765_FFFFFF" transform="translate(115.000000, 101.000000)" fill-rule="nonzero" fill="#FFFFFF">
                <g id="Group">
                    <path d="M22.3013158,15.1315789 L2.63157895,15.1315789 C1.18473684,15.1315789 0,13.9468421 0,12.5 C0,11.0531579 1.18473684,9.86842105 2.63157895,9.86842105 L22.3013158,9.86842105 C23.7481579,9.86842105 24.9328947,11.0531579 24.9328947,12.5 C24.9328947,13.9468421 23.815,15.1315789 22.3013158,15.1315789 Z" id="Shape"></path>
                    <path d="M9.86842105,22.3013158 L9.86842105,2.69802632 C9.86842105,1.25118421 11.0531579,0.0664473684 12.5,0.0664473684 C13.9468421,0.0664473684 15.1315789,1.25118421 15.1315789,2.69802632 L15.1315789,22.3677632 C15.1315789,23.8146053 13.9468421,24.9993421 12.5,24.9993421 C11.0531579,24.9325263 9.86842105,23.8146053 9.86842105,22.3009211 L9.86842105,22.3013158 Z" id="Shape"></path>
                </g>
            </g>
        </g>
    </g>
</svg>