<?xml version="1.0" encoding="UTF-8"?>
<svg width="180px" height="180px" viewBox="0 0 180 180" version="1.1" xmlns="http://www.w3.org/2000/svg" xmlns:xlink="http://www.w3.org/1999/xlink">
    <!-- Generator: Sketch 42 (36781) - http://www.bohemiancoding.com/sketch -->
    <title>Home Page &gt; ROI Icon</title>
    <desc>Created with Sketch.</desc>
    <defs>
        <path d="M32.4874476,0 C21.5175385,0 12.5783567,8.93960851 12.5783567,19.9095745 C12.5783567,30.1713883 20.4003241,38.6685851 30.3917538,39.7206489 L30.3917538,52.164133 C26.0325012,45.3939346 18.6202418,40.8670213 10.4826629,40.8670213 L10.4171725,40.8670213 C7.13856432,40.9529793 4.29795619,41.3623086 1.44498346,42.2751521 C0.884217718,42.4593471 0.429881785,42.8645803 0.188405469,43.4007766 C-0.0571888851,43.9369938 -0.0612754879,44.5510261 0.167939971,45.091309 C3.98681796,53.8058346 12.5660644,59.7290378 22.0092605,59.7290378 L22.074751,59.7290378 C25.0095605,59.6553598 27.6618706,59.5489295 30.3920357,58.7794035 L30.3920357,64.9683471 L9.43509787,64.9683471 C9.36960744,64.9642541 9.304117,64.9642541 9.23862657,64.9683471 C8.66967715,65.0256531 8.14572227,65.3121749 7.7937505,65.7624352 C7.44173681,66.2167822 7.2902915,66.7939398 7.37215978,67.3587639 L11.1379119,92.2782161 C11.5022064,94.713681 13.5938555,96.4042134 16.0168966,96.4042134 L48.9591071,96.4042134 C51.3822531,96.4042134 53.4738603,94.713681 53.8380918,92.2782161 L57.603844,67.3587639 C57.6897999,66.7611519 57.5097012,66.1513006 57.1167628,65.6928565 C56.7197232,65.2385095 56.1466871,64.9724443 55.5409059,64.9683471 L34.5839681,64.9683471 L34.5839681,58.7794035 C37.3141332,59.5489399 39.9664432,59.6553619 42.9012528,59.7290378 L42.9667432,59.7290378 C52.409625,59.7290378 60.9886619,53.8061489 64.8080638,45.091309 C65.0372803,44.5510051 65.0331832,43.9369729 64.7875983,43.4007766 C64.546101,42.8645594 64.0917651,42.4593262 63.5310203,42.2751521 C60.6780476,41.362361 57.8374394,40.9530516 54.5588313,40.8670213 L54.4933409,40.8670213 C46.3561811,40.8670213 38.943293,45.3941441 34.58425,52.164133 L34.58425,39.7206489 C44.5756796,38.6686899 52.3976471,30.1710739 52.3976471,19.9095745 C52.3976471,8.93939894 43.4582557,7.44558079e-15 32.4885562,7.44558079e-15 L32.4874476,0 Z M32.4874476,4.19148936 C41.1935882,4.19148936 48.2051509,11.2032223 48.2051509,19.9095745 C48.2051509,28.6159266 41.1935882,35.6276596 32.4874476,35.6276596 C23.7813069,35.6276596 16.7697442,28.6159266 16.7697442,19.9095745 C16.7697442,11.2032223 23.7813069,4.19148936 32.4874476,4.19148936 Z M32.2582311,7.30241277 C31.1776914,7.42111574 30.3671818,8.34618793 30.3918062,9.43085106 L30.3918062,9.66007314 C29.3235263,9.86473309 28.2634196,10.2085714 27.2809583,10.7734375 C25.6559574,11.7107907 24.1047248,13.4463503 24.1047248,15.7181375 C24.1047248,17.2530609 24.8046551,18.6038731 25.709188,19.4839811 C26.6137209,20.3640891 27.6575545,20.8715737 28.6234598,21.2194673 C29.2497159,21.4445922 29.8432583,21.6001384 30.3917014,21.7106574 L30.3917014,26.0658245 C28.3614981,25.8120403 26.9207086,25.2799202 26.9207086,25.2799202 C26.3926881,25.0506981 25.7910248,25.0506981 25.2630148,25.2799202 C24.7349943,25.5050451 24.3215872,25.9430243 24.1210713,26.4832968 C23.9246,27.0236007 23.9573452,27.6211814 24.215214,28.1369441 C24.4689921,28.6526964 24.9274251,29.0415514 25.4799652,29.2093367 C25.4799652,29.2093367 27.5387748,29.995241 30.3917475,30.2899027 L30.3917475,30.3881407 C30.3835617,30.9489201 30.6004996,31.4892449 30.9934421,31.8903705 C31.3904818,32.2874198 31.9266755,32.5125447 32.4874622,32.5125447 C33.0482489,32.5125447 33.5844532,32.2874198 33.9814823,31.8903705 C34.3744249,31.4892345 34.5913607,30.9489201 34.583177,30.3881407 L34.583177,30.1589186 C35.6514569,29.9419776 36.715755,29.5776743 37.6940248,29.0127559 C39.3190258,28.0754026 40.8702583,26.3726415 40.8702583,24.1008543 C40.8702583,22.5659309 40.170328,21.1823202 39.2657952,20.302317 C38.3612623,19.4223138 37.3174287,18.9147245 36.3515234,18.5668309 C35.7252672,18.341706 35.1317248,18.2189058 34.5832818,18.1083867 L34.5832818,13.7859133 C36.6134851,14.0396975 38.0542746,14.5390715 38.0542746,14.5390715 C38.5822951,14.7682936 39.1839583,14.7682936 39.7119684,14.5390715 C40.2399889,14.3139466 40.6533959,13.8759674 40.8539119,13.3356949 C41.0503832,12.795391 41.017638,12.1978104 40.7597692,11.6820476 C40.5059911,11.1662953 40.0475581,10.7774404 39.495018,10.6096551 C39.495018,10.6096551 37.4362084,9.85649681 34.5832357,9.56178271 L34.5832357,9.43079867 C34.5955154,8.82908941 34.3499221,8.24785559 33.9037698,7.83855665 C33.4576176,7.43332346 32.86002,7.23684739 32.2583359,7.30233941 L32.2582311,7.30241277 Z M30.3918062,13.9825989 L30.3918062,17.388184 C30.2853869,17.355438 30.1707734,17.326785 30.064354,17.289946 C29.4585728,17.073005 28.9305837,16.737361 28.6562574,16.4712957 C28.3819311,16.2052305 28.29606,16.1110896 28.29606,15.7181375 C28.29606,15.3088176 28.5334602,14.8953901 29.3765997,14.4082971 C29.6672096,14.2404698 30.0233203,14.1013019 30.3917014,13.9825989 L30.3918062,13.9825989 Z M34.5831937,22.4310697 C34.6937102,22.4638157 34.8001295,22.4883757 34.9106459,22.5293077 C35.5164271,22.7462487 36.0444162,23.0491467 36.3187426,23.315212 C36.5930689,23.5812772 36.6789399,23.7081641 36.6789399,24.1011162 C36.6789399,24.5104361 36.4415397,24.8911177 35.5984002,25.378263 C35.3077903,25.5460903 34.9516796,25.713907 34.5832985,25.8367072 L34.5831937,22.4310697 Z M10.4827153,45.058825 L10.5482057,45.058825 C17.3141531,45.083385 23.4828277,49.1643888 27.0517942,55.1119027 C25.5414277,55.3329409 23.9246,55.488487 22.0090311,55.5376008 L21.9435406,55.5376008 C15.1447957,55.5130408 8.96386121,51.5507609 5.40746887,45.6483056 C6.971066,45.3372132 8.59606695,45.1120884 10.4830296,45.0588774 L10.4827153,45.058825 Z M54.4273181,45.058825 L54.4928086,45.058825 C56.3797713,45.112037 58.0047722,45.3371609 59.5683693,45.6482532 C56.0114531,51.5507085 49.8307282,55.5130282 43.0322976,55.5375484 L42.9668071,55.5375484 C41.0512382,55.4884294 39.4344105,55.3328885 37.924044,55.1118503 C41.4932201,49.1643364 47.6616851,45.0833976 54.4276325,45.0587726 L54.4273181,45.058825 Z" id="path-1"></path>
    </defs>
    <g id="Page-1" stroke="none" stroke-width="1" fill="none" fill-rule="evenodd">
        <g id="Home-Page-&gt;-ROI-Icon">
            <g id="Group-2">
                <g id="np_money-growth_968045_70B3B8" transform="translate(114.985646, 77.595745)">
                    <mask id="mask-2" fill="white">
                        <use xlink:href="#path-1"></use>
                    </mask>
                    <use id="Shape" fill="#70B3B8" fill-rule="nonzero" xlink:href="#path-1"></use>
                    <path d="M11.8585382,69.1598888 L53.1175095,69.1598888 L49.7120071,91.6566601 C49.6874477,91.8122063 49.2904164,92.2133423 48.9588672,92.2133423 L16.0166567,92.2133423 C15.6851074,92.2133423 15.2880782,91.8122063 15.2635167,91.6566601 L11.8585382,69.1598888 Z" id="Path" fill="#FFFFFF" style="mix-blend-mode: lighten;" mask="url(#mask-2)"></path>
                </g>
                <g id="np_user-experience_885484_70B3B8" fill-rule="nonzero">
                    <g id="Group">
                        <path d="M98.8023215,21.8510596 C98.8023215,20.6585606 98.3410263,19.5414283 97.5078848,18.7261011 C96.6841425,17.8871116 95.5450214,17.4015714 94.3728946,17.4015714 L19.4264317,17.4015714 C18.2590647,17.4015714 17.1104962,17.8823454 16.3056607,18.7024509 C15.4583843,19.5320165 14.9924256,20.6538306 14.9924256,21.8463537 L14.9924256,23.8590307 L0.000723014354,23.8590307 L0.000723014354,47.3933544 L14.9924256,47.3933544 L14.9924256,68.7545178 L6.8303166,68.7498035 L6.8303166,74.0807429 C6.8303166,75.5042171 7.38576033,76.8475704 8.39781172,77.8562015 C9.40983901,78.8601629 10.7466444,79.4163882 12.1635115,79.4163882 L101.631718,79.4163882 C103.048585,79.4163882 104.390138,78.8554932 105.397417,77.8514956 C106.404745,76.8475342 106.964913,75.5042171 106.964913,74.0807429 L106.964913,68.7498035 L98.8122027,68.7498035 L98.8122027,21.8512925 L98.8023215,21.8510596 Z M35.4915696,47.3884072 L35.4915696,27.3750616 L88.851234,27.3750616 L88.851234,68.744744 L24.9476103,68.744744 L24.9476103,47.3884072 L35.4915696,47.3884072 Z M18.5031423,21.8510596 C18.5031423,21.6813818 18.5455062,21.426853 18.7855759,21.1958898 C18.959738,21.021494 19.1950912,20.9225133 19.4257448,20.9225133 L94.3673876,20.9225133 C94.6074525,20.9225133 94.8333945,21.0214952 95.0216795,21.2147496 C95.2429098,21.426853 95.2852785,21.6813818 95.2852785,21.8557776 L95.2852785,68.749462 L92.3574318,68.749462 L92.3621399,23.8588015 L18.5026085,23.8588015 L18.5031423,21.8510596 Z M3.51505478,27.3751822 L31.983745,27.3751822 L31.983745,43.8772029 L3.51505478,43.8772029 L3.51505478,27.3751822 Z M21.4301455,47.3885278 L21.4301455,68.7448647 L18.5022988,68.7495778 L18.5022988,47.393241 L21.4301455,47.3885278 Z M103.451304,72.2610162 L103.451304,74.0756834 C103.451304,74.5611633 103.258307,75.0183716 102.919394,75.3577394 C102.57577,75.7018251 102.114474,75.8903627 101.634357,75.8903627 L12.1565103,75.8950771 C11.671681,75.8950771 11.2103737,75.7065394 10.8667732,75.3624537 C10.5231486,75.018368 10.3348636,74.5705956 10.3348636,74.0803978 L10.3348636,72.2657306 L92.360842,72.2657306 L98.8096481,72.2610174 L103.451304,72.2610162 Z" id="Shape" fill="#70B3B8"></path>
                        <path d="M56.8952045,64.9932975 C66.6860239,64.9932975 74.650027,57.0275371 74.650027,47.2194774 C74.650027,37.4202262 66.6855419,29.4492772 56.8952045,29.4492772 C47.1048672,29.4492772 39.1488172,37.4197436 39.1488172,47.2194774 C39.1488172,57.0234346 47.1133023,64.9932975 56.8952045,64.9932975 Z M51.2984709,60.326976 C52.4658379,58.3661845 54.5369727,57.0794227 56.8999041,57.0794227 C59.2628356,57.0794227 61.3293311,58.3567727 62.5060369,60.326976 C60.7832142,61.0717026 58.8956648,61.4817675 56.8999041,61.4817675 C54.8993234,61.4770543 53.0164735,61.0622667 51.2984709,60.326976 Z M53.3225496,47.2192361 C53.3225496,45.2537388 54.9229419,43.6417872 56.8952045,43.6417872 C58.8721668,43.6417872 60.4773792,45.244327 60.4773792,47.2192361 C60.4773792,49.1988511 58.8722873,50.8156292 56.8952045,50.8156292 C54.9229419,50.8156292 53.3225496,49.1989718 53.3225496,47.2192361 Z M56.8952045,32.9663941 C64.751358,32.9663941 71.1385873,39.362556 71.1385873,47.2192361 C71.1385873,51.8195544 68.9167642,55.863732 65.5324545,58.4749029 C64.1439055,56.1605657 61.9079836,54.5156728 59.2860925,53.8745845 C62.0161947,52.8847649 63.9837578,50.2876032 63.9837578,47.2145302 C63.9837578,43.3070651 60.8064712,40.1255151 56.8901434,40.1255151 C52.9832149,40.1255151 49.7965291,43.3070651 49.7965291,47.2145302 C49.7965291,50.2924298 51.7640922,52.884777 54.4941944,53.8698786 C51.8770029,54.5061886 49.6316818,56.1558598 48.2478324,58.4749029 C44.8634022,55.8683172 42.6463992,51.8195544 42.6463992,47.2192361 C42.6605208,39.3666586 49.0433892,32.9663941 56.894602,32.9663941 L56.8952045,32.9663941 Z" id="Shape" fill="#4A4A4A"></path>
                        <polygon id="Shape" fill="#70B3B8" points="28.3228823 0.222021921 44.176177 0.222021921 44.176177 3.7382941 28.3228823 3.7382941"></polygon>
                        <polygon id="Shape" fill="#70B3B8" points="35.3264813 5.94873952 64.321767 5.94873952 64.321767 9.4697176 35.3264813 9.4697176"></polygon>
                        <polygon id="Shape" fill="#9B9B9B" points="7.75264191 36.727735 17.3834341 36.727735 17.3834341 40.2440072 7.75264191 40.2440072"></polygon>
                        <polygon id="Shape" fill="#9B9B9B" points="7.75264191 31.0142905 27.7439888 31.0142905 27.7439888 34.5305626 7.75264191 34.5305626"></polygon>
                        <polygon id="Shape" fill="#70B3B8" points="75.3139952 37.3817344 78.8255554 37.3817344 78.8255554 40.9027124 75.3139952 40.9027124"></polygon>
                        <polygon id="Shape" fill="#70B3B8" points="102.192054 37.3817344 105.524668 37.3817344 105.524668 40.9027124 102.192054 40.9027124"></polygon>
                        <polygon id="Shape" fill="#70B3B8" points="82.1633512 37.3817344 85.500665 37.3817344 85.500665 40.9027124 82.1633512 40.9027124"></polygon>
                        <polygon id="Shape" fill="#70B3B8" points="108.871501 37.3817344 112.387761 37.3817344 112.387761 40.9027124 108.871501 40.9027124"></polygon>
                        <polygon id="Shape" fill="#70B3B8" points="108.871501 30.6945306 112.387761 30.6945306 112.387761 34.0363225 108.871501 34.0363225"></polygon>
                        <polygon id="Shape" fill="#70B3B8" points="108.871501 17.3261564 112.387761 17.3261564 112.387761 20.6679483 108.871501 20.6679483"></polygon>
                        <polygon id="Shape" fill="#70B3B8" points="108.871501 10.637746 112.387761 10.637746 112.387761 13.9795379 108.871501 13.9795379"></polygon>
                        <polygon id="Shape" fill="#70B3B8" points="108.871501 24.0097402 112.387761 24.0097402 112.387761 27.3515321 108.871501 27.3515321"></polygon>
                        <polygon id="Shape" fill="#70B3B8" points="108.871501 3.78040587 112.387761 3.78040587 112.387761 7.30138395 108.871501 7.30138395"></polygon>
                        <polygon id="Shape" fill="#70B3B8" points="95.5126062 3.78040587 98.8452204 3.78040587 98.8452204 7.30138395 95.5126062 7.30138395"></polygon>
                        <polygon id="Shape" fill="#70B3B8" points="82.1633512 3.78040587 85.500665 3.78040587 85.500665 7.30138395 82.1633512 7.30138395"></polygon>
                        <polygon id="Shape" fill="#70B3B8" points="88.8379787 3.78040587 92.1752925 3.78040587 92.1752925 7.30138395 88.8379787 7.30138395"></polygon>
                        <polygon id="Shape" fill="#70B3B8" points="102.192054 3.78040587 105.524668 3.78040587 105.524668 7.30138395 102.192054 7.30138395"></polygon>
                        <polygon id="Shape" fill="#70B3B8" points="75.3139952 3.78040587 78.8255554 3.78040587 78.8255554 7.30138395 75.3139952 7.30138395"></polygon>
                        <polygon id="Shape" fill="#70B3B8" points="75.3139952 10.637746 78.8255554 10.637746 78.8255554 13.9795379 75.3139952 13.9795379"></polygon>
                        <polygon id="Shape" fill="#70B3B8" points="75.3139952 30.6945306 78.8255554 30.6945306 78.8255554 34.0363225 75.3139952 34.0363225"></polygon>
                    </g>
                </g>
                <g id="np_arrow_890470_70B3B8" transform="translate(65.301435, 85.117021)" fill-rule="nonzero" fill="#70B3B8">
                    <path d="M44.4459211,37.326238 C44.2288117,36.9029246 44.0429926,36.4592899 43.7163646,36.0816907 C43.5305505,35.8666485 43.3858059,35.622815 43.1921555,35.4162213 C43.0337211,35.2468977 42.8459492,35.0945012 42.6425096,34.9657984 C42.4566955,34.8489642 42.1378788,34.9844244 42.1222061,35.1893063 C42.1104701,35.353554 42.1378538,35.5364237 42.2121814,35.6871079 C42.3588788,35.9851213 42.4449384,36.2763725 42.3314942,36.6505907 C42.006804,36.5557682 41.7114463,36.4778773 41.4239299,36.3847497 C40.0860425,35.9512757 38.7677335,35.4737606 37.4142235,35.0893992 C35.6421072,34.5864826 33.9502072,33.9380054 32.2953107,33.2064746 C31.5325061,32.8695179 30.7637929,32.5393147 30.004894,32.1973037 C29.7017199,32.0601482 29.4044244,31.9128364 29.1188609,31.7485714 C27.3369806,30.7173799 25.557053,29.684498 23.7851371,28.6431199 C23.4330673,28.4348487 23.0985929,28.1995026 22.7758756,27.957364 C20.8316602,26.4977702 19.0321543,24.9060968 17.1877835,23.3569039 C15.7071393,22.1140471 14.3907831,20.7543691 13.1272033,19.3472689 C11.0753821,17.0613869 9.10968555,14.7247017 7.38238424,12.2439297 C6.42589915,10.8673028 5.52229063,9.46700825 4.86899459,7.95492072 C4.58929456,7.30809075 4.2489467,6.68159071 3.93599351,6.04494737 C3.50176971,5.15766934 3.06753589,4.2721252 2.63921564,3.38315662 C2.57466717,3.25108142 2.55119818,3.10207471 2.5159922,2.98693533 C2.55315552,2.93275108 2.55902351,2.90227352 2.5824935,2.89211289 C3.0225858,2.68722704 3.21816402,2.32486875 3.31595563,1.93881676 C3.41571009,1.54936633 3.37072494,1.13788676 3.17708453,0.773855251 C2.96583863,0.375939078 2.57075651,0.106695342 2.06412285,0.035605598 C0.970739515,-0.116786539 0.399612464,0.215089863 0.0612224404,1.12605292 C-0.0404848423,1.39866908 -0.0131051937,1.64418445 0.125770913,1.90665298 C0.499356904,2.61273886 0.491535578,2.61611996 1.28955619,2.8752074 C1.39322131,2.90907256 1.49884427,2.9446326 1.63184687,2.99034678 C1.97609537,4.20611144 2.30076553,5.35581466 2.87975397,6.44119033 C3.16728033,6.9796518 3.42939991,7.53163765 3.64060576,8.0921196 C4.21563846,9.6329898 5.10562726,11.043471 6.05815662,12.4200979 C7.55642627,14.5823965 9.15444036,16.6905108 10.9695689,18.6681928 C11.8751803,19.6553433 12.7494964,20.6645576 13.6512021,21.6550891 C13.968066,22.0039013 14.3025454,22.3442262 14.6643693,22.6574979 C16.0159265,23.8292216 17.3812036,24.9924925 18.7464306,26.1540729 C20.7454253,27.8574959 22.8284918,29.4711464 25.2343257,30.7445631 C25.721361,31.0019383 26.1927636,31.2847151 26.6602406,31.5691608 C28.1800414,32.5004364 29.7975838,33.2810365 31.4738612,33.9803602 C33.3280963,34.7524642 35.1843343,35.5127776 37.1911404,35.9530139 C37.744692,36.0732336 38.2864766,36.2340958 38.830214,36.3814076 C39.074708,36.4491379 39.3328919,36.5033222 39.5519591,36.6116907 C40.2033023,36.9334108 40.895705,37.1501522 41.6252615,37.2873034 C41.7856487,37.3177818 41.9616887,37.3550337 41.9851576,37.5870117 C41.875624,37.6649026 41.7484849,37.7546447 41.6174351,37.8443869 C41.3944572,37.9984739 41.1597424,38.1407054 40.9504693,38.3066436 C40.6942383,38.5115294 40.604263,38.773972 40.7216229,38.8908366 C40.8780995,39.048309 41.0893454,38.9941248 41.281033,38.9771933 C41.4766262,38.9602605 41.6820036,38.9348615 41.8580185,38.8620496 C42.1631504,38.7350547 42.4604409,38.5843574 42.7381931,38.4133172 C42.9787765,38.2643105 43.2291391,38.171183 43.5244817,38.1576369 C43.6653107,38.1508643 43.8100503,38.1305448 43.9469685,38.0983723 C44.432046,37.9916987 44.6393712,37.7072313 44.4457358,37.3262683 L44.4459211,37.326238 Z" id="Shape"></path>
                </g>
                <g id="np_arrow_890470_70B3B8" transform="translate(138.703661, 55.500000) rotate(180.000000) translate(-138.703661, -55.500000) translate(117.703661, 37.000000)" fill-rule="nonzero" fill="#70B3B8">
                    <path d="M41.7064892,35.127618 C41.5027614,34.7303956 41.3283953,34.3141044 41.021899,33.9597786 C40.8475376,33.7579906 40.7117144,33.5291858 40.5299996,33.3353255 C40.3813304,33.1764382 40.2051318,33.0334347 40.0142312,32.9126645 C39.8398698,32.8030314 39.5407035,32.9301425 39.5259968,33.1223965 C39.5149841,33.2765207 39.54068,33.4481192 39.6104264,33.589516 C39.7480821,33.8691613 39.8288374,34.1424612 39.7223853,34.4936143 C39.4177075,34.4046363 39.1405542,34.3315461 38.870759,34.2441585 C37.6153325,33.8374017 36.3782776,33.3893184 35.1081914,33.0286472 C33.4452999,32.5567279 31.8576804,31.9482197 30.3047838,31.261777 C29.5889947,30.9455886 28.8676613,30.6357376 28.1555372,30.3148065 C27.8710494,30.1861045 27.5920777,30.0478723 27.324115,29.8937318 C25.6520611,28.9260981 23.9818397,27.9568779 22.3191362,26.9796854 C21.9887662,26.784251 21.6749072,26.5634105 21.3720806,26.3361961 C19.5476973,24.9665646 17.8591042,23.4729943 16.1284115,22.0192862 C14.7390271,20.8530331 13.5038048,19.577159 12.3181059,18.2567858 C10.392749,16.1117945 8.54820853,13.9191312 6.92736973,11.5912621 C6.02983776,10.2994838 5.18192331,8.98549663 4.56889328,7.56660688 C4.30643261,6.95964438 3.98706215,6.37175877 3.69339788,5.77435505 C3.28593754,4.94176456 2.8784678,4.11080108 2.47654714,3.27662423 C2.41597712,3.1526895 2.39395465,3.01286685 2.36091859,2.90482411 C2.39579134,2.85397951 2.40129767,2.82538044 2.42332108,2.81584606 C2.83628821,2.62358839 3.01981193,2.28356411 3.11157614,1.9213065 C3.20518221,1.55585992 3.16296974,1.16974196 2.98126439,0.828147595 C2.78303866,0.454757053 2.41230749,0.2021082 1.93690028,0.135400085 C0.91090782,-0.00759933678 0.374982282,0.303821806 0.0574489849,1.1586375 C-0.0379895521,1.41445092 -0.0122974528,1.6448339 0.118019002,1.89112515 C0.468578957,2.5536913 0.461239699,2.556864 1.21007418,2.79998255 C1.30734988,2.83176042 1.40646274,2.86512871 1.53126771,2.90802529 C1.8542984,4.04885609 2.15895746,5.12769716 2.70225984,6.14617551 C2.97206447,6.65144881 3.21802826,7.16941293 3.4162164,7.69534947 C3.95580687,9.14124788 4.79094106,10.4647938 5.68476111,11.7565721 C7.09068465,13.785597 8.59020487,15.7637774 10.2934576,17.6195646 C11.1432515,18.5458719 11.963679,19.4928831 12.809808,20.4223631 C13.1071419,20.7496762 13.4210055,21.069025 13.7605284,21.3629882 C15.0287821,22.4624925 16.3099101,23.554065 17.5909911,24.6440512 C19.4667775,26.2424834 21.4214538,27.7566763 23.6790037,28.9516058 C24.1360205,29.1931176 24.5783682,29.4584654 25.0170321,29.7253792 C26.4431598,30.5992556 27.9610046,31.3317432 29.5339644,31.987964 C31.2739134,32.7124792 33.0157419,33.4259306 34.8988581,33.8390328 C35.4182915,33.9518427 35.9266831,34.1027902 36.4369071,34.2410224 C36.6663317,34.3045782 36.9086024,34.3554228 37.1141674,34.457112 C37.725365,34.7590028 38.3750913,34.9623853 39.0596814,35.0910831 C39.2101832,35.119683 39.3753728,35.1546389 39.3973953,35.3723188 C39.2946128,35.445409 39.1753099,35.5296198 39.0523374,35.6138307 C38.8431028,35.7584205 38.6228546,35.8918856 38.4264802,36.0475961 C38.186042,36.2398538 38.1016123,36.4861207 38.2117388,36.5957823 C38.3585709,36.7435489 38.5567966,36.6927043 38.7366695,36.6768164 C38.9202073,36.6609272 39.1129263,36.6370937 39.2780924,36.5687696 C39.5644174,36.449602 39.8433844,36.308193 40.1040173,36.1476949 C40.3297723,36.0078723 40.5647037,35.9204846 40.8418429,35.9077735 C40.9739918,35.9014183 41.1098104,35.8823512 41.2382897,35.8521617 C41.6934693,35.7520629 41.888016,35.4851288 41.7063153,35.1276465 L41.7064892,35.127618 Z" id="Shape"></path>
                </g>
            </g>
        </g>
    </g>
</svg>