<?xml version="1.0" encoding="UTF-8"?>
<svg width="190px" height="140px" viewBox="0 0 190 140" version="1.1" xmlns="http://www.w3.org/2000/svg" xmlns:xlink="http://www.w3.org/1999/xlink">
    <!-- Generator: Sketch 42 (36781) - http://www.bohemiancoding.com/sketch -->
    <title>Home Page &gt; Reduce Development Costs</title>
    <desc>Created with Sketch.</desc>
    <defs></defs>
    <g id="Page-1" stroke="none" stroke-width="1" fill="none" fill-rule="evenodd">
        <g id="Home-Page-&gt;-Reduce-Development-Costs">
            <g id="np_development_963352_70B3B8" transform="translate(60.000000, 52.000000)">
                <g id="Group"></g>
            </g>
            <g id="Group-3" transform="translate(31.000000, 5.000000)">
                <g id="Costs">
                    <path d="M21.3014323,74.1003439 L21.3014323,30.1926572 C21.3014323,24.7963074 19.2701823,9.6947449 30.4394531,9.6947449 C41.608724,9.6947449 103.115885,9.36141157 108.431641,9.36141157 C113.747396,9.36141157 120.253906,9.37638553 120.253906,16.9701355 C120.253906,24.5638855 119.390625,85.3288595 119.390625,88.9545105 L119.390625,96.3301616 C119.390625,96.3301616 128.798177,92.6817241 128.798177,89.5632345 L128.798177,0 L31.1825868,0 L31.1825868,4.4982552" id="Path-23" stroke="#70B3B8" stroke-width="4" stroke-linecap="round" stroke-linejoin="round"></path>
                    <path d="M116.5,97 L110.5,97" id="Line" stroke="#70B3B8" stroke-width="4" stroke-linecap="round"></path>
                    <path d="M43.8551432,128.901693 L52.5520833,114.215575 L63.265625,128.901693 L73.8841146,114.215575 L84.5865885,128.901693 L95.3102214,114.215575 L106.101562,128.901693 L106.101562,51.2562904 C106.101562,37.8686649 104.888021,23.4452287 108.470703,18.7492742 C112.053385,14.0533197 117.916667,12 117.916667,12" id="Path-24" stroke="#70B3B8" stroke-width="4" stroke-linecap="round" stroke-linejoin="round"></path>
                    <polyline id="Path-25" stroke="#70B3B8" stroke-width="4" stroke-linecap="round" stroke-linejoin="round" points="28.0058594 62.0537109 36.6230469 49.8476562 97.6992188 99.7207031"></polyline>
                    <polygon id="Triangle-2-Copy" fill="#70B3B8" transform="translate(95.000000, 96.500000) rotate(-45.000000) translate(-95.000000, -96.500000) " points="95 105.5 84.5 87.5 105.5 87.5"></polygon>
                    <path d="M62.2539062,54 L82.526441,54" id="Path-26" stroke="#70B3B8" stroke-width="4" stroke-linecap="round"></path>
                    <path d="M21.2725347,22.9733623 L21.2725347,79" id="Path-26" stroke="#70B3B8" stroke-width="4" stroke-linecap="round"></path>
                    <path d="M52.2539062,46 L99.2539062,46" id="Path-26-Copy-5" stroke="#70B3B8" stroke-width="4" stroke-linecap="round"></path>
                    <path d="M89.2539062,54 L99.2539062,54" id="Path-26-Copy" stroke="#70B3B8" stroke-width="4" stroke-linecap="round"></path>
                    <path d="M94.2539062,61 L99.2539062,61" id="Path-26-Copy-2" stroke="#70B3B8" stroke-width="4" stroke-linecap="round"></path>
                    <path d="M83.2539062,61 L88.2539062,61" id="Path-26-Copy-3" stroke="#70B3B8" stroke-width="4" stroke-linecap="round"></path>
                    <path d="M71.2539062,61 L76.2539062,61" id="Path-26-Copy-4" stroke="#70B3B8" stroke-width="4" stroke-linecap="round"></path>
                    <g id="Group" transform="translate(0.000000, 85.000000)" stroke="#70B3B8" stroke-width="4">
                        <circle id="Oval" cx="23" cy="23" r="23"></circle>
                        <g id="Group-2" transform="translate(15.000000, 8.000000)">
                            <g id="Group-4">
                                <path d="M15.5279615,9.16018399 L15.5279615,5.77547023 C15.5279615,4.96869557 15.1583278,4.54545455 13.6857694,4.54545455 L1.66228014,4.54545455 C0.223587366,4.54545455 0,5.35258111 0,7.49558867 L0,12.8304253 C0,13.973636 1.05523948,14.5709233 3.11347066,14.5709233 C5.17170184,14.5709233 10.4858777,14.5709233 12.5937053,14.5709233 C14.7015328,14.5709233 15.4553938,15.0570991 15.4553938,16.7709284 C15.4553938,18.4847577 15.4553938,22.0774558 15.4553938,23.3605881 C15.4553938,24.6437203 15.1817149,24.8705232 13.0218078,24.8705232 L1.77989834,24.8705232 C0.516009122,24.8705232 0.739762354,23.7762035 0.739762354,21.6389635 C0.739762354,19.5017236 0.739762354,18.6534679 0.739762354,18.6534679" id="Path-27" stroke-linejoin="round"></path>
                                <path d="M8,0.454545455 L8,1.36363636" id="Line" stroke-linecap="square"></path>
                                <path d="M8,28.6363636 L8,29.5454545" id="Line-Copy" stroke-linecap="square"></path>
                            </g>
                        </g>
                    </g>
                </g>
                <path d="M49.6845238,23.3616071 C49.3125,22.9895833 48.7230655,22.9895833 48.3824405,23.3616071 C48.0104167,23.733631 48.0104167,24.3230655 48.3824405,24.6636905 L51.7306548,28.0119048 L48.3824405,31.360119 C48.0104167,31.7321429 48.0104167,32.3215774 48.3824405,32.6622024 C48.5684524,32.8482143 48.8160714,32.9412202 49.0334821,32.9412202 C49.2508929,32.9412202 49.4985119,32.8482143 49.6845238,32.6622024 L53.6839286,28.6627976 C54.0559524,28.2907738 54.0559524,27.7013393 53.6839286,27.3607143 L49.6845238,23.3616071 Z" id="Shape" fill="#70B3B8" fill-rule="nonzero"></path>
                <path d="M45.9098214,21.0861963 C45.4133929,20.9802793 44.886756,21.1921133 44.7623512,21.5321636 L39.0587798,35.2512407 C38.9041577,35.5912972 39.2134018,35.9520465 39.7098214,36.0372645 C39.8028274,36.0587668 39.8644435,36.0587668 39.9574494,36.0587668 C40.360872,36.0587668 40.7328958,35.8676379 40.8561101,35.5912911 L46.5305149,21.872214 C46.6851369,21.5321575 46.406119,21.1714082 45.9097113,21.0861902 L45.9098214,21.0861963 Z" id="Shape" fill="#70B3B8" fill-rule="nonzero"></path>
                <path d="M37.6175595,23.3616071 C37.2455357,22.9895833 36.6561012,22.9895833 36.3154762,23.3616071 L32.3160714,27.3610119 C31.9440476,27.7330357 31.9440476,28.3224702 32.3160714,28.6630952 L36.3154762,32.6625 C36.5014881,32.8485119 36.7491071,32.9415179 36.9665179,32.9415179 C37.1839286,32.9415179 37.4315476,32.8485119 37.6175595,32.6625 C37.9895833,32.2904762 37.9895833,31.7010417 37.6175595,31.3604167 L34.2693452,28.0122024 L37.6175595,24.6639881 C37.9895833,24.3233631 37.9895833,23.7339286 37.6175595,23.3619048 L37.6175595,23.3616071 Z" id="Shape" fill="#70B3B8" fill-rule="nonzero"></path>
            </g>
        </g>
    </g>
</svg>