<svg xmlns="http://www.w3.org/2000/svg" width="41.91" height="31.94" viewBox="0 0 41.91 31.94">
  <defs>
    <style>
      .cls-1 {
        fill-rule: evenodd;
      }
    </style>
  </defs>
  <path id="Money_Stack_2" fill="#70B3B8" data-name="Money Stack 2" class="cls-1" d="M1450.78,1171.34l-2.15,1.26,1.67,0.56a2.3,2.3,0,0,1,.43,4.16l-2.23,1.3,1.8,0.61a2.3,2.3,0,0,1,.43,4.16l-12.48,7.3a2.72,2.72,0,0,1-1.25.31,1.912,1.912,0,0,1-.77-0.17l-24.81-10.19a2.3,2.3,0,0,1,.05-4.27l2.24-.86-2.29-.94a2.3,2.3,0,0,1,.05-4.27l2.14-.82-2.14-.88a2.3,2.3,0,0,1,.05-4.27l13.32-5.13a2.264,2.264,0,0,1,1.54-.03l23.97,8.01A2.3,2.3,0,0,1,1450.78,1171.34Zm-38.59,6.9a0.269,0.269,0,0,0-.19.27,0.283,0.283,0,0,0,.18.28L1437,1189l12.72-7.34a0.28,0.28,0,0,0,.15-0.29,0.286,0.286,0,0,0-.2-0.25l-3.47-1.16-7.95,4.66a2.333,2.333,0,0,1-1.15.31,2.364,2.364,0,0,1-.87-0.17l-19.87-8.16a0.671,0.671,0,0,1-.14.09Zm0-6.07a0.269,0.269,0,0,0-.19.27,0.283,0.283,0,0,0,.18.28L1437,1183l12.72-7.41a0.28,0.28,0,0,0,.15-0.29,0.286,0.286,0,0,0-.2-0.25l-3.33-1.11-8.04,4.7a1.94,1.94,0,0,1-1.3.36,1.023,1.023,0,0,1-.72-0.22l-19.97-8.2Zm37.53-3.09-23.97-8.01a0.292,0.292,0,0,0-.09-0.02,0.359,0.359,0,0,0-.11.02l-7.99,3.08,2.23,0.93a1.008,1.008,0,0,1,.54,1.31,0.992,0.992,0,0,1-.92.62,1.087,1.087,0,0,1-.39-0.08l-3.87-1.62a0.662,0.662,0,0,1-.22-0.15l-2.69,1.04a0.269,0.269,0,0,0-.19.27,0.291,0.291,0,0,0,.18.28L1437,1177l8.08-4.67-2.56-.89a1.008,1.008,0,0,1-.62-1.28,0.988,0.988,0,0,1,1.27-.61l4.2,1.45h0l2.4-1.39a0.267,0.267,0,0,0,.15-0.28A0.276,0.276,0,0,0,1449.72,1169.08Z" transform="translate(-1410 -1159.06)"/>
</svg>
